{
date = "2013-04-17 18:32:25 +0000";
familyName = "ggouv";
fontMaster = (
{
ascender = 800;
capHeight = 700;
descender = "-200";
id = "5D30703B-31DB-48F9-9EC6-DEC4C9CE33EC";
userData = {
GSCornerRadius = 30;
};
xHeight = 500;
}
);
glyphs = (
{
glyphname = A;
lastChange = "2013-04-17 21:35:13 +0200";
layers = (
{
layerId = "5D30703B-31DB-48F9-9EC6-DEC4C9CE33EC";
name = Regular;
paths = (
{
closed = 1;
nodes = (
"86 408 LINE",
"241 320 LINE",
"548 540 LINE",
"265 307 LINE",
"255 196 LINE",
"311 285 LINE",
"442 219 LINE",
"614 605 LINE"
);
}
);
width = 700;
}
);
unicode = 0041;
},
{
glyphname = B;
lastChange = "2013-04-17 21:17:24 +0200";
layers = (
{
background = {
paths = (
{
closed = 1;
nodes = (
"297 420 OFFCURVE",
"289 417 OFFCURVE",
"285 407 CURVE SMOOTH",
"177 179 LINE SMOOTH",
"173 170 OFFCURVE",
"177 161 OFFCURVE",
"187 158 CURVE SMOOTH",
"200 150 LINE SMOOTH",
"209 147 OFFCURVE",
"218 149 OFFCURVE",
"221 159 CURVE SMOOTH",
"227 168 LINE",
"334 145 LINE",
"332 133 LINE SMOOTH",
"327 115 OFFCURVE",
"338 99 OFFCURVE",
"356 96 CURVE SMOOTH",
"403 86 LINE SMOOTH",
"420 83 OFFCURVE",
"436 93 OFFCURVE",
"439 110 CURVE SMOOTH",
"442 122 LINE",
"530 103 LINE SMOOTH",
"535 101 OFFCURVE",
"538 95 OFFCURVE",
"536 92 CURVE SMOOTH",
"534 90 LINE SMOOTH",
"534 85 OFFCURVE",
"535 82 OFFCURVE",
"539 80 CURVE SMOOTH",
"563 69 LINE SMOOTH",
"565 67 OFFCURVE",
"569 68 OFFCURVE",
"571 74 CURVE SMOOTH",
"626 189 LINE SMOOTH",
"627 192 OFFCURVE",
"625 196 OFFCURVE",
"622 198 CURVE SMOOTH",
"599 208 LINE SMOOTH",
"594 210 OFFCURVE",
"591 209 OFFCURVE",
"589 207 CURVE SMOOTH",
"587 204 LINE SMOOTH",
"586 200 OFFCURVE",
"581 198 OFFCURVE",
"577 200 CURVE SMOOTH",
"323 378 LINE",
"328 387 LINE SMOOTH",
"331 396 OFFCURVE",
"329 405 OFFCURVE",
"320 410 CURVE SMOOTH",
"306 415 LINE SMOOTH"
);
},
{
closed = 1;
nodes = (
"111 278 OFFCURVE",
"110 278 OFFCURVE",
"110 277 CURVE",
"104 276 OFFCURVE",
"102 272 OFFCURVE",
"100 268 CURVE",
"100 265 OFFCURVE",
"100 264 OFFCURVE",
"102 260 CURVE",
"103 256 OFFCURVE",
"106 253 OFFCURVE",
"110 252 CURVE SMOOTH",
"152 245 LINE",
"154 245 OFFCURVE",
"155 245 OFFCURVE",
"157 246 CURVE SMOOTH",
"162 248 OFFCURVE",
"166 252 OFFCURVE",
"167 257 CURVE",
"168 261 OFFCURVE",
"168 261 OFFCURVE",
"167 263 CURVE",
"164 268 OFFCURVE",
"161 271 OFFCURVE",
"155 271 CURVE SMOOTH",
"112 279 LINE"
);
},
{
closed = 1;
nodes = (
"118 358 OFFCURVE",
"114 351 OFFCURVE",
"116 344 CURVE",
"118 341 OFFCURVE",
"119 339 OFFCURVE",
"124 337 CURVE SMOOTH",
"168 316 LINE",
"173 315 OFFCURVE",
"176 315 OFFCURVE",
"179 316 CURVE",
"182 317 OFFCURVE",
"185 319 OFFCURVE",
"186 323 CURVE SMOOTH",
"188 326 OFFCURVE",
"188 328 OFFCURVE",
"186 333 CURVE",
"185 337 OFFCURVE",
"184 339 OFFCURVE",
"180 340 CURVE SMOOTH",
"135 361 LINE SMOOTH",
"130 363 OFFCURVE",
"128 363 OFFCURVE",
"124 362 CURVE"
);
},
{
closed = 1;
nodes = (
"422 126 LINE",
"419 114 LINE",
"419 108 OFFCURVE",
"412 104 OFFCURVE",
"406 104 CURVE",
"360 113 LINE",
"352 117 OFFCURVE",
"348 120 OFFCURVE",
"350 128 CURVE SMOOTH",
"353 141 LINE"
);
},
{
closed = 1;
nodes = (
"177 429 OFFCURVE",
"177 428 OFFCURVE",
"172 424 CURVE",
"168 419 OFFCURVE",
"168 417 OFFCURVE",
"169 413 CURVE",
"169 411 OFFCURVE",
"171 409 OFFCURVE",
"174 407 CURVE",
"206 379 LINE",
"209 375 OFFCURVE",
"213 375 OFFCURVE",
"218 377 CURVE",
"221 378 OFFCURVE",
"222 379 OFFCURVE",
"223 380 CURVE",
"227 384 OFFCURVE",
"228 388 OFFCURVE",
"226 395 CURVE SMOOTH",
"222 399 LINE",
"192 427 LINE",
"187 431 OFFCURVE",
"184 431 OFFCURVE",
"178 430 CURVE"
);
},
{
closed = 1;
nodes = (
"554 183 LINE",
"291 308 LINE",
"313 355 LINE"
);
}
);
};
layerId = "5D30703B-31DB-48F9-9EC6-DEC4C9CE33EC";
name = Regular;
paths = (
{
closed = 1;
nodes = (
"284 571 OFFCURVE",
"276 568 OFFCURVE",
"272 558 CURVE SMOOTH",
"165 330 LINE SMOOTH",
"161 321 OFFCURVE",
"165 312 OFFCURVE",
"174 309 CURVE SMOOTH",
"187 301 LINE SMOOTH",
"196 298 OFFCURVE",
"205 300 OFFCURVE",
"208 310 CURVE SMOOTH",
"214 319 LINE",
"316 297 LINE",
"313 284 LINE SMOOTH",
"309 264 OFFCURVE",
"320 246 OFFCURVE",
"341 243 CURVE SMOOTH",
"392 232 LINE SMOOTH",
"411 229 OFFCURVE",
"428 240 OFFCURVE",
"432 259 CURVE SMOOTH",
"436 272 LINE",
"517 254 LINE SMOOTH",
"522 252 OFFCURVE",
"525 246 OFFCURVE",
"523 243 CURVE SMOOTH",
"521 241 LINE SMOOTH",
"521 236 OFFCURVE",
"522 233 OFFCURVE",
"526 231 CURVE SMOOTH",
"550 220 LINE SMOOTH",
"552 218 OFFCURVE",
"556 219 OFFCURVE",
"559 225 CURVE SMOOTH",
"613 340 LINE SMOOTH",
"615 343 OFFCURVE",
"612 347 OFFCURVE",
"609 349 CURVE SMOOTH",
"586 359 LINE SMOOTH",
"582 361 OFFCURVE",
"578 360 OFFCURVE",
"576 358 CURVE SMOOTH",
"574 355 LINE SMOOTH",
"574 351 OFFCURVE",
"568 349 OFFCURVE",
"564 351 CURVE SMOOTH",
"311 529 LINE",
"315 538 LINE SMOOTH",
"318 547 OFFCURVE",
"316 556 OFFCURVE",
"308 561 CURVE SMOOTH",
"293 566 LINE SMOOTH"
);
},
{
closed = 1;
nodes = (
"97 428 LINE",
"91 427 OFFCURVE",
"89 423 OFFCURVE",
"87 419 CURVE",
"87 416 OFFCURVE",
"87 415 OFFCURVE",
"89 411 CURVE",
"90 407 OFFCURVE",
"93 404 OFFCURVE",
"97 403 CURVE SMOOTH",
"140 396 LINE",
"141 396 OFFCURVE",
"143 396 OFFCURVE",
"145 397 CURVE SMOOTH",
"149 399 OFFCURVE",
"153 403 OFFCURVE",
"154 408 CURVE",
"155 412 OFFCURVE",
"155 412 OFFCURVE",
"154 414 CURVE",
"151 419 OFFCURVE",
"148 422 OFFCURVE",
"143 422 CURVE SMOOTH",
"99 430 LINE"
);
},
{
closed = 1;
nodes = (
"105 509 OFFCURVE",
"101 502 OFFCURVE",
"103 495 CURVE",
"105 492 OFFCURVE",
"106 490 OFFCURVE",
"111 488 CURVE SMOOTH",
"156 467 LINE",
"161 466 OFFCURVE",
"163 466 OFFCURVE",
"166 467 CURVE SMOOTH",
"169 468 OFFCURVE",
"172 470 OFFCURVE",
"173 474 CURVE SMOOTH",
"175 477 OFFCURVE",
"175 479 OFFCURVE",
"173 484 CURVE",
"172 488 OFFCURVE",
"171 490 OFFCURVE",
"167 491 CURVE SMOOTH",
"122 512 LINE SMOOTH",
"118 514 OFFCURVE",
"116 514 OFFCURVE",
"111 513 CURVE"
);
},
{
closed = 1;
nodes = (
"414 276 LINE",
"410 263 LINE",
"409 256 OFFCURVE",
"402 252 OFFCURVE",
"395 253 CURVE SMOOTH",
"344 262 LINE",
"335 266 OFFCURVE",
"332 270 OFFCURVE",
"333 278 CURVE SMOOTH",
"337 293 LINE"
);
},
{
closed = 1;
nodes = (
"160 575 LINE",
"156 570 OFFCURVE",
"156 568 OFFCURVE",
"156 564 CURVE",
"157 562 OFFCURVE",
"158 560 OFFCURVE",
"161 558 CURVE SMOOTH",
"193 530 LINE",
"197 526 OFFCURVE",
"201 526 OFFCURVE",
"205 528 CURVE",
"208 529 OFFCURVE",
"209 530 OFFCURVE",
"210 531 CURVE SMOOTH",
"214 535 OFFCURVE",
"215 539 OFFCURVE",
"213 546 CURVE SMOOTH",
"209 550 LINE",
"179 578 LINE",
"174 582 OFFCURVE",
"171 582 OFFCURVE",
"166 581 CURVE"
);
},
{
closed = 1;
nodes = (
"541 334 LINE",
"278 459 LINE",
"300 506 LINE"
);
}
);
width = 700;
}
);
unicode = 0042;
},
{
glyphname = C;
lastChange = "2013-04-17 21:17:24 +0200";
layers = (
{
layerId = "5D30703B-31DB-48F9-9EC6-DEC4C9CE33EC";
name = Regular;
paths = (
{
closed = 1;
nodes = (
"185 593 LINE SMOOTH",
"154 593 OFFCURVE",
"130 568 OFFCURVE",
"130 538 CURVE SMOOTH",
"130 345 LINE SMOOTH",
"130 315 OFFCURVE",
"154 290 OFFCURVE",
"185 290 CURVE SMOOTH",
"295 290 LINE",
"405 208 LINE",
"405 290 LINE",
"515 290 LINE SMOOTH",
"545 290 OFFCURVE",
"570 315 OFFCURVE",
"570 345 CURVE SMOOTH",
"570 538 LINE SMOOTH",
"570 568 OFFCURVE",
"545 593 OFFCURVE",
"515 593 CURVE SMOOTH"
);
}
);
width = 700;
}
);
unicode = 0043;
},
{
glyphname = D;
lastChange = "2013-04-17 21:17:24 +0200";
layers = (
{
layerId = "5D30703B-31DB-48F9-9EC6-DEC4C9CE33EC";
name = Regular;
paths = (
{
closed = 1;
nodes = (
"116 478 LINE SMOOTH",
"93 478 OFFCURVE",
"89 470 OFFCURVE",
"91 451 CURVE SMOOTH",
"112 219 LINE SMOOTH",
"115 201 OFFCURVE",
"120 194 OFFCURVE",
"141 194 CURVE SMOOTH",
"559 194 LINE SMOOTH",
"581 194 OFFCURVE",
"586 201 OFFCURVE",
"588 219 CURVE SMOOTH",
"609 451 LINE SMOOTH",
"611 470 OFFCURVE",
"607 478 OFFCURVE",
"585 478 CURVE SMOOTH"
);
},
{
closed = 1;
nodes = (
"171 606 LINE SMOOTH",
"158 606 OFFCURVE",
"144 596 OFFCURVE",
"143 581 CURVE",
"134 513 LINE",
"573 513 LINE",
"566 535 LINE",
"565 547 OFFCURVE",
"550 555 OFFCURVE",
"537 555 CURVE SMOOTH",
"360 555 LINE SMOOTH",
"340 555 OFFCURVE",
"327 562 OFFCURVE",
"315 573 CURVE SMOOTH",
"300 589 LINE SMOOTH",
"288 601 OFFCURVE",
"273 606 OFFCURVE",
"256 606 CURVE SMOOTH"
);
}
);
width = 700;
}
);
unicode = 0044;
},
{
glyphname = E;
lastChange = "2013-04-17 21:17:24 +0200";
layers = (
{
layerId = "5D30703B-31DB-48F9-9EC6-DEC4C9CE33EC";
name = Regular;
paths = (
{
closed = 1;
nodes = (
"288 452 LINE",
"123 452 LINE",
"258 352 LINE",
"208 173 LINE",
"350 279 LINE",
"490 173 LINE",
"442 352 LINE",
"577 452 LINE",
"411 452 LINE",
"350 627 LINE"
);
}
);
width = 700;
}
);
unicode = 0045;
},
{
glyphname = F;
lastChange = "2013-04-17 21:17:24 +0200";
layers = (
{
layerId = "5D30703B-31DB-48F9-9EC6-DEC4C9CE33EC";
name = Regular;
paths = (
{
closed = 1;
nodes = (
"399 604 LINE SMOOTH",
"371 604 OFFCURVE",
"351 594 OFFCURVE",
"332 574 CURVE SMOOTH",
"314 555 OFFCURVE",
"304 529 OFFCURVE",
"304 501 CURVE SMOOTH",
"304 464 LINE",
"240 464 LINE",
"240 385 LINE",
"304 385 LINE",
"304 197 LINE",
"381 197 LINE",
"381 385 LINE",
"461 385 LINE",
"461 464 LINE",
"381 464 LINE",
"381 503 LINE SMOOTH",
"381 509 OFFCURVE",
"382 514 OFFCURVE",
"388 521 CURVE SMOOTH",
"392 524 OFFCURVE",
"395 526 OFFCURVE",
"399 526 CURVE SMOOTH",
"461 526 LINE",
"461 604 LINE"
);
}
);
width = 700;
}
);
unicode = 0046;
},
{
glyphname = G;
lastChange = "2013-04-17 21:17:24 +0200";
layers = (
{
layerId = "5D30703B-31DB-48F9-9EC6-DEC4C9CE33EC";
name = Regular;
paths = (
{
closed = 1;
nodes = (
"245 609 LINE SMOOTH",
"215 609 OFFCURVE",
"189 600 OFFCURVE",
"165 581 CURVE SMOOTH",
"143 562 OFFCURVE",
"132 541 OFFCURVE",
"132 513 CURVE SMOOTH",
"132 490 OFFCURVE",
"140 467 OFFCURVE",
"159 449 CURVE SMOOTH",
"178 429 OFFCURVE",
"201 423 OFFCURVE",
"229 423 CURVE SMOOTH",
"241 423 LINE",
"239 412 OFFCURVE",
"235 405 OFFCURVE",
"235 399 CURVE SMOOTH",
"235 384 OFFCURVE",
"241 372 OFFCURVE",
"253 363 CURVE",
"251 363 OFFCURVE",
"247 363 OFFCURVE",
"242 363 CURVE SMOOTH",
"231 363 LINE SMOOTH",
"196 363 OFFCURVE",
"164 352 OFFCURVE",
"140 333 CURVE SMOOTH",
"116 314 OFFCURVE",
"103 293 OFFCURVE",
"103 268 CURVE SMOOTH",
"103 246 OFFCURVE",
"116 228 OFFCURVE",
"142 212 CURVE SMOOTH",
"168 197 OFFCURVE",
"198 191 OFFCURVE",
"235 191 CURVE SMOOTH",
"276 191 OFFCURVE",
"306 200 OFFCURVE",
"331 219 CURVE SMOOTH",
"351 238 OFFCURVE",
"362 259 OFFCURVE",
"362 286 CURVE SMOOTH",
"362 304 OFFCURVE",
"355 319 OFFCURVE",
"352 332 CURVE SMOOTH",
"349 347 OFFCURVE",
"335 355 OFFCURVE",
"319 370 CURVE",
"311 373 OFFCURVE",
"303 382 OFFCURVE",
"296 390 CURVE",
"287 399 OFFCURVE",
"284 405 OFFCURVE",
"284 410 CURVE SMOOTH",
"284 416 OFFCURVE",
"286 424 OFFCURVE",
"289 428 CURVE SMOOTH",
"292 434 OFFCURVE",
"299 438 OFFCURVE",
"309 448 CURVE",
"334 465 OFFCURVE",
"348 490 OFFCURVE",
"348 513 CURVE SMOOTH",
"348 530 OFFCURVE",
"346 547 OFFCURVE",
"335 561 CURVE",
"327 576 OFFCURVE",
"317 585 OFFCURVE",
"303 588 CURVE",
"348 588 LINE",
"372 609 LINE"
);
},
{
closed = 1;
nodes = (
"255 349 OFFCURVE",
"265 348 OFFCURVE",
"277 346 CURVE",
"280 343 OFFCURVE",
"283 339 OFFCURVE",
"287 336 CURVE SMOOTH",
"293 333 OFFCURVE",
"296 331 OFFCURVE",
"299 330 CURVE",
"300 328 OFFCURVE",
"303 326 OFFCURVE",
"306 324 CURVE SMOOTH",
"311 319 OFFCURVE",
"314 318 OFFCURVE",
"316 317 CURVE",
"317 314 OFFCURVE",
"319 311 OFFCURVE",
"321 310 CURVE",
"322 307 OFFCURVE",
"324 305 OFFCURVE",
"326 300 CURVE SMOOTH",
"327 299 OFFCURVE",
"329 295 OFFCURVE",
"330 293 CURVE",
"331 288 OFFCURVE",
"331 284 OFFCURVE",
"331 279 CURVE SMOOTH",
"331 235 OFFCURVE",
"299 212 OFFCURVE",
"235 212 CURVE SMOOTH",
"211 212 OFFCURVE",
"191 219 OFFCURVE",
"174 232 CURVE SMOOTH",
"159 247 OFFCURVE",
"149 264 OFFCURVE",
"149 282 CURVE SMOOTH",
"149 299 OFFCURVE",
"159 317 OFFCURVE",
"179 330 CURVE SMOOTH",
"197 343 OFFCURVE",
"219 351 OFFCURVE",
"245 349 CURVE"
);
},
{
closed = 1;
nodes = (
"245 590 OFFCURVE",
"261 581 OFFCURVE",
"274 567 CURVE SMOOTH",
"287 550 OFFCURVE",
"297 532 OFFCURVE",
"300 510 CURVE SMOOTH",
"303 490 OFFCURVE",
"299 470 OFFCURVE",
"289 455 CURVE SMOOTH",
"279 441 OFFCURVE",
"265 434 OFFCURVE",
"250 435 CURVE SMOOTH",
"233 435 OFFCURVE",
"217 443 OFFCURVE",
"203 461 CURVE",
"189 476 OFFCURVE",
"181 493 OFFCURVE",
"179 513 CURVE SMOOTH",
"177 539 OFFCURVE",
"179 557 OFFCURVE",
"189 570 CURVE SMOOTH",
"197 585 OFFCURVE",
"211 593 OFFCURVE",
"228 590 CURVE SMOOTH"
);
},
{
closed = 1;
nodes = (
"474 609 LINE",
"474 516 LINE",
"381 516 LINE",
"381 486 LINE",
"474 486 LINE",
"474 392 LINE",
"505 392 LINE",
"505 486 LINE",
"598 486 LINE",
"598 516 LINE",
"505 516 LINE",
"505 609 LINE"
);
}
);
width = 700;
}
);
unicode = 0047;
},
{
glyphname = H;
lastChange = "2013-04-17 21:17:24 +0200";
layers = (
{
layerId = "5D30703B-31DB-48F9-9EC6-DEC4C9CE33EC";
name = Regular;
paths = (
{
closed = 1;
nodes = (
"346 630 LINE SMOOTH",
"219 628 OFFCURVE",
"120 525 OFFCURVE",
"120 400 CURVE SMOOTH",
"120 271 OFFCURVE",
"226 170 OFFCURVE",
"347 170 CURVE SMOOTH",
"353 170 LINE SMOOTH",
"480 171 OFFCURVE",
"580 275 OFFCURVE",
"580 400 CURVE SMOOTH",
"580 403 LINE SMOOTH",
"577 530 OFFCURVE",
"473 630 OFFCURVE",
"349 630 CURVE SMOOTH"
);
},
{
closed = 1;
nodes = (
"442 223 LINE",
"413 208 OFFCURVE",
"383 200 OFFCURVE",
"352 200 CURVE SMOOTH",
"348 200 LINE SMOOTH",
"318 200 OFFCURVE",
"288 207 OFFCURVE",
"257 222 CURVE",
"288 274 LINE",
"308 265 OFFCURVE",
"328 260 OFFCURVE",
"350 260 CURVE SMOOTH",
"371 260 OFFCURVE",
"391 265 OFFCURVE",
"411 274 CURVE"
);
},
{
closed = 1;
nodes = (
"224 461 LINE",
"215 442 OFFCURVE",
"210 421 OFFCURVE",
"210 399 CURVE SMOOTH",
"210 378 OFFCURVE",
"215 358 OFFCURVE",
"224 339 CURVE",
"172 308 LINE",
"157 336 OFFCURVE",
"150 367 OFFCURVE",
"150 401 CURVE SMOOTH",
"150 434 OFFCURVE",
"157 464 OFFCURVE",
"172 492 CURVE"
);
},
{
closed = 1;
nodes = (
"410 510 OFFCURVE",
"460 461 OFFCURVE",
"460 400 CURVE SMOOTH",
"460 339 OFFCURVE",
"410 290 OFFCURVE",
"350 290 CURVE SMOOTH",
"289 290 OFFCURVE",
"240 339 OFFCURVE",
"240 400 CURVE SMOOTH",
"240 431 OFFCURVE",
"251 457 OFFCURVE",
"272 478 CURVE SMOOTH",
"293 499 OFFCURVE",
"319 510 OFFCURVE",
"350 510 CURVE SMOOTH"
);
},
{
closed = 1;
nodes = (
"542 464 OFFCURVE",
"549 435 OFFCURVE",
"550 403 CURVE SMOOTH",
"550 368 OFFCURVE",
"542 337 OFFCURVE",
"527 308 CURVE",
"475 339 LINE",
"485 359 OFFCURVE",
"490 379 OFFCURVE",
"490 400 CURVE SMOOTH",
"490 421 OFFCURVE",
"485 441 OFFCURVE",
"475 461 CURVE",
"527 492 LINE"
);
},
{
closed = 1;
nodes = (
"381 600 OFFCURVE",
"413 592 OFFCURVE",
"442 577 CURVE",
"411 526 LINE",
"391 535 OFFCURVE",
"370 540 OFFCURVE",
"350 540 CURVE SMOOTH",
"329 540 OFFCURVE",
"308 535 OFFCURVE",
"288 526 CURVE",
"257 577 LINE",
"284 591 OFFCURVE",
"314 599 OFFCURVE",
"347 600 CURVE SMOOTH"
);
}
);
width = 700;
}
);
unicode = 0048;
},
{
glyphname = I;
lastChange = "2013-04-17 21:15:55 +0200";
layers = (
{
layerId = "5D30703B-31DB-48F9-9EC6-DEC4C9CE33EC";
name = Regular;
paths = (
{
closed = 1;
nodes = (
"365 558 OFFCURVE",
"331 557 OFFCURVE",
"302 544 CURVE SMOOTH",
"301 544 LINE SMOOTH",
"268 527 OFFCURVE",
"246 503 OFFCURVE",
"235 473 CURVE SMOOTH",
"225 443 OFFCURVE",
"226 407 OFFCURVE",
"240 378 CURVE SMOOTH",
"242 373 LINE SMOOTH",
"245 365 OFFCURVE",
"249 359 OFFCURVE",
"253 355 CURVE",
"258 348 OFFCURVE",
"262 343 OFFCURVE",
"269 338 CURVE SMOOTH",
"279 328 OFFCURVE",
"292 319 OFFCURVE",
"307 309 CURVE SMOOTH",
"322 299 OFFCURVE",
"339 284 OFFCURVE",
"353 272 CURVE SMOOTH",
"361 267 OFFCURVE",
"367 260 OFFCURVE",
"373 256 CURVE SMOOTH",
"383 249 OFFCURVE",
"390 245 OFFCURVE",
"399 247 CURVE",
"405 250 LINE",
"416 254 LINE",
"434 262 LINE",
"439 265 LINE",
"448 269 LINE SMOOTH",
"451 270 OFFCURVE",
"455 272 OFFCURVE",
"457 275 CURVE SMOOTH",
"460 276 OFFCURVE",
"461 276 OFFCURVE",
"463 276 CURVE",
"467 279 OFFCURVE",
"468 282 OFFCURVE",
"470 287 CURVE SMOOTH",
"474 297 OFFCURVE",
"474 310 OFFCURVE",
"474 329 CURVE SMOOTH",
"474 338 OFFCURVE",
"473 348 OFFCURVE",
"474 361 CURVE",
"474 372 OFFCURVE",
"476 378 OFFCURVE",
"476 387 CURVE SMOOTH",
"477 397 OFFCURVE",
"478 404 OFFCURVE",
"478 412 CURVE SMOOTH",
"479 429 OFFCURVE",
"478 443 OFFCURVE",
"475 457 CURVE SMOOTH",
"473 465 OFFCURVE",
"472 470 OFFCURVE",
"469 478 CURVE",
"469 480 LINE",
"467 483 LINE SMOOTH",
"452 515 OFFCURVE",
"426 536 OFFCURVE",
"396 547 CURVE SMOOTH"
);
},
{
closed = 1;
nodes = (
"183 309 LINE SMOOTH",
"178 305 OFFCURVE",
"175 297 OFFCURVE",
"181 290 CURVE SMOOTH",
"185 282 OFFCURVE",
"193 281 OFFCURVE",
"200 284 CURVE",
"200 285 LINE SMOOTH",
"201 287 OFFCURVE",
"202 287 OFFCURVE",
"202 288 CURVE",
"233 322 LINE",
"234 323 OFFCURVE",
"235 324 OFFCURVE",
"234 327 CURVE SMOOTH",
"234 332 OFFCURVE",
"229 339 OFFCURVE",
"223 333 CURVE SMOOTH"
);
},
{
closed = 1;
nodes = (
"144 496 OFFCURVE",
"134 492 OFFCURVE",
"130 484 CURVE SMOOTH",
"128 474 OFFCURVE",
"130 465 OFFCURVE",
"140 463 CURVE SMOOTH",
"141 462 LINE",
"144 462 LINE",
"195 455 LINE SMOOTH",
"199 454 OFFCURVE",
"201 454 OFFCURVE",
"203 456 CURVE SMOOTH",
"207 461 OFFCURVE",
"208 469 OFFCURVE",
"200 473 CURVE SMOOTH",
"152 492 LINE SMOOTH"
);
},
{
closed = 1;
nodes = (
"459 210 LINE",
"424 193 LINE SMOOTH",
"416 190 OFFCURVE",
"413 180 OFFCURVE",
"416 172 CURVE SMOOTH",
"419 166 OFFCURVE",
"428 162 OFFCURVE",
"438 166 CURVE SMOOTH",
"469 182 LINE",
"471 182 LINE",
"499 195 LINE SMOOTH",
"509 199 OFFCURVE",
"513 209 OFFCURVE",
"510 216 CURVE SMOOTH",
"506 224 OFFCURVE",
"495 228 OFFCURVE",
"486 222 CURVE SMOOTH"
);
},
{
closed = 1;
nodes = (
"405 236 LINE SMOOTH",
"395 231 OFFCURVE",
"394 221 OFFCURVE",
"396 214 CURVE SMOOTH",
"399 206 OFFCURVE",
"408 204 OFFCURVE",
"418 208 CURVE SMOOTH",
"450 223 LINE",
"451 223 LINE",
"479 237 LINE SMOOTH",
"489 240 OFFCURVE",
"494 251 OFFCURVE",
"491 257 CURVE SMOOTH",
"486 265 OFFCURVE",
"476 269 OFFCURVE",
"466 264 CURVE SMOOTH"
);
},
{
closed = 1;
nodes = (
"251 631 OFFCURVE",
"248 624 OFFCURVE",
"250 616 CURVE",
"252 612 LINE",
"280 568 LINE SMOOTH",
"282 564 OFFCURVE",
"287 562 OFFCURVE",
"293 565 CURVE SMOOTH",
"295 566 LINE SMOOTH",
"297 567 OFFCURVE",
"297 572 OFFCURVE",
"296 576 CURVE",
"281 626 LINE",
"281 627 OFFCURVE",
"281 629 OFFCURVE",
"279 630 CURVE",
"275 636 OFFCURVE",
"268 638 OFFCURVE",
"261 636 CURVE"
);
},
{
closed = 1;
nodes = (
"508 465 LINE SMOOTH",
"502 464 OFFCURVE",
"501 461 OFFCURVE",
"501 456 CURVE",
"502 451 OFFCURVE",
"505 447 OFFCURVE",
"510 448 CURVE",
"557 450 LINE",
"558 449 OFFCURVE",
"559 449 OFFCURVE",
"561 450 CURVE",
"569 452 OFFCURVE",
"573 461 OFFCURVE",
"570 468 CURVE SMOOTH",
"567 477 OFFCURVE",
"561 482 OFFCURVE",
"552 479 CURVE SMOOTH"
);
},
{
closed = 1;
nodes = (
"450 638 OFFCURVE",
"441 635 OFFCURVE",
"438 625 CURVE SMOOTH",
"422 576 LINE SMOOTH",
"420 571 OFFCURVE",
"422 567 OFFCURVE",
"427 565 CURVE",
"431 563 OFFCURVE",
"435 563 OFFCURVE",
"437 568 CURVE",
"468 612 LINE SMOOTH",
"468 614 OFFCURVE",
"468 614 OFFCURVE",
"469 615 CURVE",
"472 625 OFFCURVE",
"467 633 OFFCURVE",
"458 637 CURVE SMOOTH"
);
}
);
width = 700;
}
);
unicode = 0049;
},
{
glyphname = J;
lastChange = "2013-04-17 21:18:22 +0200";
layers = (
{
layerId = "5D30703B-31DB-48F9-9EC6-DEC4C9CE33EC";
name = Regular;
paths = (
{
closed = 1;
nodes = (
"478 606 OFFCURVE",
"477 606 OFFCURVE",
"475 606 CURVE SMOOTH",
"466 606 LINE",
"446 600 OFFCURVE",
"430 592 OFFCURVE",
"418 584 CURVE",
"405 587 OFFCURVE",
"391 592 OFFCURVE",
"375 593 CURVE SMOOTH",
"369 594 OFFCURVE",
"362 595 OFFCURVE",
"352 595 CURVE SMOOTH",
"340 595 LINE SMOOTH",
"310 594 OFFCURVE",
"294 590 OFFCURVE",
"272 583 CURVE",
"259 591 OFFCURVE",
"245 601 OFFCURVE",
"223 605 CURVE",
"219 606 OFFCURVE",
"217 606 OFFCURVE",
"215 606 CURVE SMOOTH",
"213 606 OFFCURVE",
"211 606 OFFCURVE",
"210 605 CURVE",
"208 604 OFFCURVE",
"206 599 OFFCURVE",
"205 593 CURVE SMOOTH",
"203 583 OFFCURVE",
"201 574 OFFCURVE",
"201 566 CURVE SMOOTH",
"201 556 OFFCURVE",
"203 549 OFFCURVE",
"205 542 CURVE SMOOTH",
"205 539 LINE",
"191 521 OFFCURVE",
"185 498 OFFCURVE",
"185 472 CURVE SMOOTH",
"185 460 OFFCURVE",
"186 444 OFFCURVE",
"191 428 CURVE",
"177 428 LINE SMOOTH",
"167 428 OFFCURVE",
"158 428 OFFCURVE",
"150 427 CURVE SMOOTH",
"125 426 OFFCURVE",
"106 424 OFFCURVE",
"96 422 CURVE",
"94 421 OFFCURVE",
"92 421 OFFCURVE",
"91 420 CURVE",
"103 421 LINE",
"124 424 OFFCURVE",
"148 426 OFFCURVE",
"177 427 CURVE SMOOTH",
"191 427 LINE",
"192 422 OFFCURVE",
"194 418 OFFCURVE",
"195 415 CURVE",
"157 414 OFFCURVE",
"100 405 OFFCURVE",
"92 398 CURVE",
"91 398 LINE",
"105 401 LINE SMOOTH",
"127 406 OFFCURVE",
"155 411 OFFCURVE",
"191 414 CURVE",
"196 414 LINE",
"204 396 OFFCURVE",
"215 382 OFFCURVE",
"232 372 CURVE SMOOTH",
"245 364 OFFCURVE",
"255 359 OFFCURVE",
"266 357 CURVE",
"270 357 OFFCURVE",
"274 356 OFFCURVE",
"282 355 CURVE",
"288 353 OFFCURVE",
"296 352 OFFCURVE",
"307 350 CURVE",
"305 350 LINE",
"296 345 OFFCURVE",
"290 336 OFFCURVE",
"286 324 CURVE",
"284 324 OFFCURVE",
"282 323 OFFCURVE",
"279 323 CURVE SMOOTH",
"272 320 OFFCURVE",
"264 318 OFFCURVE",
"255 318 CURVE SMOOTH",
"242 318 OFFCURVE",
"227 323 OFFCURVE",
"217 342 CURVE SMOOTH",
"209 356 OFFCURVE",
"194 366 OFFCURVE",
"181 366 CURVE SMOOTH",
"170 366 OFFCURVE",
"167 360 OFFCURVE",
"175 355 CURVE",
"189 345 OFFCURVE",
"196 336 OFFCURVE",
"200 328 CURVE SMOOTH",
"206 315 LINE SMOOTH",
"209 308 OFFCURVE",
"212 306 OFFCURVE",
"216 300 CURVE SMOOTH",
"225 292 OFFCURVE",
"235 287 OFFCURVE",
"247 286 CURVE",
"262 284 OFFCURVE",
"275 286 OFFCURVE",
"282 288 CURVE",
"282 273 LINE SMOOTH",
"282 246 OFFCURVE",
"282 232 OFFCURVE",
"281 230 CURVE SMOOTH",
"278 224 OFFCURVE",
"273 218 OFFCURVE",
"268 216 CURVE SMOOTH",
"257 210 OFFCURVE",
"264 206 OFFCURVE",
"274 206 CURVE SMOOTH",
"304 209 OFFCURVE",
"305 214 OFFCURVE",
"307 262 CURVE SMOOTH",
"308 287 OFFCURVE",
"309 301 OFFCURVE",
"310 306 CURVE",
"312 308 OFFCURVE",
"313 312 OFFCURVE",
"315 313 CURVE",
"316 312 OFFCURVE",
"317 240 OFFCURVE",
"316 226 CURVE SMOOTH",
"315 220 OFFCURVE",
"314 215 OFFCURVE",
"312 210 CURVE",
"310 208 OFFCURVE",
"309 206 OFFCURVE",
"307 205 CURVE SMOOTH",
"305 204 OFFCURVE",
"305 202 OFFCURVE",
"305 200 CURVE",
"304 196 OFFCURVE",
"305 195 OFFCURVE",
"309 195 CURVE SMOOTH",
"310 195 OFFCURVE",
"313 195 OFFCURVE",
"316 196 CURVE",
"326 198 OFFCURVE",
"337 206 OFFCURVE",
"341 224 CURVE SMOOTH",
"343 232 OFFCURVE",
"344 251 OFFCURVE",
"344 281 CURVE SMOOTH",
"344 315 LINE",
"351 315 LINE",
"352 269 LINE SMOOTH",
"353 243 OFFCURVE",
"354 227 OFFCURVE",
"355 223 CURVE SMOOTH",
"355 211 OFFCURVE",
"365 199 OFFCURVE",
"379 196 CURVE SMOOTH",
"382 196 OFFCURVE",
"384 195 OFFCURVE",
"385 195 CURVE SMOOTH",
"387 195 OFFCURVE",
"389 196 OFFCURVE",
"390 196 CURVE",
"391 198 OFFCURVE",
"390 202 OFFCURVE",
"386 206 CURVE",
"382 211 OFFCURVE",
"380 216 OFFCURVE",
"379 224 CURVE SMOOTH",
"379 232 OFFCURVE",
"378 248 OFFCURVE",
"378 277 CURVE",
"379 296 OFFCURVE",
"379 306 OFFCURVE",
"379 308 CURVE SMOOTH",
"379 311 OFFCURVE",
"380 312 OFFCURVE",
"381 310 CURVE",
"383 307 OFFCURVE",
"385 306 OFFCURVE",
"385 298 CURVE SMOOTH",
"386 292 OFFCURVE",
"387 281 OFFCURVE",
"387 265 CURVE SMOOTH",
"387 243 OFFCURVE",
"387 231 OFFCURVE",
"390 224 CURVE",
"393 214 OFFCURVE",
"407 206 OFFCURVE",
"421 206 CURVE SMOOTH",
"435 206 OFFCURVE",
"435 211 OFFCURVE",
"426 216 CURVE SMOOTH",
"420 219 OFFCURVE",
"415 224 OFFCURVE",
"414 230 CURVE",
"413 232 OFFCURVE",
"412 247 OFFCURVE",
"412 277 CURVE SMOOTH",
"411 306 OFFCURVE",
"410 323 OFFCURVE",
"408 326 CURVE SMOOTH",
"404 336 OFFCURVE",
"399 342 OFFCURVE",
"392 347 CURVE",
"391 348 OFFCURVE",
"388 349 OFFCURVE",
"386 350 CURVE",
"391 351 OFFCURVE",
"393 351 OFFCURVE",
"395 351 CURVE",
"445 358 OFFCURVE",
"481 366 OFFCURVE",
"499 409 CURVE",
"500 412 OFFCURVE",
"500 414 OFFCURVE",
"501 415 CURVE",
"508 414 LINE SMOOTH",
"545 412 OFFCURVE",
"573 406 OFFCURVE",
"594 402 CURVE SMOOTH",
"601 400 OFFCURVE",
"604 399 OFFCURVE",
"605 398 CURVE",
"609 397 OFFCURVE",
"609 398 OFFCURVE",
"607 399 CURVE",
"602 402 OFFCURVE",
"588 406 OFFCURVE",
"565 409 CURVE SMOOTH",
"544 413 OFFCURVE",
"523 415 OFFCURVE",
"504 415 CURVE SMOOTH",
"501 415 LINE",
"504 422 LINE",
"504 422 OFFCURVE",
"504 424 OFFCURVE",
"504 427 CURVE",
"523 427 LINE SMOOTH",
"552 427 OFFCURVE",
"576 425 OFFCURVE",
"596 422 CURVE SMOOTH",
"602 421 OFFCURVE",
"607 420 OFFCURVE",
"609 420 CURVE",
"604 422 LINE",
"593 424 OFFCURVE",
"575 426 OFFCURVE",
"549 428 CURVE SMOOTH",
"540 429 OFFCURVE",
"529 429 OFFCURVE",
"519 429 CURVE SMOOTH",
"504 429 LINE",
"505 435 LINE",
"507 442 OFFCURVE",
"508 455 OFFCURVE",
"508 471 CURVE SMOOTH",
"508 485 OFFCURVE",
"507 496 OFFCURVE",
"506 501 CURVE",
"504 514 OFFCURVE",
"495 533 OFFCURVE",
"485 543 CURVE",
"487 550 OFFCURVE",
"489 557 OFFCURVE",
"489 566 CURVE SMOOTH",
"489 574 OFFCURVE",
"487 583 OFFCURVE",
"485 593 CURVE",
"483 600 OFFCURVE",
"482 604 OFFCURVE",
"480 606 CURVE"
);
},
{
closed = 1;
nodes = (
"291 467 LINE SMOOTH",
"282 467 OFFCURVE",
"277 463 OFFCURVE",
"273 452 CURVE SMOOTH",
"272 448 OFFCURVE",
"272 444 OFFCURVE",
"272 441 CURVE SMOOTH",
"272 427 OFFCURVE",
"283 415 OFFCURVE",
"291 415 CURVE SMOOTH",
"294 415 OFFCURVE",
"296 416 OFFCURVE",
"300 418 CURVE",
"307 423 OFFCURVE",
"310 430 OFFCURVE",
"310 441 CURVE SMOOTH",
"310 455 OFFCURVE",
"303 465 OFFCURVE",
"294 467 CURVE"
);
},
{
closed = 1;
nodes = (
"363 406 OFFCURVE",
"357 406 OFFCURVE",
"356 403 CURVE SMOOTH",
"355 400 OFFCURVE",
"355 398 OFFCURVE",
"354 397 CURVE",
"347 396 OFFCURVE",
"345 396 OFFCURVE",
"338 401 CURVE SMOOTH",
"331 406 OFFCURVE",
"332 400 OFFCURVE",
"336 396 CURVE SMOOTH",
"340 392 OFFCURVE",
"345 391 OFFCURVE",
"346 391 CURVE SMOOTH",
"349 391 OFFCURVE",
"353 392 OFFCURVE",
"355 393 CURVE",
"360 396 OFFCURVE",
"363 397 OFFCURVE",
"363 403 CURVE SMOOTH"
);
},
{
closed = 1;
nodes = (
"346 425 LINE",
"345 424 OFFCURVE",
"344 424 OFFCURVE",
"342 422 CURVE SMOOTH",
"341 422 OFFCURVE",
"341 420 OFFCURVE",
"341 419 CURVE SMOOTH",
"341 416 OFFCURVE",
"342 415 OFFCURVE",
"343 413 CURVE",
"345 412 OFFCURVE",
"345 411 OFFCURVE",
"347 411 CURVE SMOOTH",
"349 411 OFFCURVE",
"351 412 OFFCURVE",
"352 413 CURVE SMOOTH",
"355 414 OFFCURVE",
"355 415 OFFCURVE",
"355 417 CURVE SMOOTH",
"355 421 OFFCURVE",
"351 425 OFFCURVE",
"347 425 CURVE SMOOTH"
);
},
{
closed = 1;
nodes = (
"429 496 OFFCURVE",
"447 496 OFFCURVE",
"462 466 CURVE",
"464 461 OFFCURVE",
"465 455 OFFCURVE",
"466 446 CURVE",
"466 442 LINE SMOOTH",
"466 430 OFFCURVE",
"464 420 OFFCURVE",
"460 409 CURVE SMOOTH",
"456 401 OFFCURVE",
"445 388 OFFCURVE",
"436 385 CURVE",
"417 376 OFFCURVE",
"399 375 OFFCURVE",
"355 375 CURVE",
"346 374 OFFCURVE",
"341 374 OFFCURVE",
"336 374 CURVE SMOOTH",
"324 374 OFFCURVE",
"317 374 OFFCURVE",
"314 375 CURVE",
"251 380 OFFCURVE",
"229 406 OFFCURVE",
"229 441 CURVE SMOOTH",
"229 446 LINE",
"230 457 OFFCURVE",
"234 468 OFFCURVE",
"241 477 CURVE SMOOTH",
"255 495 OFFCURVE",
"265 496 OFFCURVE",
"291 496 CURVE SMOOTH",
"328 496 LINE",
"347 496 LINE SMOOTH",
"355 496 OFFCURVE",
"362 496 OFFCURVE",
"368 496 CURVE SMOOTH",
"405 496 LINE SMOOTH"
);
},
{
closed = 1;
nodes = (
"396 466 OFFCURVE",
"391 460 OFFCURVE",
"387 450 CURVE SMOOTH",
"386 446 OFFCURVE",
"385 442 OFFCURVE",
"385 438 CURVE SMOOTH",
"385 425 OFFCURVE",
"396 414 OFFCURVE",
"405 414 CURVE SMOOTH",
"407 414 OFFCURVE",
"410 415 OFFCURVE",
"413 416 CURVE",
"420 421 OFFCURVE",
"425 428 OFFCURVE",
"425 439 CURVE SMOOTH",
"425 453 OFFCURVE",
"418 463 OFFCURVE",
"407 465 CURVE",
"406 466 OFFCURVE",
"405 466 OFFCURVE",
"404 466 CURVE SMOOTH"
);
}
);
width = 700;
}
);
unicode = 004A;
},
{
glyphname = K;
lastChange = "2013-04-17 21:18:22 +0200";
layers = (
{
layerId = "5D30703B-31DB-48F9-9EC6-DEC4C9CE33EC";
name = Regular;
paths = (
{
closed = 1;
nodes = (
"356 626 OFFCURVE",
"348 626 OFFCURVE",
"336 625 CURVE SMOOTH",
"310 625 OFFCURVE",
"285 611 OFFCURVE",
"285 602 CURVE",
"280 602 LINE",
"275 601 OFFCURVE",
"264 596 OFFCURVE",
"260 593 CURVE SMOOTH",
"254 587 OFFCURVE",
"242 555 OFFCURVE",
"242 547 CURVE SMOOTH",
"242 535 OFFCURVE",
"249 483 OFFCURVE",
"254 474 CURVE",
"247 472 LINE",
"246 466 OFFCURVE",
"246 461 OFFCURVE",
"246 456 CURVE SMOOTH",
"246 444 OFFCURVE",
"249 426 OFFCURVE",
"252 416 CURVE SMOOTH",
"257 407 OFFCURVE",
"265 401 OFFCURVE",
"268 399 CURVE",
"268 398 OFFCURVE",
"269 397 OFFCURVE",
"270 397 CURVE",
"273 384 OFFCURVE",
"276 372 OFFCURVE",
"278 366 CURVE SMOOTH",
"280 358 OFFCURVE",
"282 354 OFFCURVE",
"285 354 CURVE",
"288 353 OFFCURVE",
"290 352 OFFCURVE",
"290 346 CURVE SMOOTH",
"290 341 OFFCURVE",
"289 338 OFFCURVE",
"288 336 CURVE",
"285 335 OFFCURVE",
"284 334 OFFCURVE",
"283 335 CURVE SMOOTH",
"282 336 OFFCURVE",
"281 336 OFFCURVE",
"280 336 CURVE",
"278 330 LINE",
"274 320 OFFCURVE",
"260 308 OFFCURVE",
"249 301 CURVE",
"146 262 OFFCURVE",
"94 239 OFFCURVE",
"88 233 CURVE SMOOTH",
"82 226 OFFCURVE",
"79 209 OFFCURVE",
"79 181 CURVE SMOOTH",
"79 175 LINE",
"622 175 LINE",
"622 187 LINE SMOOTH",
"622 204 OFFCURVE",
"620 227 OFFCURVE",
"614 233 CURVE SMOOTH",
"608 239 OFFCURVE",
"555 262 OFFCURVE",
"454 301 CURVE",
"439 308 OFFCURVE",
"427 319 OFFCURVE",
"421 336 CURVE",
"420 335 LINE",
"418 334 OFFCURVE",
"416 335 OFFCURVE",
"415 336 CURVE",
"412 338 OFFCURVE",
"412 341 OFFCURVE",
"412 346 CURVE SMOOTH",
"412 352 OFFCURVE",
"415 353 OFFCURVE",
"418 354 CURVE",
"420 354 OFFCURVE",
"421 358 OFFCURVE",
"424 366 CURVE",
"427 372 OFFCURVE",
"431 384 OFFCURVE",
"432 397 CURVE",
"435 398 LINE",
"440 401 OFFCURVE",
"445 407 OFFCURVE",
"450 416 CURVE SMOOTH",
"455 426 OFFCURVE",
"456 444 OFFCURVE",
"456 454 CURVE SMOOTH",
"456 460 OFFCURVE",
"456 466 OFFCURVE",
"455 472 CURVE",
"449 472 LINE",
"451 491 LINE SMOOTH",
"454 501 OFFCURVE",
"456 516 OFFCURVE",
"456 532 CURVE SMOOTH",
"456 549 OFFCURVE",
"453 559 OFFCURVE",
"449 567 CURVE SMOOTH",
"440 577 LINE",
"435 586 LINE SMOOTH",
"432 588 OFFCURVE",
"424 597 OFFCURVE",
"421 601 CURVE",
"412 606 LINE",
"406 612 OFFCURVE",
"397 614 OFFCURVE",
"386 617 CURVE SMOOTH",
"357 626 LINE SMOOTH"
);
},
{
closed = 1;
nodes = (
"141 558 LINE SMOOTH",
"139 558 OFFCURVE",
"134 558 OFFCURVE",
"126 557 CURVE",
"104 556 OFFCURVE",
"83 544 OFFCURVE",
"83 537 CURVE",
"79 536 LINE",
"76 536 OFFCURVE",
"67 533 OFFCURVE",
"63 530 CURVE SMOOTH",
"58 524 OFFCURVE",
"49 501 OFFCURVE",
"48 491 CURVE",
"48 486 LINE",
"50 455 OFFCURVE",
"53 436 OFFCURVE",
"58 428 CURVE",
"51 426 LINE",
"51 411 LINE SMOOTH",
"51 402 OFFCURVE",
"52 388 OFFCURVE",
"57 380 CURVE",
"60 372 OFFCURVE",
"66 366 OFFCURVE",
"69 365 CURVE",
"69 364 OFFCURVE",
"70 364 OFFCURVE",
"71 364 CURVE",
"73 352 OFFCURVE",
"76 343 OFFCURVE",
"78 336 CURVE SMOOTH",
"80 330 OFFCURVE",
"81 328 OFFCURVE",
"83 328 CURVE",
"86 327 OFFCURVE",
"88 326 OFFCURVE",
"88 320 CURVE SMOOTH",
"88 316 OFFCURVE",
"87 312 OFFCURVE",
"86 311 CURVE",
"82 310 OFFCURVE",
"81 311 OFFCURVE",
"79 311 CURVE",
"78 306 LINE SMOOTH",
"74 299 OFFCURVE",
"62 286 OFFCURVE",
"52 282 CURVE",
"48 281 LINE",
"48 175 LINE",
"60 175 LINE",
"60 213 OFFCURVE",
"64 237 OFFCURVE",
"75 248 CURVE SMOOTH",
"82 255 OFFCURVE",
"125 274 OFFCURVE",
"202 305 CURVE",
"200 311 LINE",
"198 311 LINE",
"193 311 LINE",
"191 312 OFFCURVE",
"190 316 OFFCURVE",
"190 320 CURVE SMOOTH",
"190 326 OFFCURVE",
"193 327 OFFCURVE",
"197 328 CURVE",
"199 328 OFFCURVE",
"200 330 OFFCURVE",
"202 336 CURVE SMOOTH",
"204 343 OFFCURVE",
"206 352 OFFCURVE",
"208 364 CURVE",
"211 365 LINE SMOOTH",
"214 366 OFFCURVE",
"219 371 OFFCURVE",
"222 379 CURVE SMOOTH",
"226 388 OFFCURVE",
"228 402 OFFCURVE",
"228 411 CURVE SMOOTH",
"228 415 OFFCURVE",
"228 421 OFFCURVE",
"227 426 CURVE",
"221 426 LINE",
"226 453 LINE",
"225 460 OFFCURVE",
"226 466 OFFCURVE",
"227 473 CURVE",
"227 482 LINE SMOOTH",
"227 493 OFFCURVE",
"225 501 OFFCURVE",
"221 507 CURVE",
"221 508 OFFCURVE",
"219 511 OFFCURVE",
"216 516 CURVE",
"212 520 OFFCURVE",
"210 524 OFFCURVE",
"209 525 CURVE SMOOTH",
"207 527 OFFCURVE",
"200 537 OFFCURVE",
"193 540 CURVE SMOOTH",
"183 545 LINE",
"180 547 OFFCURVE",
"175 549 OFFCURVE",
"170 550 CURVE SMOOTH",
"155 554 OFFCURVE",
"145 557 OFFCURVE",
"145 558 CURVE"
);
},
{
closed = 1;
nodes = (
"566 558 LINE SMOOTH",
"564 558 OFFCURVE",
"559 558 OFFCURVE",
"551 557 CURVE",
"529 556 OFFCURVE",
"508 544 OFFCURVE",
"508 537 CURVE",
"505 536 LINE",
"500 536 OFFCURVE",
"491 533 OFFCURVE",
"488 530 CURVE SMOOTH",
"482 524 OFFCURVE",
"474 501 OFFCURVE",
"473 491 CURVE",
"474 491 LINE",
"476 473 LINE",
"476 460 LINE SMOOTH",
"479 443 OFFCURVE",
"480 431 OFFCURVE",
"482 428 CURVE",
"477 426 LINE",
"476 421 OFFCURVE",
"476 415 OFFCURVE",
"476 411 CURVE SMOOTH",
"476 402 OFFCURVE",
"478 388 OFFCURVE",
"481 380 CURVE SMOOTH",
"484 372 OFFCURVE",
"492 366 OFFCURVE",
"493 365 CURVE SMOOTH",
"494 364 OFFCURVE",
"495 364 OFFCURVE",
"496 364 CURVE",
"498 352 OFFCURVE",
"500 343 OFFCURVE",
"502 336 CURVE SMOOTH",
"505 330 OFFCURVE",
"507 328 OFFCURVE",
"508 328 CURVE",
"510 327 OFFCURVE",
"513 326 OFFCURVE",
"513 320 CURVE SMOOTH",
"513 316 OFFCURVE",
"512 312 OFFCURVE",
"510 311 CURVE",
"507 310 OFFCURVE",
"507 311 OFFCURVE",
"504 311 CURVE",
"501 305 LINE",
"579 274 OFFCURVE",
"620 254 OFFCURVE",
"627 248 CURVE SMOOTH",
"638 238 OFFCURVE",
"642 216 OFFCURVE",
"642 185 CURVE SMOOTH",
"642 175 LINE",
"652 175 LINE",
"652 282 LINE",
"651 282 LINE",
"639 288 OFFCURVE",
"630 297 OFFCURVE",
"623 311 CURVE",
"621 311 LINE",
"618 311 LINE",
"616 312 OFFCURVE",
"615 316 OFFCURVE",
"615 320 CURVE SMOOTH",
"615 326 OFFCURVE",
"618 327 OFFCURVE",
"621 328 CURVE",
"622 328 OFFCURVE",
"624 330 OFFCURVE",
"627 336 CURVE SMOOTH",
"630 343 OFFCURVE",
"631 352 OFFCURVE",
"633 364 CURVE",
"638 366 LINE",
"642 369 OFFCURVE",
"650 382 OFFCURVE",
"652 401 CURVE",
"652 426 LINE",
"647 426 LINE",
"652 464 LINE",
"652 488 LINE",
"651 495 OFFCURVE",
"649 501 OFFCURVE",
"647 507 CURVE SMOOTH",
"646 510 OFFCURVE",
"636 524 OFFCURVE",
"634 526 CURVE SMOOTH",
"628 532 LINE",
"623 536 OFFCURVE",
"621 539 OFFCURVE",
"620 540 CURVE",
"614 543 OFFCURVE",
"604 547 OFFCURVE",
"594 550 CURVE SMOOTH",
"580 554 OFFCURVE",
"571 557 OFFCURVE",
"570 558 CURVE"
);
}
);
width = 700;
}
);
unicode = 004B;
},
{
glyphname = L;
lastChange = "2013-04-17 21:18:22 +0200";
layers = (
{
layerId = "5D30703B-31DB-48F9-9EC6-DEC4C9CE33EC";
name = Regular;
paths = (
{
closed = 1;
nodes = (
"223 598 OFFCURVE",
"153 529 OFFCURVE",
"153 444 CURVE SMOOTH",
"153 401 OFFCURVE",
"169 364 OFFCURVE",
"201 332 CURVE SMOOTH",
"232 300 OFFCURVE",
"270 284 OFFCURVE",
"312 284 CURVE SMOOTH",
"339 284 OFFCURVE",
"365 291 OFFCURVE",
"390 305 CURVE",
"485 210 LINE",
"491 205 OFFCURVE",
"497 202 OFFCURVE",
"502 202 CURVE SMOOTH",
"508 202 OFFCURVE",
"514 205 OFFCURVE",
"519 210 CURVE SMOOTH",
"542 234 LINE SMOOTH",
"546 238 OFFCURVE",
"548 242 OFFCURVE",
"548 246 CURVE SMOOTH",
"548 252 OFFCURVE",
"545 257 OFFCURVE",
"539 264 CURVE SMOOTH",
"445 359 LINE",
"459 383 OFFCURVE",
"467 410 OFFCURVE",
"467 439 CURVE SMOOTH",
"467 525 OFFCURVE",
"394 598 OFFCURVE",
"308 598 CURVE SMOOTH"
);
},
{
closed = 1;
nodes = (
"367 551 OFFCURVE",
"420 498 OFFCURVE",
"420 439 CURVE SMOOTH",
"420 380 OFFCURVE",
"372 332 OFFCURVE",
"312 332 CURVE SMOOTH",
"253 332 OFFCURVE",
"201 385 OFFCURVE",
"201 444 CURVE SMOOTH",
"201 473 OFFCURVE",
"212 499 OFFCURVE",
"233 520 CURVE SMOOTH",
"254 541 OFFCURVE",
"279 551 OFFCURVE",
"308 551 CURVE SMOOTH"
);
}
);
width = 700;
}
);
unicode = 004C;
},
{
glyphname = M;
lastChange = "2013-04-17 21:18:22 +0200";
layers = (
{
layerId = "5D30703B-31DB-48F9-9EC6-DEC4C9CE33EC";
name = Regular;
paths = (
{
closed = 1;
nodes = (
"117 514 LINE",
"350 340 LINE",
"584 514 LINE"
);
},
{
closed = 1;
nodes = (
"103 228 LINE",
"283 352 LINE",
"103 514 LINE"
);
},
{
closed = 1;
nodes = (
"350 291 LINE",
"307 330 LINE",
"103 206 LINE",
"598 206 LINE",
"392 330 LINE"
);
},
{
closed = 1;
nodes = (
"418 352 LINE",
"598 228 LINE",
"598 514 LINE"
);
}
);
width = 700;
}
);
unicode = 004D;
},
{
glyphname = N;
lastChange = "2013-04-17 21:18:22 +0200";
layers = (
{
layerId = "5D30703B-31DB-48F9-9EC6-DEC4C9CE33EC";
name = Regular;
paths = (
{
closed = 1;
nodes = (
"350 598 OFFCURVE",
"301 569 OFFCURVE",
"274 524 CURVE",
"261 532 OFFCURVE",
"246 535 OFFCURVE",
"232 535 CURVE SMOOTH",
"183 535 OFFCURVE",
"145 495 OFFCURVE",
"143 449 CURVE",
"92 432 OFFCURVE",
"55 385 OFFCURVE",
"55 329 CURVE SMOOTH",
"55 259 OFFCURVE",
"113 202 OFFCURVE",
"182 202 CURVE SMOOTH",
"518 202 LINE SMOOTH",
"588 202 OFFCURVE",
"645 259 OFFCURVE",
"645 329 CURVE SMOOTH",
"645 385 OFFCURVE",
"609 432 OFFCURVE",
"558 448 CURVE",
"557 532 OFFCURVE",
"489 598 OFFCURVE",
"405 598 CURVE SMOOTH"
);
},
{
closed = 1;
nodes = (
"465 555 OFFCURVE",
"516 506 OFFCURVE",
"516 445 CURVE SMOOTH",
"516 435 LINE",
"515 424 OFFCURVE",
"523 414 OFFCURVE",
"534 412 CURVE SMOOTH",
"573 405 OFFCURVE",
"603 369 OFFCURVE",
"603 329 CURVE SMOOTH",
"603 282 OFFCURVE",
"564 245 OFFCURVE",
"518 245 CURVE SMOOTH",
"182 245 LINE SMOOTH",
"136 245 OFFCURVE",
"97 282 OFFCURVE",
"97 329 CURVE SMOOTH",
"97 371 OFFCURVE",
"127 405 OFFCURVE",
"168 412 CURVE SMOOTH",
"181 414 OFFCURVE",
"188 425 OFFCURVE",
"185 436 CURVE SMOOTH",
"185 445 LINE SMOOTH",
"185 459 OFFCURVE",
"190 470 OFFCURVE",
"199 479 CURVE SMOOTH",
"217 497 OFFCURVE",
"248 496 OFFCURVE",
"265 477 CURVE",
"276 466 OFFCURVE",
"295 469 OFFCURVE",
"301 484 CURVE SMOOTH",
"318 526 OFFCURVE",
"358 555 OFFCURVE",
"405 555 CURVE SMOOTH"
);
}
);
width = 700;
}
);
unicode = 004E;
},
{
glyphname = O;
lastChange = "2013-04-17 21:18:22 +0200";
layers = (
{
layerId = "5D30703B-31DB-48F9-9EC6-DEC4C9CE33EC";
name = Regular;
paths = (
{
closed = 1;
nodes = (
"240 582 LINE",
"228 582 OFFCURVE",
"218 581 OFFCURVE",
"206 577 CURVE SMOOTH",
"201 576 LINE",
"169 616 LINE",
"155 610 OFFCURVE",
"142 602 OFFCURVE",
"127 591 CURVE",
"149 544 LINE",
"137 534 OFFCURVE",
"129 523 OFFCURVE",
"124 512 CURVE",
"73 519 LINE",
"66 502 OFFCURVE",
"62 486 OFFCURVE",
"61 471 CURVE",
"108 452 LINE",
"108 441 OFFCURVE",
"110 429 OFFCURVE",
"113 417 CURVE SMOOTH",
"114 413 LINE",
"74 380 LINE",
"80 366 OFFCURVE",
"88 353 OFFCURVE",
"99 339 CURVE",
"147 358 LINE",
"158 349 OFFCURVE",
"168 341 OFFCURVE",
"179 336 CURVE",
"173 284 LINE",
"188 278 OFFCURVE",
"205 275 OFFCURVE",
"221 272 CURVE",
"239 320 LINE",
"250 320 OFFCURVE",
"262 321 OFFCURVE",
"274 325 CURVE SMOOTH",
"279 326 LINE",
"311 286 LINE",
"325 292 OFFCURVE",
"338 300 OFFCURVE",
"352 310 CURVE",
"331 359 LINE",
"341 368 OFFCURVE",
"350 379 OFFCURVE",
"355 390 CURVE",
"407 384 LINE",
"413 399 OFFCURVE",
"417 414 OFFCURVE",
"418 430 CURVE",
"371 451 LINE",
"371 463 OFFCURVE",
"369 474 OFFCURVE",
"366 485 CURVE SMOOTH",
"365 490 LINE",
"405 522 LINE",
"399 536 OFFCURVE",
"390 551 OFFCURVE",
"380 562 CURVE",
"332 542 LINE",
"323 553 OFFCURVE",
"312 560 OFFCURVE",
"301 567 CURVE",
"306 619 LINE",
"291 625 OFFCURVE",
"276 629 OFFCURVE",
"259 630 CURVE"
);
},
{
closed = 1;
nodes = (
"249 522 OFFCURVE",
"281 510 OFFCURVE",
"296 485 CURVE SMOOTH",
"299 478 OFFCURVE",
"302 472 OFFCURVE",
"303 468 CURVE SMOOTH",
"311 435 OFFCURVE",
"293 396 OFFCURVE",
"257 386 CURVE SMOOTH",
"223 378 OFFCURVE",
"187 397 OFFCURVE",
"177 434 CURVE SMOOTH",
"169 462 OFFCURVE",
"181 492 OFFCURVE",
"206 507 CURVE SMOOTH",
"213 511 OFFCURVE",
"219 513 OFFCURVE",
"223 514 CURVE SMOOTH"
);
},
{
closed = 1;
nodes = (
"512 368 OFFCURVE",
"540 352 OFFCURVE",
"547 324 CURVE SMOOTH",
"555 297 OFFCURVE",
"539 269 OFFCURVE",
"511 261 CURVE SMOOTH",
"484 254 OFFCURVE",
"455 271 OFFCURVE",
"448 297 CURVE SMOOTH",
"444 312 OFFCURVE",
"446 324 OFFCURVE",
"453 336 CURVE SMOOTH",
"460 349 OFFCURVE",
"471 357 OFFCURVE",
"484 360 CURVE SMOOTH"
);
},
{
closed = 1;
nodes = (
"476 451 OFFCURVE",
"468 449 OFFCURVE",
"460 448 CURVE SMOOTH",
"453 445 OFFCURVE",
"446 443 OFFCURVE",
"439 440 CURVE",
"443 398 LINE",
"431 390 OFFCURVE",
"419 379 OFFCURVE",
"410 364 CURVE",
"369 369 LINE",
"363 354 OFFCURVE",
"359 340 OFFCURVE",
"357 324 CURVE",
"395 307 LINE",
"396 297 OFFCURVE",
"397 290 OFFCURVE",
"398 284 CURVE SMOOTH",
"400 280 OFFCURVE",
"403 273 OFFCURVE",
"407 261 CURVE",
"383 228 LINE",
"392 217 OFFCURVE",
"402 205 OFFCURVE",
"415 195 CURVE",
"449 220 LINE",
"464 212 OFFCURVE",
"479 209 OFFCURVE",
"494 208 CURVE",
"512 170 LINE",
"519 171 OFFCURVE",
"526 172 OFFCURVE",
"534 175 CURVE SMOOTH",
"541 176 OFFCURVE",
"549 178 OFFCURVE",
"556 182 CURVE",
"550 223 LINE",
"565 232 OFFCURVE",
"576 243 OFFCURVE",
"585 256 CURVE",
"626 252 LINE",
"634 267 OFFCURVE",
"636 282 OFFCURVE",
"639 297 CURVE",
"600 313 LINE",
"600 323 OFFCURVE",
"599 331 OFFCURVE",
"597 338 CURVE SMOOTH",
"596 344 OFFCURVE",
"591 351 OFFCURVE",
"588 359 CURVE",
"613 393 LINE",
"603 405 OFFCURVE",
"593 417 OFFCURVE",
"580 425 CURVE",
"546 401 LINE",
"532 409 OFFCURVE",
"517 412 OFFCURVE",
"499 412 CURVE",
"483 452 LINE"
);
}
);
width = 700;
}
);
unicode = 004F;
},
{
glyphname = P;
lastChange = "2013-04-17 21:18:22 +0200";
layers = (
{
layerId = "5D30703B-31DB-48F9-9EC6-DEC4C9CE33EC";
name = Regular;
paths = (
{
closed = 1;
nodes = (
"125 325 LINE",
"206 255 LINE",
"384 466 LINE",
"302 537 LINE"
);
},
{
closed = 1;
nodes = (
"93 205 LINE",
"192 242 LINE",
"113 309 LINE"
);
},
{
closed = 1;
nodes = (
"268 205 LINE",
"368 242 LINE",
"288 309 LINE"
);
},
{
closed = 1;
nodes = (
"525 464 LINE",
"378 288 LINE",
"332 327 LINE",
"480 503 LINE"
);
},
{
closed = 1;
nodes = (
"301 325 LINE",
"381 255 LINE",
"558 466 LINE",
"477 537 LINE"
);
},
{
closed = 1;
nodes = (
"362 595 OFFCURVE",
"352 594 OFFCURVE",
"346 588 CURVE",
"316 552 LINE",
"397 484 LINE",
"428 519 LINE SMOOTH",
"435 528 OFFCURVE",
"433 536 OFFCURVE",
"425 543 CURVE SMOOTH",
"370 589 LINE SMOOTH"
);
},
{
closed = 1;
nodes = (
"538 595 OFFCURVE",
"527 594 OFFCURVE",
"521 588 CURVE",
"491 552 LINE",
"572 484 LINE",
"603 519 LINE SMOOTH",
"610 528 OFFCURVE",
"608 536 OFFCURVE",
"601 543 CURVE SMOOTH",
"544 589 LINE SMOOTH"
);
}
);
width = 700;
}
);
unicode = 0050;
},
{
glyphname = Q;
lastChange = "2013-04-17 21:19:57 +0200";
layers = (
{
layerId = "5D30703B-31DB-48F9-9EC6-DEC4C9CE33EC";
name = Regular;
paths = (
{
closed = 1;
nodes = (
"177 583 LINE SMOOTH",
"144 583 OFFCURVE",
"118 556 OFFCURVE",
"118 525 CURVE SMOOTH",
"118 322 LINE SMOOTH",
"118 291 OFFCURVE",
"144 264 OFFCURVE",
"177 264 CURVE SMOOTH",
"292 264 LINE",
"407 178 LINE",
"407 264 LINE",
"523 264 LINE SMOOTH",
"554 264 OFFCURVE",
"581 291 OFFCURVE",
"581 322 CURVE SMOOTH",
"581 525 LINE SMOOTH",
"581 556 OFFCURVE",
"554 583 OFFCURVE",
"523 583 CURVE SMOOTH"
);
},
{
closed = 1;
nodes = (
"367 351 OFFCURVE",
"374 341 OFFCURVE",
"374 327 CURVE SMOOTH",
"374 325 LINE SMOOTH",
"374 312 OFFCURVE",
"365 301 OFFCURVE",
"349 301 CURVE",
"334 302 OFFCURVE",
"324 313 OFFCURVE",
"324 325 CURVE SMOOTH",
"324 335 OFFCURVE",
"326 341 OFFCURVE",
"333 345 CURVE SMOOTH",
"338 348 OFFCURVE",
"341 351 OFFCURVE",
"349 351 CURVE SMOOTH"
);
},
{
closed = 1;
nodes = (
"396 541 OFFCURVE",
"430 518 OFFCURVE",
"430 474 CURVE SMOOTH",
"430 463 OFFCURVE",
"427 452 OFFCURVE",
"420 440 CURVE",
"417 436 OFFCURVE",
"409 432 OFFCURVE",
"396 421 CURVE SMOOTH",
"385 409 LINE SMOOTH",
"376 405 OFFCURVE",
"371 403 OFFCURVE",
"369 397 CURVE SMOOTH",
"369 383 LINE SMOOTH",
"369 381 OFFCURVE",
"369 379 OFFCURVE",
"367 379 CURVE SMOOTH",
"331 379 LINE SMOOTH",
"328 379 OFFCURVE",
"327 381 OFFCURVE",
"327 383 CURVE",
"328 404 OFFCURVE",
"330 411 OFFCURVE",
"334 415 CURVE SMOOTH",
"338 425 OFFCURVE",
"353 435 OFFCURVE",
"364 440 CURVE",
"369 445 LINE",
"376 455 LINE SMOOTH",
"382 462 OFFCURVE",
"385 465 OFFCURVE",
"385 472 CURVE SMOOTH",
"385 481 OFFCURVE",
"382 488 OFFCURVE",
"376 492 CURVE",
"372 500 OFFCURVE",
"366 503 OFFCURVE",
"353 503 CURVE SMOOTH",
"342 503 OFFCURVE",
"333 499 OFFCURVE",
"328 491 CURVE SMOOTH",
"323 485 OFFCURVE",
"320 474 OFFCURVE",
"320 466 CURVE",
"278 466 LINE",
"280 525 OFFCURVE",
"314 541 OFFCURVE",
"349 541 CURVE SMOOTH"
);
}
);
width = 700;
}
);
unicode = 0051;
},
{
glyphname = R;
lastChange = "2013-04-17 21:19:57 +0200";
layers = (
{
layerId = "5D30703B-31DB-48F9-9EC6-DEC4C9CE33EC";
name = Regular;
paths = (
{
closed = 1;
nodes = (
"215 604 LINE SMOOTH",
"196 604 OFFCURVE",
"180 598 OFFCURVE",
"167 584 CURVE SMOOTH",
"154 570 OFFCURVE",
"147 554 OFFCURVE",
"147 537 CURVE SMOOTH",
"147 264 LINE SMOOTH",
"147 246 OFFCURVE",
"154 228 OFFCURVE",
"166 217 CURVE SMOOTH",
"180 204 OFFCURVE",
"196 196 OFFCURVE",
"215 196 CURVE SMOOTH",
"486 196 LINE SMOOTH",
"505 196 OFFCURVE",
"521 204 OFFCURVE",
"535 217 CURVE SMOOTH",
"547 228 OFFCURVE",
"554 246 OFFCURVE",
"554 264 CURVE SMOOTH",
"554 537 LINE SMOOTH",
"554 554 OFFCURVE",
"547 570 OFFCURVE",
"534 584 CURVE SMOOTH",
"521 598 OFFCURVE",
"505 604 OFFCURVE",
"486 604 CURVE SMOOTH"
);
},
{
closed = 1;
nodes = (
"268 343 OFFCURVE",
"276 338 OFFCURVE",
"283 333 CURVE",
"289 325 OFFCURVE",
"292 317 OFFCURVE",
"292 308 CURVE SMOOTH",
"292 299 OFFCURVE",
"289 290 OFFCURVE",
"283 283 CURVE",
"276 276 OFFCURVE",
"268 272 OFFCURVE",
"258 272 CURVE SMOOTH",
"248 272 OFFCURVE",
"240 276 OFFCURVE",
"234 283 CURVE",
"227 290 OFFCURVE",
"223 299 OFFCURVE",
"223 308 CURVE SMOOTH",
"223 317 OFFCURVE",
"227 325 OFFCURVE",
"234 333 CURVE",
"241 338 OFFCURVE",
"249 343 OFFCURVE",
"258 343 CURVE SMOOTH"
);
},
{
closed = 1;
nodes = (
"270 445 OFFCURVE",
"311 428 OFFCURVE",
"346 394 CURVE SMOOTH",
"378 361 OFFCURVE",
"395 320 OFFCURVE",
"395 272 CURVE",
"347 272 LINE",
"347 307 OFFCURVE",
"334 336 OFFCURVE",
"309 360 CURVE SMOOTH",
"286 383 OFFCURVE",
"257 395 OFFCURVE",
"223 395 CURVE",
"223 445 LINE"
);
},
{
closed = 1;
nodes = (
"270 535 OFFCURVE",
"315 522 OFFCURVE",
"353 498 CURVE SMOOTH",
"393 475 OFFCURVE",
"425 444 OFFCURVE",
"449 403 CURVE SMOOTH",
"472 364 OFFCURVE",
"483 320 OFFCURVE",
"483 272 CURVE",
"433 272 LINE",
"433 332 OFFCURVE",
"412 380 OFFCURVE",
"371 422 CURVE SMOOTH",
"331 462 OFFCURVE",
"281 483 OFFCURVE",
"223 483 CURVE",
"223 535 LINE"
);
}
);
width = 700;
}
);
unicode = 0052;
},
{
glyphname = S;
lastChange = "2013-04-17 21:19:57 +0200";
layers = (
{
layerId = "5D30703B-31DB-48F9-9EC6-DEC4C9CE33EC";
name = Regular;
paths = (
{
closed = 1;
nodes = (
"222 608 OFFCURVE",
"196 596 OFFCURVE",
"173 573 CURVE SMOOTH",
"151 551 OFFCURVE",
"140 524 OFFCURVE",
"140 492 CURVE SMOOTH",
"140 469 OFFCURVE",
"146 448 OFFCURVE",
"159 429 CURVE",
"157 419 OFFCURVE",
"156 410 OFFCURVE",
"156 399 CURVE SMOOTH",
"156 346 OFFCURVE",
"175 300 OFFCURVE",
"213 264 CURVE SMOOTH",
"250 226 OFFCURVE",
"296 207 OFFCURVE",
"349 207 CURVE SMOOTH",
"360 207 OFFCURVE",
"373 208 OFFCURVE",
"384 210 CURVE",
"403 199 OFFCURVE",
"423 192 OFFCURVE",
"445 192 CURVE SMOOTH",
"478 192 OFFCURVE",
"504 204 OFFCURVE",
"527 227 CURVE SMOOTH",
"549 249 OFFCURVE",
"560 276 OFFCURVE",
"560 308 CURVE SMOOTH",
"560 332 OFFCURVE",
"554 353 OFFCURVE",
"540 372 CURVE",
"541 382 OFFCURVE",
"542 390 OFFCURVE",
"542 399 CURVE SMOOTH",
"542 452 OFFCURVE",
"523 498 OFFCURVE",
"486 536 CURVE SMOOTH",
"448 572 OFFCURVE",
"402 591 OFFCURVE",
"349 591 CURVE SMOOTH",
"319 590 LINE",
"300 601 OFFCURVE",
"278 608 OFFCURVE",
"255 608 CURVE SMOOTH"
);
},
{
closed = 1;
nodes = (
"369 547 OFFCURVE",
"408 536 OFFCURVE",
"436 511 CURVE SMOOTH",
"446 503 OFFCURVE",
"452 494 OFFCURVE",
"454 485 CURVE",
"455 476 OFFCURVE",
"453 468 OFFCURVE",
"449 463 CURVE SMOOTH",
"444 457 OFFCURVE",
"438 452 OFFCURVE",
"431 451 CURVE",
"426 450 OFFCURVE",
"419 455 OFFCURVE",
"411 463 CURVE SMOOTH",
"402 470 OFFCURVE",
"394 478 OFFCURVE",
"380 485 CURVE SMOOTH",
"369 492 OFFCURVE",
"359 496 OFFCURVE",
"344 497 CURVE",
"323 497 OFFCURVE",
"307 490 OFFCURVE",
"300 475 CURVE SMOOTH",
"289 461 OFFCURVE",
"293 450 OFFCURVE",
"310 442 CURVE",
"315 439 OFFCURVE",
"320 437 OFFCURVE",
"323 436 CURVE SMOOTH",
"329 435 OFFCURVE",
"340 432 OFFCURVE",
"353 430 CURVE SMOOTH",
"365 428 OFFCURVE",
"377 426 OFFCURVE",
"380 424 CURVE SMOOTH",
"387 422 OFFCURVE",
"396 419 OFFCURVE",
"406 415 CURVE",
"417 410 OFFCURVE",
"425 410 OFFCURVE",
"431 405 CURVE SMOOTH",
"436 400 OFFCURVE",
"442 393 OFFCURVE",
"448 389 CURVE SMOOTH",
"454 381 OFFCURVE",
"459 373 OFFCURVE",
"462 366 CURVE SMOOTH",
"473 340 OFFCURVE",
"467 317 OFFCURVE",
"446 294 CURVE SMOOTH",
"425 270 OFFCURVE",
"398 258 OFFCURVE",
"367 257 CURVE SMOOTH",
"340 256 OFFCURVE",
"316 258 OFFCURVE",
"299 264 CURVE SMOOTH",
"281 270 OFFCURVE",
"264 279 OFFCURVE",
"250 292 CURVE SMOOTH",
"237 306 OFFCURVE",
"232 319 OFFCURVE",
"234 333 CURVE SMOOTH",
"237 345 OFFCURVE",
"244 352 OFFCURVE",
"257 353 CURVE",
"264 354 OFFCURVE",
"271 352 OFFCURVE",
"278 348 CURVE",
"283 342 OFFCURVE",
"289 336 OFFCURVE",
"296 330 CURVE SMOOTH",
"302 323 OFFCURVE",
"305 319 OFFCURVE",
"307 318 CURVE",
"314 314 OFFCURVE",
"321 311 OFFCURVE",
"330 309 CURVE",
"340 305 OFFCURVE",
"351 305 OFFCURVE",
"363 306 CURVE SMOOTH",
"378 307 OFFCURVE",
"388 312 OFFCURVE",
"396 321 CURVE",
"400 330 OFFCURVE",
"404 336 OFFCURVE",
"403 342 CURVE SMOOTH",
"402 349 OFFCURVE",
"399 354 OFFCURVE",
"393 357 CURVE SMOOTH",
"384 362 OFFCURVE",
"378 367 OFFCURVE",
"369 370 CURVE SMOOTH",
"360 371 OFFCURVE",
"352 373 OFFCURVE",
"341 373 CURVE",
"314 378 OFFCURVE",
"288 390 OFFCURVE",
"267 404 CURVE",
"245 417 OFFCURVE",
"235 436 OFFCURVE",
"238 461 CURVE SMOOTH",
"240 485 OFFCURVE",
"249 505 OFFCURVE",
"265 518 CURVE SMOOTH",
"281 532 OFFCURVE",
"300 540 OFFCURVE",
"322 543 CURVE SMOOTH"
);
}
);
width = 700;
}
);
unicode = 0053;
},
{
glyphname = T;
lastChange = "2013-04-17 21:19:57 +0200";
layers = (
{
layerId = "5D30703B-31DB-48F9-9EC6-DEC4C9CE33EC";
name = Regular;
paths = (
{
closed = 1;
nodes = (
"422 597 OFFCURVE",
"406 592 OFFCURVE",
"392 582 CURVE SMOOTH",
"361 564 OFFCURVE",
"343 531 OFFCURVE",
"343 494 CURVE SMOOTH",
"343 488 OFFCURVE",
"345 481 OFFCURVE",
"345 474 CURVE",
"341 474 LINE SMOOTH",
"339 474 OFFCURVE",
"331 475 OFFCURVE",
"322 478 CURVE SMOOTH",
"312 481 OFFCURVE",
"305 482 OFFCURVE",
"303 482 CURVE SMOOTH",
"301 482 OFFCURVE",
"295 484 OFFCURVE",
"287 485 CURVE",
"286 485 LINE SMOOTH",
"284 485 OFFCURVE",
"284 486 OFFCURVE",
"284 486 CURVE SMOOTH",
"281 486 LINE",
"269 490 OFFCURVE",
"262 491 OFFCURVE",
"257 493 CURVE SMOOTH",
"252 495 OFFCURVE",
"246 498 OFFCURVE",
"240 500 CURVE SMOOTH",
"201 518 OFFCURVE",
"170 543 OFFCURVE",
"142 578 CURVE",
"135 567 OFFCURVE",
"131 549 OFFCURVE",
"130 524 CURVE SMOOTH",
"130 523 LINE SMOOTH",
"130 495 OFFCURVE",
"142 470 OFFCURVE",
"170 449 CURVE",
"167 449 OFFCURVE",
"163 449 OFFCURVE",
"161 450 CURVE",
"152 450 OFFCURVE",
"148 453 OFFCURVE",
"141 458 CURVE",
"132 460 LINE",
"131 453 OFFCURVE",
"130 448 OFFCURVE",
"130 444 CURVE SMOOTH",
"130 406 OFFCURVE",
"163 368 OFFCURVE",
"206 360 CURVE",
"200 359 OFFCURVE",
"194 359 OFFCURVE",
"190 359 CURVE SMOOTH",
"183 359 OFFCURVE",
"176 360 OFFCURVE",
"166 362 CURVE",
"175 323 OFFCURVE",
"205 293 OFFCURVE",
"253 290 CURVE",
"227 266 OFFCURVE",
"181 251 OFFCURVE",
"112 248 CURVE",
"157 221 OFFCURVE",
"209 203 OFFCURVE",
"261 203 CURVE SMOOTH",
"311 203 OFFCURVE",
"361 219 OFFCURVE",
"401 242 CURVE SMOOTH",
"442 266 OFFCURVE",
"479 301 OFFCURVE",
"503 343 CURVE SMOOTH",
"527 384 OFFCURVE",
"541 433 OFFCURVE",
"541 485 CURVE SMOOTH",
"541 490 LINE",
"541 500 LINE",
"565 515 OFFCURVE",
"579 528 OFFCURVE",
"589 549 CURVE",
"573 543 OFFCURVE",
"555 538 OFFCURVE",
"535 535 CURVE",
"557 550 OFFCURVE",
"570 570 OFFCURVE",
"578 595 CURVE",
"558 580 OFFCURVE",
"536 569 OFFCURVE",
"511 567 CURVE",
"490 588 OFFCURVE",
"466 597 OFFCURVE",
"441 597 CURVE SMOOTH"
);
}
);
width = 700;
}
);
unicode = 0054;
},
{
glyphname = U;
lastChange = "2013-04-18 06:35:55 +0200";
layers = (
{
layerId = "5D30703B-31DB-48F9-9EC6-DEC4C9CE33EC";
name = Regular;
paths = (
{
closed = 1;
nodes = (
"452 609 OFFCURVE",
"428 594 OFFCURVE",
"409 578 CURVE SMOOTH",
"380 554 LINE",
"374 548 OFFCURVE",
"372 545 OFFCURVE",
"371 536 CURVE SMOOTH",
"371 528 OFFCURVE",
"373 522 OFFCURVE",
"377 516 CURVE SMOOTH",
"382 510 OFFCURVE",
"388 505 OFFCURVE",
"395 505 CURVE SMOOTH",
"400 505 OFFCURVE",
"407 507 OFFCURVE",
"415 512 CURVE",
"442 538 LINE SMOOTH",
"452 545 OFFCURVE",
"462 547 OFFCURVE",
"470 547 CURVE SMOOTH",
"482 546 OFFCURVE",
"494 538 OFFCURVE",
"505 526 CURVE",
"513 515 OFFCURVE",
"516 503 OFFCURVE",
"515 491 CURVE SMOOTH",
"514 480 OFFCURVE",
"509 469 OFFCURVE",
"499 460 CURVE SMOOTH",
"407 383 LINE SMOOTH",
"390 370 OFFCURVE",
"375 363 OFFCURVE",
"364 365 CURVE SMOOTH",
"355 365 OFFCURVE",
"348 369 OFFCURVE",
"342 377 CURVE",
"336 381 OFFCURVE",
"330 384 OFFCURVE",
"323 385 CURVE SMOOTH",
"316 385 OFFCURVE",
"310 383 OFFCURVE",
"304 380 CURVE SMOOTH",
"298 375 OFFCURVE",
"294 369 OFFCURVE",
"293 362 CURVE SMOOTH",
"293 356 OFFCURVE",
"296 350 OFFCURVE",
"301 342 CURVE SMOOTH",
"317 323 OFFCURVE",
"335 312 OFFCURVE",
"358 310 CURVE SMOOTH",
"384 308 OFFCURVE",
"411 320 OFFCURVE",
"440 343 CURVE SMOOTH",
"533 420 LINE SMOOTH",
"554 437 OFFCURVE",
"574 461 OFFCURVE",
"576 486 CURVE SMOOTH",
"580 513 OFFCURVE",
"562 540 OFFCURVE",
"546 561 CURVE SMOOTH",
"525 583 OFFCURVE",
"501 605 OFFCURVE",
"475 607 CURVE SMOOTH"
);
},
{
closed = 1;
nodes = (
"308 479 OFFCURVE",
"277 468 OFFCURVE",
"245 442 CURVE SMOOTH",
"159 370 LINE SMOOTH",
"137 352 OFFCURVE",
"126 329 OFFCURVE",
"124 302 CURVE SMOOTH",
"121 275 OFFCURVE",
"128 250 OFFCURVE",
"146 229 CURVE SMOOTH",
"165 208 OFFCURVE",
"189 195 OFFCURVE",
"215 193 CURVE SMOOTH",
"241 191 OFFCURVE",
"267 199 OFFCURVE",
"289 216 CURVE SMOOTH",
"312 236 LINE",
"318 240 OFFCURVE",
"322 247 OFFCURVE",
"322 253 CURVE SMOOTH",
"323 259 OFFCURVE",
"321 267 OFFCURVE",
"316 272 CURVE",
"310 280 OFFCURVE",
"304 283 OFFCURVE",
"297 284 CURVE SMOOTH",
"291 284 OFFCURVE",
"284 282 OFFCURVE",
"278 277 CURVE",
"255 255 LINE SMOOTH",
"245 248 OFFCURVE",
"231 244 OFFCURVE",
"220 246 CURVE SMOOTH",
"207 247 OFFCURVE",
"195 253 OFFCURVE",
"187 262 CURVE",
"179 274 OFFCURVE",
"175 286 OFFCURVE",
"177 299 CURVE SMOOTH",
"178 310 OFFCURVE",
"183 321 OFFCURVE",
"192 330 CURVE SMOOTH",
"280 401 LINE SMOOTH",
"299 419 OFFCURVE",
"317 425 OFFCURVE",
"329 424 CURVE SMOOTH",
"337 423 OFFCURVE",
"345 420 OFFCURVE",
"350 414 CURVE",
"354 408 OFFCURVE",
"359 404 OFFCURVE",
"367 403 CURVE SMOOTH",
"369 403 OFFCURVE",
"369 403 OFFCURVE",
"369 403 CURVE",
"383 402 OFFCURVE",
"396 414 OFFCURVE",
"398 428 CURVE SMOOTH",
"398 435 OFFCURVE",
"396 442 OFFCURVE",
"391 447 CURVE",
"375 464 OFFCURVE",
"356 475 OFFCURVE",
"335 477 CURVE SMOOTH"
);
}
);
width = 700;
}
);
unicode = 0055;
},
{
glyphname = W;
lastChange = "2013-04-17 21:19:57 +0200";
layers = (
{
layerId = "5D30703B-31DB-48F9-9EC6-DEC4C9CE33EC";
name = Regular;
paths = (
{
closed = 1;
nodes = (
"615 595 LINE",
"604 589 OFFCURVE",
"594 589 OFFCURVE",
"577 589 CURVE SMOOTH",
"566 589 OFFCURVE",
"555 589 OFFCURVE",
"539 595 CURVE",
"496 595 LINE",
"496 585 LINE",
"496 578 LINE SMOOTH",
"517 578 OFFCURVE",
"534 567 OFFCURVE",
"534 551 CURVE SMOOTH",
"534 535 LINE",
"419 275 LINE",
"356 400 LINE",
"415 525 LINE SMOOTH",
"436 567 OFFCURVE",
"447 578 OFFCURVE",
"475 578 CURVE",
"479 585 OFFCURVE",
"479 585 OFFCURVE",
"479 589 CURVE SMOOTH",
"479 595 OFFCURVE",
"479 595 OFFCURVE",
"475 595 CURVE SMOOTH",
"458 595 OFFCURVE",
"447 595 OFFCURVE",
"436 589 CURVE",
"409 589 LINE",
"371 589 LINE",
"360 595 OFFCURVE",
"350 595 OFFCURVE",
"339 595 CURVE SMOOTH",
"332 595 OFFCURVE",
"332 589 OFFCURVE",
"332 585 CURVE SMOOTH",
"332 578 LINE SMOOTH",
"360 578 OFFCURVE",
"371 574 OFFCURVE",
"371 556 CURVE SMOOTH",
"371 551 OFFCURVE",
"367 546 OFFCURVE",
"360 535 CURVE SMOOTH",
"322 453 LINE",
"284 525 LINE SMOOTH",
"280 535 OFFCURVE",
"273 546 OFFCURVE",
"273 551 CURVE SMOOTH",
"273 567 OFFCURVE",
"284 578 OFFCURVE",
"311 578 CURVE SMOOTH",
"318 578 OFFCURVE",
"318 585 OFFCURVE",
"318 589 CURVE",
"311 595 LINE",
"280 595 LINE",
"263 589 OFFCURVE",
"252 589 OFFCURVE",
"248 589 CURVE SMOOTH",
"241 589 OFFCURVE",
"237 589 OFFCURVE",
"225 595 CURVE",
"188 595 LINE",
"188 589 LINE SMOOTH",
"188 585 OFFCURVE",
"188 578 OFFCURVE",
"193 578 CURVE SMOOTH",
"220 578 OFFCURVE",
"230 567 OFFCURVE",
"258 525 CURVE",
"311 427 LINE",
"241 281 LINE",
"133 525 LINE",
"129 535 OFFCURVE",
"129 546 OFFCURVE",
"129 551 CURVE SMOOTH",
"129 567 OFFCURVE",
"140 578 OFFCURVE",
"165 578 CURVE SMOOTH",
"171 578 OFFCURVE",
"171 578 OFFCURVE",
"171 585 CURVE SMOOTH",
"171 589 OFFCURVE",
"171 595 OFFCURVE",
"165 595 CURVE SMOOTH",
"133 595 LINE",
"123 589 OFFCURVE",
"112 589 OFFCURVE",
"102 589 CURVE SMOOTH",
"74 589 LINE",
"63 595 OFFCURVE",
"52 595 OFFCURVE",
"46 595 CURVE SMOOTH",
"42 595 OFFCURVE",
"42 595 OFFCURVE",
"42 589 CURVE SMOOTH",
"42 578 LINE",
"46 578 LINE SMOOTH",
"74 578 OFFCURVE",
"91 567 OFFCURVE",
"105 525 CURVE",
"248 211 LINE",
"248 205 OFFCURVE",
"252 205 OFFCURVE",
"258 205 CURVE SMOOTH",
"263 205 OFFCURVE",
"263 205 OFFCURVE",
"263 211 CURVE",
"343 372 LINE",
"430 211 LINE",
"436 205 OFFCURVE",
"436 205 OFFCURVE",
"441 205 CURVE SMOOTH",
"447 205 OFFCURVE",
"447 205 OFFCURVE",
"447 211 CURVE",
"583 525 LINE",
"604 562 OFFCURVE",
"615 578 OFFCURVE",
"653 578 CURVE SMOOTH",
"657 585 OFFCURVE",
"657 585 OFFCURVE",
"657 589 CURVE SMOOTH",
"657 595 OFFCURVE",
"657 595 OFFCURVE",
"653 595 CURVE SMOOTH"
);
}
);
width = 700;
}
);
unicode = 0057;
},
{
glyphname = X;
lastChange = "2013-04-17 21:19:57 +0200";
layers = (
{
layerId = "5D30703B-31DB-48F9-9EC6-DEC4C9CE33EC";
name = Regular;
paths = (
{
closed = 1;
nodes = (
"155 454 LINE SMOOTH",
"144 454 OFFCURVE",
"132 442 OFFCURVE",
"132 427 CURVE SMOOTH",
"132 349 LINE SMOOTH",
"132 336 OFFCURVE",
"144 322 OFFCURVE",
"155 322 CURVE SMOOTH",
"200 322 LINE",
"180 210 LINE",
"520 210 LINE",
"500 322 LINE",
"545 322 LINE SMOOTH",
"556 322 OFFCURVE",
"568 336 OFFCURVE",
"568 349 CURVE SMOOTH",
"568 427 LINE SMOOTH",
"568 442 OFFCURVE",
"556 454 OFFCURVE",
"545 454 CURVE SMOOTH"
);
},
{
closed = 1;
nodes = (
"475 254 LINE",
"225 254 LINE",
"256 401 LINE",
"444 401 LINE"
);
},
{
closed = 1;
nodes = (
"265 590 LINE",
"265 523 LINE",
"244 523 LINE SMOOTH",
"233 523 OFFCURVE",
"169 500 OFFCURVE",
"155 495 CURVE",
"151 492 OFFCURVE",
"148 487 OFFCURVE",
"153 482 CURVE",
"154 480 OFFCURVE",
"156 478 OFFCURVE",
"160 478 CURVE SMOOTH",
"540 478 LINE SMOOTH",
"543 478 OFFCURVE",
"546 480 OFFCURVE",
"546 482 CURVE",
"551 487 OFFCURVE",
"549 492 OFFCURVE",
"545 495 CURVE",
"531 500 OFFCURVE",
"465 523 OFFCURVE",
"455 523 CURVE SMOOTH",
"436 523 LINE",
"436 590 LINE"
);
}
);
width = 700;
}
);
unicode = 0058;
},
{
glyphname = Y;
lastChange = "2013-04-17 21:19:57 +0200";
layers = (
{
layerId = "5D30703B-31DB-48F9-9EC6-DEC4C9CE33EC";
name = Regular;
paths = (
{
closed = 1;
nodes = (
"144 606 LINE SMOOTH",
"114 606 OFFCURVE",
"91 582 OFFCURVE",
"91 555 CURVE SMOOTH",
"91 245 LINE SMOOTH",
"91 217 OFFCURVE",
"114 194 OFFCURVE",
"144 194 CURVE SMOOTH",
"556 194 LINE SMOOTH",
"585 194 OFFCURVE",
"609 217 OFFCURVE",
"609 245 CURVE SMOOTH",
"609 555 LINE SMOOTH",
"609 582 OFFCURVE",
"585 606 OFFCURVE",
"556 606 CURVE SMOOTH"
);
},
{
closed = 1;
nodes = (
"168 299 LINE",
"168 271 LINE",
"297 271 LINE",
"297 299 LINE"
);
},
{
closed = 1;
nodes = (
"168 365 LINE",
"168 337 LINE",
"297 337 LINE",
"297 365 LINE"
);
},
{
closed = 1;
nodes = (
"268 430 LINE",
"196 430 LINE",
"196 501 LINE",
"268 501 LINE"
);
},
{
closed = 1;
nodes = (
"168 528 LINE",
"168 403 LINE",
"297 403 LINE",
"297 528 LINE"
);
},
{
closed = 1;
nodes = (
"551 555 OFFCURVE",
"556 550 OFFCURVE",
"556 542 CURVE SMOOTH",
"556 258 LINE SMOOTH",
"556 250 OFFCURVE",
"551 245 OFFCURVE",
"542 245 CURVE SMOOTH",
"158 245 LINE SMOOTH",
"149 245 OFFCURVE",
"144 250 OFFCURVE",
"144 258 CURVE SMOOTH",
"144 542 LINE SMOOTH",
"144 550 OFFCURVE",
"149 555 OFFCURVE",
"158 555 CURVE SMOOTH",
"542 555 LINE SMOOTH"
);
},
{
closed = 1;
nodes = (
"406 498 OFFCURVE",
"399 473 OFFCURVE",
"399 455 CURVE",
"400 432 LINE",
"400 432 OFFCURVE",
"399 428 OFFCURVE",
"399 421 CURVE SMOOTH",
"399 408 LINE SMOOTH",
"400 405 OFFCURVE",
"403 403 OFFCURVE",
"403 400 CURVE SMOOTH",
"405 397 OFFCURVE",
"409 390 OFFCURVE",
"414 378 CURVE SMOOTH",
"416 371 OFFCURVE",
"419 371 OFFCURVE",
"419 371 CURVE SMOOTH",
"419 349 OFFCURVE",
"409 339 OFFCURVE",
"373 329 CURVE SMOOTH",
"347 317 OFFCURVE",
"329 307 OFFCURVE",
"329 296 CURVE SMOOTH",
"329 271 LINE",
"532 271 LINE",
"532 320 LINE",
"530 323 OFFCURVE",
"528 323 OFFCURVE",
"524 326 CURVE",
"514 326 OFFCURVE",
"512 329 OFFCURVE",
"512 329 CURVE SMOOTH",
"480 340 OFFCURVE",
"472 349 OFFCURVE",
"472 371 CURVE SMOOTH",
"472 371 OFFCURVE",
"473 371 OFFCURVE",
"475 378 CURVE SMOOTH",
"480 390 OFFCURVE",
"483 397 OFFCURVE",
"486 400 CURVE SMOOTH",
"486 403 OFFCURVE",
"487 405 OFFCURVE",
"490 408 CURVE SMOOTH",
"493 410 OFFCURVE",
"495 416 OFFCURVE",
"497 421 CURVE",
"497 427 OFFCURVE",
"493 430 OFFCURVE",
"492 432 CURVE",
"491 432 LINE",
"492 441 OFFCURVE",
"495 448 OFFCURVE",
"495 455 CURVE SMOOTH",
"495 466 OFFCURVE",
"492 473 OFFCURVE",
"486 485 CURVE SMOOTH",
"475 495 OFFCURVE",
"463 498 OFFCURVE",
"444 498 CURVE SMOOTH"
);
}
);
width = 700;
}
);
unicode = 0059;
},
{
glyphname = Z;
lastChange = "2013-04-17 21:19:57 +0200";
layers = (
{
layerId = "5D30703B-31DB-48F9-9EC6-DEC4C9CE33EC";
name = Regular;
paths = (
{
closed = 1;
nodes = (
"144 606 LINE SMOOTH",
"114 606 OFFCURVE",
"91 582 OFFCURVE",
"91 555 CURVE SMOOTH",
"91 245 LINE SMOOTH",
"91 217 OFFCURVE",
"114 194 OFFCURVE",
"144 194 CURVE SMOOTH",
"556 194 LINE SMOOTH",
"585 194 OFFCURVE",
"609 217 OFFCURVE",
"609 245 CURVE SMOOTH",
"609 555 LINE SMOOTH",
"609 582 OFFCURVE",
"585 606 OFFCURVE",
"556 606 CURVE SMOOTH"
);
},
{
closed = 1;
nodes = (
"168 349 LINE",
"168 327 LINE",
"268 327 LINE",
"268 349 LINE"
);
},
{
closed = 1;
nodes = (
"168 400 LINE",
"168 379 LINE",
"268 379 LINE",
"268 400 LINE"
);
},
{
closed = 1;
nodes = (
"330 426 OFFCURVE",
"320 409 OFFCURVE",
"321 398 CURVE",
"324 381 LINE",
"321 381 OFFCURVE",
"320 381 OFFCURVE",
"320 380 CURVE",
"321 366 OFFCURVE",
"323 359 OFFCURVE",
"325 359 CURVE SMOOTH",
"328 359 LINE",
"329 354 OFFCURVE",
"331 350 OFFCURVE",
"336 345 CURVE SMOOTH",
"337 342 OFFCURVE",
"339 341 OFFCURVE",
"339 337 CURVE SMOOTH",
"339 324 OFFCURVE",
"331 316 OFFCURVE",
"309 311 CURVE SMOOTH",
"288 302 OFFCURVE",
"280 295 OFFCURVE",
"280 291 CURVE SMOOTH",
"280 272 LINE",
"345 272 LINE",
"345 295 LINE SMOOTH",
"345 302 OFFCURVE",
"355 315 OFFCURVE",
"378 324 CURVE",
"376 330 OFFCURVE",
"374 331 OFFCURVE",
"374 337 CURVE SMOOTH",
"374 341 OFFCURVE",
"376 342 OFFCURVE",
"378 345 CURVE",
"379 350 OFFCURVE",
"380 354 OFFCURVE",
"380 359 CURVE",
"386 359 LINE SMOOTH",
"391 359 OFFCURVE",
"392 366 OFFCURVE",
"392 380 CURVE SMOOTH",
"392 381 OFFCURVE",
"391 381 OFFCURVE",
"390 381 CURVE SMOOTH",
"387 381 LINE",
"390 387 OFFCURVE",
"391 392 OFFCURVE",
"391 398 CURVE SMOOTH",
"391 402 OFFCURVE",
"390 409 OFFCURVE",
"380 417 CURVE SMOOTH",
"378 424 OFFCURVE",
"371 426 OFFCURVE",
"356 426 CURVE SMOOTH"
);
},
{
closed = 1;
nodes = (
"246 450 LINE",
"191 450 LINE",
"191 505 LINE",
"246 505 LINE"
);
},
{
closed = 1;
nodes = (
"168 528 LINE",
"168 430 LINE",
"268 430 LINE",
"268 528 LINE"
);
},
{
closed = 1;
nodes = (
"551 555 OFFCURVE",
"556 550 OFFCURVE",
"556 542 CURVE SMOOTH",
"556 258 LINE SMOOTH",
"556 250 OFFCURVE",
"551 245 OFFCURVE",
"542 245 CURVE SMOOTH",
"158 245 LINE SMOOTH",
"149 245 OFFCURVE",
"144 250 OFFCURVE",
"144 258 CURVE SMOOTH",
"144 542 LINE SMOOTH",
"144 550 OFFCURVE",
"149 555 OFFCURVE",
"158 555 CURVE SMOOTH",
"542 555 LINE SMOOTH"
);
},
{
closed = 1;
nodes = (
"423 468 OFFCURVE",
"417 447 OFFCURVE",
"417 430 CURVE",
"419 411 LINE",
"419 411 OFFCURVE",
"417 408 OFFCURVE",
"417 402 CURVE SMOOTH",
"417 390 LINE SMOOTH",
"419 388 OFFCURVE",
"420 386 OFFCURVE",
"420 384 CURVE SMOOTH",
"422 381 OFFCURVE",
"425 374 OFFCURVE",
"430 365 CURVE SMOOTH",
"432 359 OFFCURVE",
"435 359 OFFCURVE",
"435 359 CURVE SMOOTH",
"435 338 OFFCURVE",
"425 331 OFFCURVE",
"395 321 CURVE SMOOTH",
"373 313 OFFCURVE",
"358 302 OFFCURVE",
"358 295 CURVE SMOOTH",
"358 272 LINE",
"532 272 LINE",
"532 314 LINE",
"530 316 OFFCURVE",
"528 316 OFFCURVE",
"524 318 CURVE",
"517 318 OFFCURVE",
"515 321 OFFCURVE",
"515 321 CURVE SMOOTH",
"488 332 OFFCURVE",
"480 338 OFFCURVE",
"480 359 CURVE SMOOTH",
"483 365 LINE SMOOTH",
"488 373 OFFCURVE",
"490 381 OFFCURVE",
"492 384 CURVE SMOOTH",
"492 386 OFFCURVE",
"493 388 OFFCURVE",
"495 390 CURVE SMOOTH",
"499 391 OFFCURVE",
"500 397 OFFCURVE",
"502 402 CURVE",
"502 407 OFFCURVE",
"499 410 OFFCURVE",
"497 411 CURVE",
"496 411 LINE",
"497 419 OFFCURVE",
"500 426 OFFCURVE",
"500 430 CURVE SMOOTH",
"500 440 OFFCURVE",
"497 447 OFFCURVE",
"492 456 CURVE SMOOTH",
"483 466 OFFCURVE",
"473 468 OFFCURVE",
"456 468 CURVE SMOOTH"
);
}
);
width = 700;
}
);
unicode = 005A;
},
{
glyphname = a;
lastChange = "2013-04-17 21:19:57 +0200";
layers = (
{
layerId = "5D30703B-31DB-48F9-9EC6-DEC4C9CE33EC";
name = Regular;
paths = (
{
closed = 1;
nodes = (
"344 612 OFFCURVE",
"339 609 OFFCURVE",
"335 604 CURVE",
"113 213 LINE",
"109 207 OFFCURVE",
"110 201 OFFCURVE",
"113 195 CURVE",
"117 190 OFFCURVE",
"122 188 OFFCURVE",
"128 188 CURVE SMOOTH",
"573 188 LINE SMOOTH",
"580 188 OFFCURVE",
"584 190 OFFCURVE",
"588 195 CURVE",
"589 198 OFFCURVE",
"590 201 OFFCURVE",
"590 204 CURVE SMOOTH",
"590 207 OFFCURVE",
"589 210 OFFCURVE",
"588 213 CURVE SMOOTH",
"366 604 LINE",
"364 609 OFFCURVE",
"358 612 OFFCURVE",
"351 612 CURVE SMOOTH"
);
},
{
closed = 1;
nodes = (
"376 288 OFFCURVE",
"381 283 OFFCURVE",
"381 273 CURVE SMOOTH",
"381 252 LINE SMOOTH",
"381 242 OFFCURVE",
"376 237 OFFCURVE",
"366 237 CURVE SMOOTH",
"335 237 LINE SMOOTH",
"325 237 OFFCURVE",
"320 242 OFFCURVE",
"320 252 CURVE SMOOTH",
"320 273 LINE SMOOTH",
"320 283 OFFCURVE",
"325 288 OFFCURVE",
"335 288 CURVE SMOOTH",
"366 288 LINE SMOOTH"
);
},
{
closed = 1;
nodes = (
"376 476 OFFCURVE",
"381 471 OFFCURVE",
"381 461 CURVE SMOOTH",
"381 340 LINE SMOOTH",
"381 330 OFFCURVE",
"376 325 OFFCURVE",
"366 325 CURVE SMOOTH",
"335 325 LINE SMOOTH",
"325 325 OFFCURVE",
"320 330 OFFCURVE",
"320 340 CURVE SMOOTH",
"320 461 LINE SMOOTH",
"320 471 OFFCURVE",
"325 476 OFFCURVE",
"335 476 CURVE SMOOTH",
"366 476 LINE SMOOTH"
);
}
);
width = 700;
}
);
unicode = 0061;
},
{
glyphname = b;
lastChange = "2013-04-17 21:19:57 +0200";
layers = (
{
layerId = "5D30703B-31DB-48F9-9EC6-DEC4C9CE33EC";
name = Regular;
paths = (
{
closed = 1;
nodes = (
"243 621 OFFCURVE",
"240 620 OFFCURVE",
"237 619 CURVE SMOOTH",
"225 615 OFFCURVE",
"222 608 OFFCURVE",
"222 602 CURVE SMOOTH",
"222 595 OFFCURVE",
"219 584 OFFCURVE",
"207 575 CURVE SMOOTH",
"167 542 OFFCURVE",
"150 507 OFFCURVE",
"150 459 CURVE SMOOTH",
"150 424 OFFCURVE",
"160 383 OFFCURVE",
"175 329 CURVE",
"177 324 OFFCURVE",
"177 318 OFFCURVE",
"177 313 CURVE SMOOTH",
"177 300 OFFCURVE",
"174 287 OFFCURVE",
"166 274 CURVE SMOOTH",
"160 262 OFFCURVE",
"156 249 OFFCURVE",
"156 237 CURVE SMOOTH",
"156 210 OFFCURVE",
"176 186 OFFCURVE",
"237 180 CURVE SMOOTH",
"246 179 OFFCURVE",
"254 179 OFFCURVE",
"263 179 CURVE SMOOTH",
"300 179 OFFCURVE",
"341 187 OFFCURVE",
"385 202 CURVE SMOOTH",
"480 237 OFFCURVE",
"551 307 OFFCURVE",
"551 350 CURVE SMOOTH",
"551 354 OFFCURVE",
"551 358 OFFCURVE",
"549 361 CURVE SMOOTH",
"541 385 OFFCURVE",
"523 398 OFFCURVE",
"510 400 CURVE SMOOTH",
"496 402 OFFCURVE",
"477 414 OFFCURVE",
"467 437 CURVE SMOOTH",
"405 570 OFFCURVE",
"375 606 OFFCURVE",
"287 604 CURVE SMOOTH",
"276 604 OFFCURVE",
"267 608 OFFCURVE",
"261 614 CURVE SMOOTH",
"256 619 OFFCURVE",
"251 621 OFFCURVE",
"246 621 CURVE SMOOTH"
);
},
{
closed = 1;
nodes = (
"352 326 OFFCURVE",
"346 323 OFFCURVE",
"343 322 CURVE SMOOTH",
"297 306 OFFCURVE",
"261 286 OFFCURVE",
"234 263 CURVE",
"245 253 OFFCURVE",
"258 248 OFFCURVE",
"273 248 CURVE SMOOTH",
"284 248 OFFCURVE",
"296 251 OFFCURVE",
"310 256 CURVE SMOOTH",
"342 268 OFFCURVE",
"364 293 OFFCURVE",
"364 317 CURVE SMOOTH",
"364 320 OFFCURVE",
"364 324 OFFCURVE",
"362 328 CURVE",
"362 329 LINE"
);
},
{
closed = 1;
nodes = (
"475 368 OFFCURVE",
"484 367 OFFCURVE",
"492 365 CURVE SMOOTH",
"507 360 OFFCURVE",
"515 356 OFFCURVE",
"515 347 CURVE SMOOTH",
"515 341 OFFCURVE",
"511 334 OFFCURVE",
"503 323 CURVE SMOOTH",
"485 297 OFFCURVE",
"433 256 OFFCURVE",
"374 235 CURVE SMOOTH",
"335 221 OFFCURVE",
"293 215 OFFCURVE",
"260 215 CURVE SMOOTH",
"244 215 OFFCURVE",
"229 216 OFFCURVE",
"219 219 CURVE SMOOTH",
"204 222 OFFCURVE",
"196 226 OFFCURVE",
"194 230 CURVE",
"194 234 LINE SMOOTH",
"194 240 OFFCURVE",
"197 247 OFFCURVE",
"203 256 CURVE SMOOTH",
"218 280 OFFCURVE",
"268 316 OFFCURVE",
"336 341 CURVE SMOOTH",
"387 359 OFFCURVE",
"433 368 OFFCURVE",
"464 368 CURVE SMOOTH"
);
}
);
width = 700;
}
);
unicode = 0062;
},
{
glyphname = c;
lastChange = "2013-04-17 21:19:57 +0200";
layers = (
{
layerId = "5D30703B-31DB-48F9-9EC6-DEC4C9CE33EC";
name = Regular;
paths = (
{
closed = 1;
nodes = (
"228 612 OFFCURVE",
"134 517 OFFCURVE",
"135 395 CURVE SMOOTH",
"137 278 OFFCURVE",
"233 185 OFFCURVE",
"357 185 CURVE SMOOTH",
"472 188 OFFCURVE",
"566 285 OFFCURVE",
"566 407 CURVE SMOOTH",
"562 524 OFFCURVE",
"467 617 OFFCURVE",
"343 617 CURVE SMOOTH"
);
},
{
closed = 1;
nodes = (
"276 465 OFFCURVE",
"262 459 OFFCURVE",
"250 447 CURVE",
"239 437 OFFCURVE",
"233 422 OFFCURVE",
"233 401 CURVE SMOOTH",
"233 379 OFFCURVE",
"239 365 OFFCURVE",
"249 353 CURVE",
"262 343 OFFCURVE",
"278 337 OFFCURVE",
"295 337 CURVE SMOOTH",
"304 337 OFFCURVE",
"316 340 OFFCURVE",
"325 346 CURVE SMOOTH",
"336 353 OFFCURVE",
"340 359 OFFCURVE",
"347 370 CURVE",
"322 381 LINE",
"318 371 OFFCURVE",
"308 364 OFFCURVE",
"298 364 CURVE SMOOTH",
"280 364 OFFCURVE",
"270 379 OFFCURVE",
"270 401 CURVE SMOOTH",
"270 426 OFFCURVE",
"280 438 OFFCURVE",
"298 438 CURVE SMOOTH",
"300 438 OFFCURVE",
"304 437 OFFCURVE",
"308 433 CURVE",
"313 431 OFFCURVE",
"317 428 OFFCURVE",
"320 422 CURVE",
"345 435 LINE",
"337 454 OFFCURVE",
"320 465 OFFCURVE",
"293 465 CURVE SMOOTH"
);
},
{
closed = 1;
nodes = (
"442 571 OFFCURVE",
"519 497 OFFCURVE",
"520 405 CURVE SMOOTH",
"520 310 OFFCURVE",
"446 232 OFFCURVE",
"355 231 CURVE SMOOTH",
"258 230 OFFCURVE",
"183 305 OFFCURVE",
"180 395 CURVE SMOOTH",
"180 492 OFFCURVE",
"254 569 OFFCURVE",
"345 571 CURVE SMOOTH"
);
},
{
closed = 1;
nodes = (
"394 465 OFFCURVE",
"380 459 OFFCURVE",
"370 447 CURVE",
"360 437 OFFCURVE",
"355 422 OFFCURVE",
"355 401 CURVE SMOOTH",
"355 379 OFFCURVE",
"360 365 OFFCURVE",
"369 353 CURVE",
"380 343 OFFCURVE",
"396 337 OFFCURVE",
"413 337 CURVE SMOOTH",
"434 337 OFFCURVE",
"456 349 OFFCURVE",
"467 370 CURVE",
"441 381 LINE",
"436 371 OFFCURVE",
"428 364 OFFCURVE",
"417 364 CURVE SMOOTH",
"408 364 OFFCURVE",
"400 368 OFFCURVE",
"396 374 CURVE SMOOTH",
"387 387 OFFCURVE",
"380 438 OFFCURVE",
"417 438 CURVE SMOOTH",
"420 438 OFFCURVE",
"423 437 OFFCURVE",
"428 433 CURVE",
"432 431 OFFCURVE",
"436 428 OFFCURVE",
"439 422 CURVE",
"467 435 LINE",
"456 454 OFFCURVE",
"438 465 OFFCURVE",
"412 465 CURVE SMOOTH"
);
}
);
width = 700;
}
);
unicode = 0063;
},
{
glyphname = d;
lastChange = "2013-04-17 21:19:57 +0200";
layers = (
{
layerId = "5D30703B-31DB-48F9-9EC6-DEC4C9CE33EC";
name = Regular;
paths = (
{
closed = 1;
nodes = (
"502 575 LINE",
"502 525 LINE",
"422 525 LINE",
"422 575 LINE",
"277 575 LINE",
"277 525 LINE",
"197 525 LINE",
"197 575 LINE",
"175 575 LINE SMOOTH",
"147 575 OFFCURVE",
"125 552 OFFCURVE",
"125 525 CURVE SMOOTH",
"125 225 LINE SMOOTH",
"125 197 OFFCURVE",
"147 175 OFFCURVE",
"175 175 CURVE SMOOTH",
"525 175 LINE SMOOTH",
"552 175 OFFCURVE",
"575 197 OFFCURVE",
"575 225 CURVE SMOOTH",
"575 525 LINE SMOOTH",
"575 552 OFFCURVE",
"552 575 OFFCURVE",
"525 575 CURVE SMOOTH"
);
},
{
closed = 1;
nodes = (
"525 225 LINE",
"175 225 LINE",
"175 425 LINE",
"525 425 LINE"
);
},
{
closed = 1;
nodes = (
"220 625 LINE",
"220 540 LINE",
"255 540 LINE",
"255 625 LINE"
);
},
{
closed = 1;
nodes = (
"445 625 LINE",
"445 540 LINE",
"480 540 LINE",
"480 625 LINE"
);
}
);
width = 700;
}
);
unicode = 0064;
},
{
glyphname = e;
lastChange = "2013-04-17 21:19:57 +0200";
layers = (
{
layerId = "5D30703B-31DB-48F9-9EC6-DEC4C9CE33EC";
name = Regular;
paths = (
{
closed = 1;
nodes = (
"318 476 OFFCURVE",
"269 407 OFFCURVE",
"269 349 CURVE SMOOTH",
"269 298 OFFCURVE",
"306 268 OFFCURVE",
"345 268 CURVE SMOOTH",
"388 268 OFFCURVE",
"419 303 OFFCURVE",
"419 343 CURVE SMOOTH",
"419 376 OFFCURVE",
"400 403 OFFCURVE",
"370 414 CURVE SMOOTH",
"363 417 OFFCURVE",
"360 417 OFFCURVE",
"357 423 CURVE SMOOTH",
"355 425 OFFCURVE",
"354 429 OFFCURVE",
"354 433 CURVE SMOOTH",
"354 455 OFFCURVE",
"374 482 OFFCURVE",
"413 514 CURVE",
"401 533 LINE"
);
},
{
closed = 1;
nodes = (
"129 477 OFFCURVE",
"81 407 OFFCURVE",
"81 349 CURVE SMOOTH",
"81 297 OFFCURVE",
"118 268 OFFCURVE",
"156 268 CURVE SMOOTH",
"198 268 OFFCURVE",
"230 303 OFFCURVE",
"230 343 CURVE SMOOTH",
"230 376 OFFCURVE",
"210 403 OFFCURVE",
"181 414 CURVE",
"174 417 OFFCURVE",
"172 417 OFFCURVE",
"169 423 CURVE",
"167 425 OFFCURVE",
"166 429 OFFCURVE",
"166 433 CURVE SMOOTH",
"166 456 OFFCURVE",
"186 482 OFFCURVE",
"226 514 CURVE",
"213 533 LINE"
);
}
);
width = 500;
}
);
unicode = 0065;
},
{
glyphname = f;
lastChange = "2013-04-17 21:19:57 +0200";
layers = (
{
layerId = "5D30703B-31DB-48F9-9EC6-DEC4C9CE33EC";
name = Regular;
paths = (
{
closed = 1;
nodes = (
"246 622 OFFCURVE",
"104 554 OFFCURVE",
"104 393 CURVE SMOOTH",
"104 385 OFFCURVE",
"104 373 OFFCURVE",
"106 361 CURVE",
"160 427 OFFCURVE",
"242 477 OFFCURVE",
"300 497 CURVE SMOOTH",
"360 517 OFFCURVE",
"429 527 OFFCURVE",
"450 528 CURVE SMOOTH",
"460 529 OFFCURVE",
"468 529 OFFCURVE",
"475 529 CURVE",
"441 517 LINE SMOOTH",
"398 500 OFFCURVE",
"325 461 OFFCURVE",
"253 412 CURVE SMOOTH",
"179 366 OFFCURVE",
"104 285 OFFCURVE",
"69 206 CURVE",
"69 204 OFFCURVE",
"68 201 OFFCURVE",
"68 200 CURVE SMOOTH",
"68 193 OFFCURVE",
"74 188 OFFCURVE",
"86 182 CURVE SMOOTH",
"89 180 OFFCURVE",
"96 178 OFFCURVE",
"100 178 CURVE SMOOTH",
"105 178 OFFCURVE",
"112 180 OFFCURVE",
"113 187 CURVE SMOOTH",
"131 228 OFFCURVE",
"154 261 OFFCURVE",
"180 291 CURVE",
"227 273 OFFCURVE",
"269 265 OFFCURVE",
"306 265 CURVE SMOOTH",
"344 265 OFFCURVE",
"380 274 OFFCURVE",
"409 295 CURVE SMOOTH",
"451 323 OFFCURVE",
"485 386 OFFCURVE",
"504 436 CURVE SMOOTH",
"523 486 OFFCURVE",
"569 548 OFFCURVE",
"628 580 CURVE",
"631 581 OFFCURVE",
"631 581 OFFCURVE",
"631 582 CURVE SMOOTH",
"631 583 OFFCURVE",
"631 585 OFFCURVE",
"630 586 CURVE",
"608 610 OFFCURVE",
"474 622 OFFCURVE",
"412 622 CURVE SMOOTH"
);
}
);
width = 700;
}
);
unicode = 0066;
},
{
glyphname = g;
lastChange = "2013-04-17 21:19:57 +0200";
layers = (
{
layerId = "5D30703B-31DB-48F9-9EC6-DEC4C9CE33EC";
name = Regular;
paths = (
{
closed = 1;
nodes = (
"285 633 OFFCURVE",
"228 608 OFFCURVE",
"185 565 CURVE SMOOTH",
"143 522 OFFCURVE",
"117 465 OFFCURVE",
"117 400 CURVE SMOOTH",
"117 368 OFFCURVE",
"123 338 OFFCURVE",
"135 310 CURVE SMOOTH",
"147 281 OFFCURVE",
"164 256 OFFCURVE",
"185 235 CURVE SMOOTH",
"228 193 OFFCURVE",
"285 167 OFFCURVE",
"350 167 CURVE SMOOTH",
"414 167 OFFCURVE",
"473 193 OFFCURVE",
"515 235 CURVE SMOOTH",
"557 276 OFFCURVE",
"583 336 OFFCURVE",
"583 400 CURVE SMOOTH",
"583 465 OFFCURVE",
"557 522 OFFCURVE",
"515 565 CURVE SMOOTH",
"473 608 OFFCURVE",
"414 633 OFFCURVE",
"350 633 CURVE SMOOTH"
);
},
{
closed = 1;
nodes = (
"172 421 OFFCURVE",
"181 413 OFFCURVE",
"191 406 CURVE SMOOTH",
"199 400 OFFCURVE",
"208 396 OFFCURVE",
"213 394 CURVE",
"219 392 OFFCURVE",
"226 389 OFFCURVE",
"233 387 CURVE SMOOTH",
"239 386 OFFCURVE",
"245 384 OFFCURVE",
"251 380 CURVE",
"253 379 OFFCURVE",
"255 378 OFFCURVE",
"257 375 CURVE",
"259 375 OFFCURVE",
"260 372 OFFCURVE",
"263 371 CURVE",
"264 371 OFFCURVE",
"265 370 OFFCURVE",
"266 368 CURVE",
"266 361 LINE SMOOTH",
"265 358 OFFCURVE",
"265 354 OFFCURVE",
"266 346 CURVE SMOOTH",
"266 332 OFFCURVE",
"273 322 OFFCURVE",
"279 313 CURVE",
"281 308 LINE",
"285 302 OFFCURVE",
"286 298 OFFCURVE",
"286 294 CURVE",
"285 293 OFFCURVE",
"285 288 OFFCURVE",
"285 284 CURVE SMOOTH",
"284 274 OFFCURVE",
"283 257 OFFCURVE",
"281 244 CURVE SMOOTH",
"280 237 OFFCURVE",
"280 231 OFFCURVE",
"280 225 CURVE",
"256 235 OFFCURVE",
"236 248 OFFCURVE",
"219 266 CURVE SMOOTH",
"185 301 OFFCURVE",
"169 344 OFFCURVE",
"165 379 CURVE SMOOTH",
"165 386 OFFCURVE",
"164 393 OFFCURVE",
"164 400 CURVE SMOOTH",
"164 410 OFFCURVE",
"165 420 OFFCURVE",
"167 431 CURVE"
);
},
{
closed = 1;
nodes = (
"308 564 OFFCURVE",
"333 553 OFFCURVE",
"357 553 CURVE SMOOTH",
"361 553 OFFCURVE",
"364 554 OFFCURVE",
"367 555 CURVE",
"372 555 OFFCURVE",
"376 559 OFFCURVE",
"382 561 CURVE",
"384 564 OFFCURVE",
"388 566 OFFCURVE",
"392 567 CURVE SMOOTH",
"400 570 OFFCURVE",
"410 569 OFFCURVE",
"420 566 CURVE SMOOTH",
"423 565 OFFCURVE",
"429 564 OFFCURVE",
"434 564 CURVE",
"448 557 OFFCURVE",
"459 548 OFFCURVE",
"471 538 CURVE",
"465 538 OFFCURVE",
"459 538 OFFCURVE",
"453 536 CURVE SMOOTH",
"441 536 OFFCURVE",
"428 531 OFFCURVE",
"417 526 CURVE SMOOTH",
"407 521 OFFCURVE",
"401 509 OFFCURVE",
"398 501 CURVE SMOOTH",
"396 492 OFFCURVE",
"394 486 OFFCURVE",
"394 482 CURVE SMOOTH",
"394 479 OFFCURVE",
"392 473 OFFCURVE",
"389 471 CURVE",
"385 468 OFFCURVE",
"383 466 OFFCURVE",
"384 463 CURVE SMOOTH",
"384 461 OFFCURVE",
"384 458 OFFCURVE",
"387 453 CURVE SMOOTH",
"388 451 OFFCURVE",
"389 448 OFFCURVE",
"389 445 CURVE",
"396 445 LINE SMOOTH",
"400 445 OFFCURVE",
"405 446 OFFCURVE",
"409 450 CURVE",
"442 446 LINE",
"445 450 OFFCURVE",
"449 453 OFFCURVE",
"452 454 CURVE",
"454 454 OFFCURVE",
"455 456 OFFCURVE",
"457 456 CURVE",
"459 454 OFFCURVE",
"461 454 OFFCURVE",
"462 453 CURVE",
"466 450 OFFCURVE",
"472 445 OFFCURVE",
"477 434 CURVE",
"463 424 LINE",
"457 427 OFFCURVE",
"449 432 OFFCURVE",
"444 435 CURVE",
"441 436 OFFCURVE",
"439 437 OFFCURVE",
"433 437 CURVE SMOOTH",
"423 438 OFFCURVE",
"413 437 OFFCURVE",
"402 434 CURVE SMOOTH",
"398 433 OFFCURVE",
"394 433 OFFCURVE",
"389 433 CURVE",
"387 428 LINE",
"385 427 OFFCURVE",
"384 424 OFFCURVE",
"380 424 CURVE",
"380 423 OFFCURVE",
"380 422 OFFCURVE",
"380 419 CURVE SMOOTH",
"380 416 LINE",
"375 409 OFFCURVE",
"373 401 OFFCURVE",
"373 393 CURVE SMOOTH",
"373 390 OFFCURVE",
"373 387 OFFCURVE",
"374 385 CURVE SMOOTH",
"378 368 OFFCURVE",
"386 359 OFFCURVE",
"401 359 CURVE SMOOTH",
"407 359 LINE SMOOTH",
"414 359 OFFCURVE",
"419 358 OFFCURVE",
"421 358 CURVE SMOOTH",
"424 357 OFFCURVE",
"425 356 OFFCURVE",
"425 356 CURVE",
"422 349 OFFCURVE",
"423 345 OFFCURVE",
"427 338 CURVE",
"428 336 LINE",
"433 328 OFFCURVE",
"431 322 OFFCURVE",
"429 314 CURVE",
"429 313 OFFCURVE",
"429 312 OFFCURVE",
"429 310 CURVE SMOOTH",
"428 303 OFFCURVE",
"429 299 OFFCURVE",
"431 295 CURVE SMOOTH",
"433 291 OFFCURVE",
"434 286 OFFCURVE",
"436 283 CURVE SMOOTH",
"437 281 OFFCURVE",
"437 278 OFFCURVE",
"438 277 CURVE SMOOTH",
"440 275 LINE SMOOTH",
"441 274 OFFCURVE",
"441 272 OFFCURVE",
"441 272 CURVE",
"441 267 OFFCURVE",
"444 258 OFFCURVE",
"451 257 CURVE",
"453 257 LINE SMOOTH",
"459 257 OFFCURVE",
"465 261 OFFCURVE",
"473 270 CURVE",
"480 277 OFFCURVE",
"484 285 OFFCURVE",
"485 293 CURVE SMOOTH",
"485 296 OFFCURVE",
"486 298 OFFCURVE",
"486 300 CURVE SMOOTH",
"489 304 LINE",
"490 307 OFFCURVE",
"490 309 OFFCURVE",
"492 310 CURVE",
"492 313 OFFCURVE",
"493 315 OFFCURVE",
"494 317 CURVE",
"494 324 LINE",
"496 330 OFFCURVE",
"500 337 OFFCURVE",
"500 342 CURVE SMOOTH",
"500 343 OFFCURVE",
"500 345 OFFCURVE",
"501 346 CURVE SMOOTH",
"501 350 LINE",
"503 354 LINE",
"507 357 LINE",
"511 360 LINE",
"514 366 LINE",
"517 371 OFFCURVE",
"518 374 OFFCURVE",
"517 377 CURVE SMOOTH",
"515 377 OFFCURVE",
"515 378 OFFCURVE",
"513 379 CURVE",
"505 382 LINE",
"505 384 OFFCURVE",
"508 386 OFFCURVE",
"511 386 CURVE SMOOTH",
"512 386 OFFCURVE",
"515 386 OFFCURVE",
"519 385 CURVE",
"537 396 LINE",
"536 350 OFFCURVE",
"519 305 OFFCURVE",
"486 272 CURVE SMOOTH",
"442 224 OFFCURVE",
"389 211 OFFCURVE",
"350 211 CURVE SMOOTH",
"338 211 OFFCURVE",
"327 212 OFFCURVE",
"315 214 CURVE",
"316 216 OFFCURVE",
"317 219 OFFCURVE",
"318 223 CURVE",
"320 226 OFFCURVE",
"321 229 OFFCURVE",
"324 233 CURVE SMOOTH",
"325 237 OFFCURVE",
"327 240 OFFCURVE",
"329 245 CURVE",
"329 250 OFFCURVE",
"330 254 OFFCURVE",
"331 257 CURVE",
"335 266 OFFCURVE",
"338 270 OFFCURVE",
"344 275 CURVE SMOOTH",
"356 283 OFFCURVE",
"370 294 OFFCURVE",
"371 301 CURVE",
"372 306 OFFCURVE",
"374 322 OFFCURVE",
"374 334 CURVE SMOOTH",
"374 341 OFFCURVE",
"369 346 OFFCURVE",
"360 351 CURVE SMOOTH",
"353 356 OFFCURVE",
"341 363 OFFCURVE",
"331 372 CURVE",
"327 379 OFFCURVE",
"322 382 OFFCURVE",
"317 384 CURVE SMOOTH",
"306 387 OFFCURVE",
"295 388 OFFCURVE",
"286 387 CURVE SMOOTH",
"281 387 OFFCURVE",
"277 386 OFFCURVE",
"273 386 CURVE SMOOTH",
"272 386 OFFCURVE",
"272 386 OFFCURVE",
"272 387 CURVE",
"270 387 LINE SMOOTH",
"269 387 OFFCURVE",
"268 389 OFFCURVE",
"266 390 CURVE SMOOTH",
"263 392 LINE",
"263 394 LINE",
"264 396 LINE",
"266 398 OFFCURVE",
"264 402 OFFCURVE",
"262 402 CURVE SMOOTH",
"259 402 LINE",
"258 401 OFFCURVE",
"257 401 OFFCURVE",
"256 401 CURVE",
"255 403 OFFCURVE",
"255 405 OFFCURVE",
"255 405 CURVE",
"253 409 OFFCURVE",
"253 412 OFFCURVE",
"251 415 CURVE",
"256 412 OFFCURVE",
"259 409 OFFCURVE",
"263 407 CURVE SMOOTH",
"271 403 OFFCURVE",
"275 401 OFFCURVE",
"279 402 CURVE SMOOTH",
"282 403 OFFCURVE",
"285 407 OFFCURVE",
"285 414 CURVE SMOOTH",
"285 419 LINE SMOOTH",
"285 424 OFFCURVE",
"285 431 OFFCURVE",
"284 436 CURVE",
"285 437 OFFCURVE",
"285 439 OFFCURVE",
"286 441 CURVE SMOOTH",
"287 445 OFFCURVE",
"288 450 OFFCURVE",
"290 452 CURVE SMOOTH",
"291 453 OFFCURVE",
"293 454 OFFCURVE",
"294 454 CURVE SMOOTH",
"295 454 OFFCURVE",
"295 456 OFFCURVE",
"295 456 CURVE",
"296 457 OFFCURVE",
"297 458 OFFCURVE",
"299 458 CURVE",
"305 459 LINE",
"308 459 OFFCURVE",
"311 459 OFFCURVE",
"314 461 CURVE",
"316 462 OFFCURVE",
"316 463 OFFCURVE",
"316 466 CURVE",
"316 466 OFFCURVE",
"316 466 OFFCURVE",
"315 466 CURVE SMOOTH",
"317 468 OFFCURVE",
"319 468 OFFCURVE",
"321 471 CURVE",
"325 475 LINE",
"328 479 OFFCURVE",
"329 482 OFFCURVE",
"331 486 CURVE",
"329 489 OFFCURVE",
"328 491 OFFCURVE",
"326 492 CURVE",
"321 498 OFFCURVE",
"318 499 OFFCURVE",
"314 502 CURVE",
"312 504 OFFCURVE",
"308 505 OFFCURVE",
"305 504 CURVE",
"300 505 LINE SMOOTH",
"299 505 OFFCURVE",
"298 506 OFFCURVE",
"298 506 CURVE SMOOTH",
"297 506 LINE",
"294 509 OFFCURVE",
"292 510 OFFCURVE",
"291 510 CURVE",
"288 511 OFFCURVE",
"287 511 OFFCURVE",
"285 512 CURVE SMOOTH",
"277 518 OFFCURVE",
"267 526 OFFCURVE",
"263 536 CURVE SMOOTH",
"262 541 OFFCURVE",
"257 544 OFFCURVE",
"251 544 CURVE SMOOTH",
"249 545 OFFCURVE",
"246 545 OFFCURVE",
"243 545 CURVE SMOOTH",
"240 545 OFFCURVE",
"237 544 OFFCURVE",
"234 544 CURVE",
"251 557 OFFCURVE",
"270 567 OFFCURVE",
"290 574 CURVE"
);
}
);
width = 700;
}
);
unicode = 0067;
},
{
glyphname = h;
lastChange = "2013-04-17 21:19:57 +0200";
layers = (
{
layerId = "5D30703B-31DB-48F9-9EC6-DEC4C9CE33EC";
name = Regular;
paths = (
{
closed = 1;
nodes = (
"436 599 OFFCURVE",
"406 589 OFFCURVE",
"381 567 CURVE",
"350 537 LINE",
"317 567 LINE SMOOTH",
"293 589 OFFCURVE",
"264 599 OFFCURVE",
"232 599 CURVE SMOOTH",
"198 599 OFFCURVE",
"169 589 OFFCURVE",
"144 567 CURVE SMOOTH",
"118 542 OFFCURVE",
"104 512 OFFCURVE",
"104 478 CURVE SMOOTH",
"104 444 OFFCURVE",
"118 412 OFFCURVE",
"144 390 CURVE SMOOTH",
"350 201 LINE",
"555 390 LINE SMOOTH",
"581 412 OFFCURVE",
"595 444 OFFCURVE",
"595 478 CURVE SMOOTH",
"595 512 OFFCURVE",
"581 542 OFFCURVE",
"555 567 CURVE SMOOTH",
"531 589 OFFCURVE",
"502 599 OFFCURVE",
"468 599 CURVE SMOOTH"
);
}
);
width = 700;
}
);
unicode = 0068;
},
{
glyphname = i;
lastChange = "2013-04-17 21:19:57 +0200";
layers = (
{
layerId = "5D30703B-31DB-48F9-9EC6-DEC4C9CE33EC";
name = Regular;
paths = (
{
closed = 1;
nodes = (
"220 628 OFFCURVE",
"118 524 OFFCURVE",
"120 397 CURVE SMOOTH",
"122 270 OFFCURVE",
"226 168 OFFCURVE",
"353 170 CURVE SMOOTH",
"480 172 OFFCURVE",
"582 276 OFFCURVE",
"580 403 CURVE SMOOTH",
"578 529 OFFCURVE",
"474 632 OFFCURVE",
"347 630 CURVE SMOOTH"
);
},
{
closed = 1;
nodes = (
"382 448 OFFCURVE",
"387 442 OFFCURVE",
"387 429 CURVE SMOOTH",
"387 422 OFFCURVE",
"385 412 OFFCURVE",
"382 401 CURVE SMOOTH",
"361 321 LINE SMOOTH",
"360 317 OFFCURVE",
"360 312 OFFCURVE",
"360 309 CURVE SMOOTH",
"360 305 OFFCURVE",
"361 302 OFFCURVE",
"363 302 CURVE SMOOTH",
"371 302 OFFCURVE",
"383 308 OFFCURVE",
"399 320 CURVE",
"408 309 LINE",
"373 274 OFFCURVE",
"333 255 OFFCURVE",
"313 255 CURVE SMOOTH",
"299 255 OFFCURVE",
"292 264 OFFCURVE",
"292 280 CURVE SMOOTH",
"292 288 OFFCURVE",
"293 297 OFFCURVE",
"296 309 CURVE SMOOTH",
"315 383 LINE",
"317 389 OFFCURVE",
"317 393 OFFCURVE",
"317 396 CURVE SMOOTH",
"317 399 OFFCURVE",
"317 401 OFFCURVE",
"315 401 CURVE SMOOTH",
"305 401 OFFCURVE",
"292 395 OFFCURVE",
"277 383 CURVE",
"269 398 LINE",
"306 428 OFFCURVE",
"352 448 OFFCURVE",
"372 448 CURVE SMOOTH"
);
},
{
closed = 1;
nodes = (
"393 552 OFFCURVE",
"403 543 OFFCURVE",
"403 524 CURVE SMOOTH",
"403 504 OFFCURVE",
"386 486 OFFCURVE",
"361 486 CURVE SMOOTH",
"341 486 OFFCURVE",
"329 496 OFFCURVE",
"329 513 CURVE SMOOTH",
"329 516 LINE SMOOTH",
"329 535 OFFCURVE",
"345 552 OFFCURVE",
"373 552 CURVE SMOOTH"
);
}
);
width = 700;
}
);
unicode = 0069;
},
{
glyphname = idieresis;
lastChange = "2013-04-17 21:19:57 +0200";
layers = (
{
layerId = "5D30703B-31DB-48F9-9EC6-DEC4C9CE33EC";
name = Regular;
paths = (
{
closed = 1;
nodes = (
"370 475 OFFCURVE",
"295 440 OFFCURVE",
"235 388 CURVE",
"248 366 LINE",
"257 373 OFFCURVE",
"269 379 OFFCURVE",
"283 385 CURVE SMOOTH",
"294 390 OFFCURVE",
"303 394 OFFCURVE",
"308 394 CURVE SMOOTH",
"312 394 OFFCURVE",
"314 392 OFFCURVE",
"314 386 CURVE SMOOTH",
"314 381 OFFCURVE",
"312 375 OFFCURVE",
"310 365 CURVE SMOOTH",
"280 238 LINE SMOOTH",
"275 219 OFFCURVE",
"273 204 OFFCURVE",
"273 191 CURVE SMOOTH",
"273 164 OFFCURVE",
"284 150 OFFCURVE",
"307 150 CURVE SMOOTH",
"340 150 OFFCURVE",
"408 181 OFFCURVE",
"465 238 CURVE",
"450 258 LINE",
"424 238 OFFCURVE",
"404 228 OFFCURVE",
"390 228 CURVE SMOOTH",
"386 228 OFFCURVE",
"384 232 OFFCURVE",
"384 238 CURVE SMOOTH",
"384 244 OFFCURVE",
"385 251 OFFCURVE",
"387 260 CURVE SMOOTH",
"422 394 LINE SMOOTH",
"427 414 OFFCURVE",
"430 430 OFFCURVE",
"430 442 CURVE SMOOTH",
"430 464 OFFCURVE",
"421 475 OFFCURVE",
"405 475 CURVE SMOOTH"
);
},
{
closed = 1;
nodes = (
"370 650 OFFCURVE",
"344 617 OFFCURVE",
"344 588 CURVE SMOOTH",
"343 557 OFFCURVE",
"362 538 OFFCURVE",
"394 538 CURVE SMOOTH",
"431 538 OFFCURVE",
"461 568 OFFCURVE",
"461 601 CURVE SMOOTH",
"461 629 OFFCURVE",
"442 650 OFFCURVE",
"410 650 CURVE SMOOTH"
);
}
);
width = 700;
}
);
unicode = 00EF;
},
{
glyphname = j;
lastChange = "2013-04-17 21:19:57 +0200";
layers = (
{
layerId = "5D30703B-31DB-48F9-9EC6-DEC4C9CE33EC";
name = Regular;
paths = (
{
closed = 1;
nodes = (
"416 611 OFFCURVE",
"382 589 OFFCURVE",
"363 557 CURVE",
"363 557 OFFCURVE",
"361 557 OFFCURVE",
"359 558 CURVE SMOOTH",
"349 558 LINE SMOOTH",
"263 558 OFFCURVE",
"192 487 OFFCURVE",
"192 401 CURVE SMOOTH",
"192 368 OFFCURVE",
"201 338 OFFCURVE",
"220 311 CURVE",
"139 189 LINE",
"261 269 LINE",
"288 252 OFFCURVE",
"317 243 OFFCURVE",
"349 243 CURVE SMOOTH",
"437 243 OFFCURVE",
"507 313 OFFCURVE",
"507 401 CURVE SMOOTH",
"507 409 LINE SMOOTH",
"506 411 OFFCURVE",
"506 413 OFFCURVE",
"506 413 CURVE",
"539 432 OFFCURVE",
"561 466 OFFCURVE",
"561 505 CURVE SMOOTH",
"561 563 OFFCURVE",
"513 611 OFFCURVE",
"455 611 CURVE SMOOTH"
);
},
{
closed = 1;
nodes = (
"350 497 OFFCURVE",
"351 489 OFFCURVE",
"353 479 CURVE",
"312 437 LINE SMOOTH",
"302 427 OFFCURVE",
"297 414 OFFCURVE",
"297 401 CURVE SMOOTH",
"297 371 OFFCURVE",
"319 347 OFFCURVE",
"349 347 CURVE SMOOTH",
"363 347 OFFCURVE",
"375 353 OFFCURVE",
"385 363 CURVE SMOOTH",
"427 403 LINE",
"437 401 OFFCURVE",
"445 400 OFFCURVE",
"454 400 CURVE",
"454 342 OFFCURVE",
"407 296 OFFCURVE",
"349 296 CURVE SMOOTH",
"291 296 OFFCURVE",
"244 342 OFFCURVE",
"244 401 CURVE SMOOTH",
"244 459 OFFCURVE",
"291 505 OFFCURVE",
"349 505 CURVE SMOOTH",
"350 505 LINE"
);
},
{
closed = 1;
nodes = (
"484 558 OFFCURVE",
"507 534 OFFCURVE",
"507 505 CURVE SMOOTH",
"507 476 OFFCURVE",
"484 453 OFFCURVE",
"455 453 CURVE SMOOTH",
"441 453 OFFCURVE",
"428 458 OFFCURVE",
"418 468 CURVE SMOOTH",
"407 479 OFFCURVE",
"403 491 OFFCURVE",
"403 505 CURVE SMOOTH",
"403 534 OFFCURVE",
"426 558 OFFCURVE",
"455 558 CURVE SMOOTH"
);
}
);
width = 700;
}
);
unicode = 006A;
},
{
glyphname = k;
lastChange = "2013-04-17 21:19:57 +0200";
layers = (
{
layerId = "5D30703B-31DB-48F9-9EC6-DEC4C9CE33EC";
name = Regular;
paths = (
{
closed = 1;
nodes = (
"325 625 LINE SMOOTH",
"298 625 OFFCURVE",
"275 602 OFFCURVE",
"275 575 CURVE SMOOTH",
"275 431 LINE SMOOTH",
"275 395 OFFCURVE",
"295 375 OFFCURVE",
"331 375 CURVE SMOOTH",
"450 375 LINE",
"525 300 LINE",
"525 375 LINE",
"550 375 LINE SMOOTH",
"578 375 OFFCURVE",
"600 397 OFFCURVE",
"600 425 CURVE SMOOTH",
"600 575 LINE SMOOTH",
"600 602 OFFCURVE",
"578 625 OFFCURVE",
"550 625 CURVE SMOOTH"
);
},
{
closed = 1;
nodes = (
"150 500 LINE SMOOTH",
"123 500 OFFCURVE",
"100 477 OFFCURVE",
"100 450 CURVE SMOOTH",
"100 300 LINE SMOOTH",
"100 272 OFFCURVE",
"123 250 OFFCURVE",
"150 250 CURVE SMOOTH",
"175 250 LINE",
"175 175 LINE",
"250 250 LINE",
"375 250 LINE SMOOTH",
"403 250 OFFCURVE",
"425 272 OFFCURVE",
"425 300 CURVE SMOOTH",
"425 345 LINE",
"330 345 LINE SMOOTH",
"275 345 OFFCURVE",
"245 375 OFFCURVE",
"245 430 CURVE SMOOTH",
"245 500 LINE"
);
}
);
width = 700;
}
);
unicode = 006B;
},
{
glyphname = l;
lastChange = "2013-04-17 21:19:57 +0200";
layers = (
{
layerId = "5D30703B-31DB-48F9-9EC6-DEC4C9CE33EC";
name = Regular;
paths = (
{
closed = 1;
nodes = (
"325 620 OFFCURVE",
"280 574 OFFCURVE",
"280 519 CURVE SMOOTH",
"280 505 OFFCURVE",
"282 491 OFFCURVE",
"288 478 CURVE SMOOTH",
"351 332 LINE",
"336 328 LINE",
"234 348 LINE",
"130 328 LINE",
"67 180 LINE",
"204 207 LINE",
"336 180 LINE",
"467 207 LINE",
"604 180 LINE",
"541 328 LINE",
"435 348 LINE",
"415 344 LINE",
"473 480 LINE SMOOTH",
"478 493 OFFCURVE",
"481 506 OFFCURVE",
"481 519 CURVE SMOOTH",
"481 574 OFFCURVE",
"435 620 OFFCURVE",
"379 620 CURVE SMOOTH"
);
},
{
closed = 1;
nodes = (
"448 337 LINE",
"561 225 LINE",
"570 199 LINE",
"561 201 LINE",
"442 320 LINE",
"448 292 LINE",
"533 207 LINE",
"505 213 LINE",
"455 263 LINE",
"461 234 LINE",
"477 219 LINE",
"463 221 LINE",
"336 195 LINE",
"336 202 LINE",
"227 312 LINE",
"223 294 LINE",
"316 199 LINE",
"288 206 LINE",
"219 275 LINE",
"215 256 LINE",
"261 211 LINE",
"232 216 LINE",
"211 237 LINE",
"208 221 LINE",
"101 199 LINE",
"148 321 LINE",
"233 339 LINE",
"231 330 LINE",
"336 225 LINE",
"336 248 LINE",
"246 337 LINE",
"274 331 LINE",
"336 270 LINE",
"336 293 LINE",
"302 325 LINE",
"331 320 LINE",
"336 315 LINE",
"336 318 LINE",
"355 323 LINE",
"379 263 LINE",
"410 335 LINE",
"438 339 LINE"
);
},
{
closed = 1;
nodes = (
"505 325 LINE",
"532 297 LINE",
"546 261 LINE",
"476 332 LINE"
);
},
{
closed = 1;
nodes = (
"408 569 OFFCURVE",
"431 546 OFFCURVE",
"431 519 CURVE SMOOTH",
"431 491 OFFCURVE",
"408 468 OFFCURVE",
"379 468 CURVE SMOOTH",
"353 468 OFFCURVE",
"330 491 OFFCURVE",
"330 519 CURVE SMOOTH",
"330 546 OFFCURVE",
"353 569 OFFCURVE",
"379 569 CURVE SMOOTH"
);
}
);
width = 700;
}
);
unicode = 006C;
},
{
glyphname = m;
lastChange = "2013-04-17 21:19:57 +0200";
layers = (
{
layerId = "5D30703B-31DB-48F9-9EC6-DEC4C9CE33EC";
name = Regular;
paths = (
{
closed = 1;
nodes = (
"212 642 OFFCURVE",
"111 519 OFFCURVE",
"115 376 CURVE SMOOTH",
"119 253 OFFCURVE",
"219 158 OFFCURVE",
"342 158 CURVE SMOOTH",
"389 158 OFFCURVE",
"441 178 OFFCURVE",
"478 196 CURVE",
"497 229 LINE",
"469 215 OFFCURVE",
"397 196 OFFCURVE",
"359 196 CURVE SMOOTH",
"245 196 OFFCURVE",
"182 262 OFFCURVE",
"178 385 CURVE SMOOTH",
"173 509 OFFCURVE",
"251 595 OFFCURVE",
"364 595 CURVE SMOOTH",
"469 595 OFFCURVE",
"527 538 OFFCURVE",
"531 433 CURVE SMOOTH",
"534 357 OFFCURVE",
"516 319 OFFCURVE",
"469 319 CURVE SMOOTH",
"450 319 OFFCURVE",
"440 338 OFFCURVE",
"448 385 CURVE",
"462 509 LINE",
"443 519 OFFCURVE",
"414 528 OFFCURVE",
"386 528 CURVE SMOOTH",
"282 528 OFFCURVE",
"226 452 OFFCURVE",
"229 367 CURVE SMOOTH",
"232 300 OFFCURVE",
"262 272 OFFCURVE",
"309 272 CURVE SMOOTH",
"338 272 OFFCURVE",
"365 291 OFFCURVE",
"393 329 CURVE",
"404 291 OFFCURVE",
"423 272 OFFCURVE",
"452 272 CURVE SMOOTH",
"537 272 OFFCURVE",
"588 329 OFFCURVE",
"584 443 CURVE SMOOTH",
"580 557 OFFCURVE",
"486 642 OFFCURVE",
"363 642 CURVE SMOOTH"
);
},
{
closed = 1;
nodes = (
"390 405 LINE",
"382 357 OFFCURVE",
"355 329 OFFCURVE",
"327 329 CURVE SMOOTH",
"307 329 OFFCURVE",
"298 348 OFFCURVE",
"297 376 CURVE SMOOTH",
"295 443 OFFCURVE",
"322 471 OFFCURVE",
"369 471 CURVE SMOOTH",
"398 471 LINE"
);
}
);
width = 700;
}
);
unicode = 006D;
},
{
glyphname = n;
lastChange = "2013-04-17 21:19:57 +0200";
layers = (
{
layerId = "5D30703B-31DB-48F9-9EC6-DEC4C9CE33EC";
name = Regular;
paths = (
{
closed = 1;
nodes = (
"163 532 OFFCURVE",
"158 517 OFFCURVE",
"158 497 CURVE SMOOTH",
"158 472 OFFCURVE",
"168 443 OFFCURVE",
"188 410 CURVE",
"206 374 OFFCURVE",
"231 344 OFFCURVE",
"263 312 CURVE",
"286 285 OFFCURVE",
"318 260 OFFCURVE",
"360 238 CURVE SMOOTH",
"391 219 OFFCURVE",
"420 210 OFFCURVE",
"449 210 CURVE SMOOTH",
"467 210 OFFCURVE",
"481 213 OFFCURVE",
"492 222 CURVE",
"400 312 LINE",
"399 310 OFFCURVE",
"396 310 OFFCURVE",
"392 310 CURVE SMOOTH",
"384 310 OFFCURVE",
"370 320 OFFCURVE",
"342 339 CURVE",
"326 357 OFFCURVE",
"306 379 OFFCURVE",
"286 410 CURVE",
"271 424 OFFCURVE",
"263 436 OFFCURVE",
"263 445 CURVE SMOOTH",
"263 449 LINE",
"172 540 LINE"
);
},
{
closed = 1;
nodes = (
"226 590 OFFCURVE",
"217 587 OFFCURVE",
"203 574 CURVE",
"196 564 LINE",
"286 471 LINE",
"289 475 OFFCURVE",
"293 478 OFFCURVE",
"298 482 CURVE SMOOTH",
"308 490 OFFCURVE",
"313 499 OFFCURVE",
"313 506 CURVE SMOOTH",
"313 511 OFFCURVE",
"312 515 OFFCURVE",
"308 518 CURVE SMOOTH",
"240 587 LINE SMOOTH",
"238 589 OFFCURVE",
"233 590 OFFCURVE",
"229 590 CURVE SMOOTH"
);
},
{
closed = 1;
nodes = (
"456 362 OFFCURVE",
"452 360 OFFCURVE",
"446 357 CURVE",
"441 354 OFFCURVE",
"437 350 OFFCURVE",
"432 344 CURVE",
"423 335 LINE",
"514 244 LINE",
"519 246 OFFCURVE",
"520 249 OFFCURVE",
"523 251 CURVE",
"533 260 LINE SMOOTH",
"539 266 OFFCURVE",
"542 271 OFFCURVE",
"542 277 CURVE SMOOTH",
"542 282 OFFCURVE",
"540 286 OFFCURVE",
"537 289 CURVE SMOOTH",
"469 357 LINE SMOOTH",
"466 360 OFFCURVE",
"462 362 OFFCURVE",
"457 362 CURVE SMOOTH"
);
}
);
width = 700;
}
);
unicode = 006E;
},
{
glyphname = o;
lastChange = "2013-04-17 21:19:57 +0200";
layers = (
{
layerId = "5D30703B-31DB-48F9-9EC6-DEC4C9CE33EC";
name = Regular;
paths = (
{
closed = 1;
nodes = (
"289 540 OFFCURVE",
"228 522 OFFCURVE",
"191 497 CURVE SMOOTH",
"154 472 OFFCURVE",
"123 442 OFFCURVE",
"110 422 CURVE SMOOTH",
"103 412 OFFCURVE",
"100 404 OFFCURVE",
"100 400 CURVE SMOOTH",
"100 396 OFFCURVE",
"103 388 OFFCURVE",
"110 378 CURVE SMOOTH",
"123 358 OFFCURVE",
"154 328 OFFCURVE",
"191 303 CURVE SMOOTH",
"228 278 OFFCURVE",
"289 260 OFFCURVE",
"350 260 CURVE SMOOTH",
"412 260 OFFCURVE",
"472 278 OFFCURVE",
"509 303 CURVE SMOOTH",
"546 328 OFFCURVE",
"576 358 OFFCURVE",
"590 378 CURVE",
"596 388 OFFCURVE",
"600 396 OFFCURVE",
"600 400 CURVE SMOOTH",
"600 404 OFFCURVE",
"596 412 OFFCURVE",
"590 422 CURVE",
"576 442 OFFCURVE",
"546 472 OFFCURVE",
"509 497 CURVE SMOOTH",
"472 522 OFFCURVE",
"412 540 OFFCURVE",
"350 540 CURVE SMOOTH"
);
},
{
closed = 1;
nodes = (
"412 508 OFFCURVE",
"461 459 OFFCURVE",
"461 400 CURVE SMOOTH",
"461 340 OFFCURVE",
"411 292 OFFCURVE",
"350 292 CURVE SMOOTH",
"287 292 OFFCURVE",
"238 340 OFFCURVE",
"238 400 CURVE SMOOTH",
"238 459 OFFCURVE",
"289 508 OFFCURVE",
"350 508 CURVE SMOOTH"
);
},
{
closed = 1;
nodes = (
"319 454 OFFCURVE",
"294 429 OFFCURVE",
"294 400 CURVE SMOOTH",
"294 385 OFFCURVE",
"300 373 OFFCURVE",
"311 362 CURVE SMOOTH",
"322 351 OFFCURVE",
"335 346 OFFCURVE",
"350 346 CURVE SMOOTH",
"381 346 OFFCURVE",
"405 371 OFFCURVE",
"405 400 CURVE SMOOTH",
"405 429 OFFCURVE",
"381 454 OFFCURVE",
"350 454 CURVE SMOOTH"
);
}
);
width = 700;
}
);
unicode = 006F;
},
{
glyphname = p;
lastChange = "2013-04-17 21:19:57 +0200";
layers = (
{
layerId = "5D30703B-31DB-48F9-9EC6-DEC4C9CE33EC";
name = Regular;
paths = (
{
closed = 1;
nodes = (
"154 587 LINE SMOOTH",
"138 587 OFFCURVE",
"126 574 OFFCURVE",
"126 559 CURVE SMOOTH",
"126 241 LINE SMOOTH",
"126 226 OFFCURVE",
"138 213 OFFCURVE",
"154 213 CURVE SMOOTH",
"547 213 LINE SMOOTH",
"563 213 OFFCURVE",
"574 226 OFFCURVE",
"574 241 CURVE SMOOTH",
"574 559 LINE SMOOTH",
"574 574 OFFCURVE",
"563 587 OFFCURVE",
"547 587 CURVE SMOOTH"
);
},
{
closed = 1;
nodes = (
"218 512 OFFCURVE",
"201 496 OFFCURVE",
"201 473 CURVE SMOOTH",
"201 454 OFFCURVE",
"218 437 OFFCURVE",
"239 437 CURVE SMOOTH",
"259 437 OFFCURVE",
"277 454 OFFCURVE",
"277 473 CURVE SMOOTH",
"277 496 OFFCURVE",
"259 512 OFFCURVE",
"239 512 CURVE SMOOTH"
);
},
{
closed = 1;
nodes = (
"314 363 LINE",
"268 402 LINE",
"201 313 LINE",
"201 288 LINE",
"500 288 LINE",
"500 390 LINE",
"400 493 LINE"
);
},
{
closed = 1;
nodes = (
"538 251 LINE",
"163 251 LINE",
"163 549 LINE",
"538 549 LINE"
);
}
);
width = 700;
}
);
unicode = 0070;
},
{
glyphname = q;
lastChange = "2013-04-17 21:19:57 +0200";
layers = (
{
layerId = "5D30703B-31DB-48F9-9EC6-DEC4C9CE33EC";
name = Regular;
paths = (
{
closed = 1;
nodes = (
"341 627 LINE SMOOTH",
"221 625 OFFCURVE",
"123 523 OFFCURVE",
"123 400 CURVE SMOOTH",
"123 273 OFFCURVE",
"227 173 OFFCURVE",
"344 173 CURVE SMOOTH",
"356 173 LINE SMOOTH",
"478 174 OFFCURVE",
"577 277 OFFCURVE",
"577 400 CURVE SMOOTH",
"577 406 LINE SMOOTH",
"573 529 OFFCURVE",
"472 627 OFFCURVE",
"347 627 CURVE SMOOTH"
);
},
{
closed = 1;
nodes = (
"369 327 OFFCURVE",
"379 315 OFFCURVE",
"379 294 CURVE",
"378 275 OFFCURVE",
"365 262 OFFCURVE",
"341 262 CURVE SMOOTH",
"340 262 LINE",
"324 264 OFFCURVE",
"312 277 OFFCURVE",
"312 293 CURVE SMOOTH",
"312 314 OFFCURVE",
"325 328 OFFCURVE",
"340 328 CURVE SMOOTH",
"341 328 LINE"
);
},
{
closed = 1;
nodes = (
"399 538 OFFCURVE",
"440 513 OFFCURVE",
"440 462 CURVE SMOOTH",
"440 431 OFFCURVE",
"430 425 OFFCURVE",
"400 398 CURVE",
"386 390 LINE SMOOTH",
"378 382 OFFCURVE",
"375 377 OFFCURVE",
"373 372 CURVE",
"371 366 OFFCURVE",
"370 360 OFFCURVE",
"370 357 CURVE SMOOTH",
"370 355 LINE",
"318 355 LINE",
"318 360 LINE",
"320 379 OFFCURVE",
"322 390 OFFCURVE",
"325 396 CURVE SMOOTH",
"327 401 OFFCURVE",
"330 408 OFFCURVE",
"334 410 CURVE SMOOTH",
"340 414 OFFCURVE",
"346 420 OFFCURVE",
"360 424 CURVE SMOOTH",
"361 428 LINE",
"366 430 LINE",
"374 434 OFFCURVE",
"382 448 OFFCURVE",
"382 459 CURVE SMOOTH",
"382 476 OFFCURVE",
"376 491 OFFCURVE",
"347 491 CURVE SMOOTH",
"324 492 OFFCURVE",
"314 472 OFFCURVE",
"314 453 CURVE SMOOTH",
"314 450 LINE",
"260 450 LINE",
"260 453 LINE",
"264 521 OFFCURVE",
"307 538 OFFCURVE",
"343 538 CURVE SMOOTH"
);
}
);
width = 700;
}
);
unicode = 0071;
},
{
glyphname = r;
lastChange = "2013-04-17 21:19:57 +0200";
layers = (
{
layerId = "5D30703B-31DB-48F9-9EC6-DEC4C9CE33EC";
name = Regular;
paths = (
{
closed = 1;
nodes = (
"429 611 OFFCURVE",
"397 579 OFFCURVE",
"397 541 CURVE SMOOTH",
"397 535 OFFCURVE",
"398 532 OFFCURVE",
"398 530 CURVE",
"275 455 LINE",
"263 466 OFFCURVE",
"249 470 OFFCURVE",
"233 470 CURVE SMOOTH",
"194 470 OFFCURVE",
"163 439 OFFCURVE",
"163 400 CURVE SMOOTH",
"163 380 OFFCURVE",
"169 364 OFFCURVE",
"184 350 CURVE SMOOTH",
"196 336 OFFCURVE",
"214 330 OFFCURVE",
"233 330 CURVE SMOOTH",
"248 330 OFFCURVE",
"262 334 OFFCURVE",
"275 344 CURVE",
"398 270 LINE",
"398 268 OFFCURVE",
"397 265 OFFCURVE",
"397 259 CURVE SMOOTH",
"397 220 OFFCURVE",
"429 189 OFFCURVE",
"467 189 CURVE SMOOTH",
"506 189 OFFCURVE",
"537 220 OFFCURVE",
"537 259 CURVE SMOOTH",
"537 278 OFFCURVE",
"531 295 OFFCURVE",
"517 309 CURVE SMOOTH",
"490 336 OFFCURVE",
"451 335 OFFCURVE",
"424 314 CURVE",
"302 390 LINE",
"302 390 OFFCURVE",
"303 395 OFFCURVE",
"303 401 CURVE SMOOTH",
"303 406 OFFCURVE",
"302 410 OFFCURVE",
"302 410 CURVE",
"424 484 LINE",
"438 475 OFFCURVE",
"452 470 OFFCURVE",
"467 470 CURVE SMOOTH",
"506 470 OFFCURVE",
"537 502 OFFCURVE",
"537 542 CURVE SMOOTH",
"537 580 OFFCURVE",
"506 611 OFFCURVE",
"467 611 CURVE SMOOTH"
);
}
);
width = 700;
}
);
unicode = 0072;
},
{
glyphname = s;
lastChange = "2013-04-17 21:19:57 +0200";
layers = (
{
layerId = "5D30703B-31DB-48F9-9EC6-DEC4C9CE33EC";
name = Regular;
paths = (
{
closed = 1;
nodes = (
"154 587 LINE SMOOTH",
"138 587 OFFCURVE",
"126 574 OFFCURVE",
"126 559 CURVE SMOOTH",
"126 241 LINE SMOOTH",
"126 226 OFFCURVE",
"138 213 OFFCURVE",
"154 213 CURVE SMOOTH",
"547 213 LINE SMOOTH",
"563 213 OFFCURVE",
"574 226 OFFCURVE",
"574 241 CURVE SMOOTH",
"574 559 LINE SMOOTH",
"574 574 OFFCURVE",
"563 587 OFFCURVE",
"547 587 CURVE SMOOTH"
);
},
{
closed = 1;
nodes = (
"273 442 LINE",
"270 439 OFFCURVE",
"266 438 OFFCURVE",
"259 438 CURVE SMOOTH",
"226 438 LINE SMOOTH",
"221 438 OFFCURVE",
"217 434 OFFCURVE",
"217 428 CURVE SMOOTH",
"217 364 LINE SMOOTH",
"217 358 OFFCURVE",
"221 355 OFFCURVE",
"226 355 CURVE SMOOTH",
"259 355 LINE SMOOTH",
"266 355 OFFCURVE",
"270 354 OFFCURVE",
"273 351 CURVE",
"365 295 LINE",
"365 294 OFFCURVE",
"366 294 OFFCURVE",
"366 294 CURVE SMOOTH",
"366 299 LINE",
"366 498 LINE SMOOTH",
"366 505 OFFCURVE",
"365 504 OFFCURVE",
"365 501 CURVE"
);
},
{
closed = 1;
nodes = (
"538 251 LINE",
"163 251 LINE",
"163 549 LINE",
"538 549 LINE"
);
},
{
closed = 1;
nodes = (
"381 409 LINE",
"385 407 OFFCURVE",
"386 406 OFFCURVE",
"386 397 CURVE SMOOTH",
"386 387 OFFCURVE",
"385 387 OFFCURVE",
"381 387 CURVE",
"392 372 LINE",
"406 386 OFFCURVE",
"406 407 OFFCURVE",
"392 421 CURVE"
);
},
{
closed = 1;
nodes = (
"413 442 LINE",
"426 430 OFFCURVE",
"432 416 OFFCURVE",
"432 397 CURVE SMOOTH",
"432 377 OFFCURVE",
"426 363 OFFCURVE",
"413 352 CURVE",
"424 341 LINE",
"440 356 OFFCURVE",
"448 374 OFFCURVE",
"448 397 CURVE SMOOTH",
"448 420 OFFCURVE",
"440 438 OFFCURVE",
"424 451 CURVE"
);
},
{
closed = 1;
nodes = (
"446 472 LINE",
"468 451 OFFCURVE",
"480 426 OFFCURVE",
"480 397 CURVE SMOOTH",
"480 367 OFFCURVE",
"468 342 OFFCURVE",
"446 320 CURVE",
"457 308 LINE",
"483 333 OFFCURVE",
"495 362 OFFCURVE",
"495 397 CURVE SMOOTH",
"495 430 OFFCURVE",
"483 459 OFFCURVE",
"457 484 CURVE"
);
}
);
width = 700;
}
);
unicode = 0073;
},
{
glyphname = t;
lastChange = "2013-04-17 21:19:57 +0200";
layers = (
{
layerId = "5D30703B-31DB-48F9-9EC6-DEC4C9CE33EC";
name = Regular;
paths = (
{
closed = 1;
nodes = (
"440 602 OFFCURVE",
"417 593 OFFCURVE",
"396 572 CURVE SMOOTH",
"376 553 OFFCURVE",
"340 518 OFFCURVE",
"287 465 CURVE SMOOTH",
"234 413 OFFCURVE",
"203 381 OFFCURVE",
"194 371 CURVE SMOOTH",
"148 319 OFFCURVE",
"153 265 OFFCURVE",
"189 227 CURVE SMOOTH",
"208 207 OFFCURVE",
"232 198 OFFCURVE",
"260 198 CURVE SMOOTH",
"287 198 OFFCURVE",
"312 210 OFFCURVE",
"334 232 CURVE SMOOTH",
"536 432 LINE SMOOTH",
"549 446 OFFCURVE",
"528 465 OFFCURVE",
"514 452 CURVE SMOOTH",
"314 251 LINE",
"275 217 OFFCURVE",
"235 220 OFFCURVE",
"210 248 CURVE SMOOTH",
"183 274 OFFCURVE",
"180 312 OFFCURVE",
"215 352 CURVE",
"416 553 LINE SMOOTH",
"442 579 OFFCURVE",
"481 567 OFFCURVE",
"490 536 CURVE",
"493 521 OFFCURVE",
"489 507 OFFCURVE",
"475 492 CURVE SMOOTH",
"283 301 LINE",
"276 293 OFFCURVE",
"270 290 OFFCURVE",
"264 290 CURVE SMOOTH",
"260 290 OFFCURVE",
"257 291 OFFCURVE",
"254 293 CURVE SMOOTH",
"248 299 OFFCURVE",
"250 308 OFFCURVE",
"263 319 CURVE SMOOTH",
"398 455 LINE SMOOTH",
"404 462 OFFCURVE",
"404 468 OFFCURVE",
"398 475 CURVE",
"392 483 OFFCURVE",
"385 483 OFFCURVE",
"378 475 CURVE SMOOTH",
"243 340 LINE SMOOTH",
"220 317 OFFCURVE",
"220 286 OFFCURVE",
"235 273 CURVE",
"244 264 OFFCURVE",
"254 261 OFFCURVE",
"268 263 CURVE",
"280 263 OFFCURVE",
"292 268 OFFCURVE",
"303 281 CURVE SMOOTH",
"496 472 LINE SMOOTH",
"516 494 OFFCURVE",
"523 518 OFFCURVE",
"516 544 CURVE SMOOTH",
"511 567 OFFCURVE",
"490 588 OFFCURVE",
"467 594 CURVE SMOOTH"
);
}
);
width = 700;
}
);
unicode = 0074;
},
{
glyphname = u;
lastChange = "2013-04-17 21:19:57 +0200";
layers = (
{
layerId = "5D30703B-31DB-48F9-9EC6-DEC4C9CE33EC";
name = Regular;
paths = (
{
closed = 1;
nodes = (
"288 624 OFFCURVE",
"235 602 OFFCURVE",
"192 558 CURVE SMOOTH",
"149 515 OFFCURVE",
"126 463 OFFCURVE",
"126 401 CURVE SMOOTH",
"126 277 OFFCURVE",
"226 178 OFFCURVE",
"350 177 CURVE SMOOTH",
"474 178 OFFCURVE",
"573 277 OFFCURVE",
"574 401 CURVE SMOOTH",
"573 525 OFFCURVE",
"474 624 OFFCURVE",
"350 624 CURVE SMOOTH"
);
},
{
closed = 1;
nodes = (
"369 465 OFFCURVE",
"382 459 OFFCURVE",
"396 447 CURVE",
"408 433 OFFCURVE",
"414 420 OFFCURVE",
"415 401 CURVE",
"414 382 OFFCURVE",
"408 368 OFFCURVE",
"396 355 CURVE SMOOTH",
"382 342 OFFCURVE",
"369 336 OFFCURVE",
"350 336 CURVE SMOOTH",
"331 336 OFFCURVE",
"317 342 OFFCURVE",
"304 355 CURVE SMOOTH",
"291 368 OFFCURVE",
"285 382 OFFCURVE",
"285 401 CURVE SMOOTH",
"285 437 OFFCURVE",
"314 465 OFFCURVE",
"350 465 CURVE SMOOTH"
);
},
{
closed = 1;
nodes = (
"315 526 OFFCURVE",
"286 513 OFFCURVE",
"262 489 CURVE",
"261 489 LINE",
"237 465 OFFCURVE",
"224 435 OFFCURVE",
"225 401 CURVE SMOOTH",
"225 331 OFFCURVE",
"280 276 OFFCURVE",
"350 276 CURVE SMOOTH",
"419 276 OFFCURVE",
"475 331 OFFCURVE",
"475 401 CURVE SMOOTH",
"475 435 OFFCURVE",
"462 465 OFFCURVE",
"438 489 CURVE SMOOTH",
"414 513 OFFCURVE",
"384 526 OFFCURVE",
"350 526 CURVE SMOOTH"
);
},
{
closed = 1;
nodes = (
"396 565 OFFCURVE",
"434 549 OFFCURVE",
"465 516 CURVE SMOOTH",
"498 485 OFFCURVE",
"514 447 OFFCURVE",
"514 401 CURVE SMOOTH",
"514 311 OFFCURVE",
"440 237 OFFCURVE",
"350 237 CURVE SMOOTH",
"260 237 OFFCURVE",
"186 311 OFFCURVE",
"186 401 CURVE SMOOTH",
"186 491 OFFCURVE",
"260 565 OFFCURVE",
"350 565 CURVE SMOOTH"
);
},
{
closed = 1;
nodes = (
"331 433 OFFCURVE",
"318 420 OFFCURVE",
"318 401 CURVE SMOOTH",
"318 382 OFFCURVE",
"331 369 OFFCURVE",
"350 369 CURVE SMOOTH",
"369 369 OFFCURVE",
"382 382 OFFCURVE",
"382 401 CURVE SMOOTH",
"382 411 OFFCURVE",
"379 418 OFFCURVE",
"374 425 CURVE",
"367 430 OFFCURVE",
"360 433 OFFCURVE",
"350 433 CURVE SMOOTH"
);
}
);
width = 700;
}
);
unicode = 0075;
},
{
glyphname = v;
lastChange = "2013-04-17 21:19:57 +0200";
layers = (
{
layerId = "5D30703B-31DB-48F9-9EC6-DEC4C9CE33EC";
name = Regular;
paths = (
{
closed = 1;
nodes = (
"131 583 LINE SMOOTH",
"115 583 OFFCURVE",
"106 574 OFFCURVE",
"106 558 CURVE SMOOTH",
"106 242 LINE SMOOTH",
"106 226 OFFCURVE",
"115 217 OFFCURVE",
"131 217 CURVE SMOOTH",
"529 217 LINE SMOOTH",
"545 217 OFFCURVE",
"554 226 OFFCURVE",
"554 242 CURVE SMOOTH",
"554 558 LINE SMOOTH",
"554 574 OFFCURVE",
"545 583 OFFCURVE",
"529 583 CURVE SMOOTH"
);
},
{
closed = 1;
nodes = (
"187 248 LINE",
"137 248 LINE",
"137 298 LINE",
"187 298 LINE"
);
},
{
closed = 1;
nodes = (
"187 334 LINE",
"137 334 LINE",
"137 386 LINE",
"187 386 LINE"
);
},
{
closed = 1;
nodes = (
"187 418 LINE",
"137 418 LINE",
"137 470 LINE",
"187 470 LINE"
);
},
{
closed = 1;
nodes = (
"187 502 LINE",
"137 502 LINE",
"137 552 LINE",
"187 552 LINE"
);
},
{
closed = 1;
nodes = (
"442 248 LINE",
"218 248 LINE",
"218 552 LINE",
"442 552 LINE"
);
},
{
closed = 1;
nodes = (
"287 485 OFFCURVE",
"279 481 OFFCURVE",
"279 468 CURVE SMOOTH",
"279 332 LINE SMOOTH",
"279 319 OFFCURVE",
"287 315 OFFCURVE",
"297 323 CURVE SMOOTH",
"387 389 LINE SMOOTH",
"396 396 OFFCURVE",
"396 404 OFFCURVE",
"387 411 CURVE SMOOTH",
"297 477 LINE SMOOTH"
);
},
{
closed = 1;
nodes = (
"523 248 LINE",
"473 248 LINE",
"473 298 LINE",
"523 298 LINE"
);
},
{
closed = 1;
nodes = (
"523 334 LINE",
"473 334 LINE",
"473 386 LINE",
"523 386 LINE"
);
},
{
closed = 1;
nodes = (
"523 418 LINE",
"473 418 LINE",
"473 470 LINE",
"523 470 LINE"
);
},
{
closed = 1;
nodes = (
"523 502 LINE",
"473 502 LINE",
"473 552 LINE",
"523 552 LINE"
);
}
);
width = 700;
}
);
unicode = 0076;
},
{
glyphname = w;
lastChange = "2013-04-17 21:19:57 +0200";
layers = (
{
layerId = "5D30703B-31DB-48F9-9EC6-DEC4C9CE33EC";
name = Regular;
paths = (
{
closed = 1;
nodes = (
"208 384 LINE",
"66 384 LINE",
"66 357 LINE",
"233 357 LINE",
"258 509 LINE",
"377 175 LINE",
"436 453 LINE",
"471 357 LINE",
"634 357 LINE",
"634 384 LINE",
"492 384 LINE",
"428 564 LINE",
"370 287 LINE",
"248 625 LINE"
);
}
);
width = 700;
}
);
unicode = 0077;
},
{
glyphname = x;
lastChange = "2013-04-17 21:19:57 +0200";
layers = (
{
layerId = "5D30703B-31DB-48F9-9EC6-DEC4C9CE33EC";
name = Regular;
paths = (
{
closed = 1;
nodes = (
"228 620 OFFCURVE",
"130 522 OFFCURVE",
"130 400 CURVE SMOOTH",
"130 339 OFFCURVE",
"151 288 OFFCURVE",
"194 245 CURVE SMOOTH",
"237 202 OFFCURVE",
"289 180 OFFCURVE",
"350 180 CURVE SMOOTH",
"472 180 OFFCURVE",
"570 278 OFFCURVE",
"570 400 CURVE SMOOTH",
"570 522 OFFCURVE",
"472 620 OFFCURVE",
"350 620 CURVE SMOOTH"
);
},
{
closed = 1;
nodes = (
"470 486 LINE SMOOTH",
"473 482 OFFCURVE",
"473 478 OFFCURVE",
"470 475 CURVE SMOOTH",
"401 405 LINE SMOOTH",
"397 402 OFFCURVE",
"397 398 OFFCURVE",
"401 395 CURVE SMOOTH",
"470 324 LINE SMOOTH",
"473 321 OFFCURVE",
"473 317 OFFCURVE",
"470 314 CURVE SMOOTH",
"435 279 LINE SMOOTH",
"432 276 OFFCURVE",
"428 276 OFFCURVE",
"425 279 CURVE SMOOTH",
"355 350 LINE SMOOTH",
"352 353 OFFCURVE",
"347 353 OFFCURVE",
"344 350 CURVE SMOOTH",
"275 279 LINE SMOOTH",
"272 276 OFFCURVE",
"267 276 OFFCURVE",
"264 279 CURVE SMOOTH",
"230 314 LINE SMOOTH",
"226 317 OFFCURVE",
"226 321 OFFCURVE",
"230 324 CURVE SMOOTH",
"298 395 LINE SMOOTH",
"302 398 OFFCURVE",
"302 402 OFFCURVE",
"298 405 CURVE SMOOTH",
"230 475 LINE SMOOTH",
"226 478 OFFCURVE",
"226 482 OFFCURVE",
"229 486 CURVE SMOOTH",
"264 521 LINE SMOOTH",
"267 524 OFFCURVE",
"272 524 OFFCURVE",
"275 521 CURVE SMOOTH",
"344 450 LINE SMOOTH",
"347 447 OFFCURVE",
"352 447 OFFCURVE",
"355 450 CURVE SMOOTH",
"425 521 LINE SMOOTH",
"428 524 OFFCURVE",
"432 524 OFFCURVE",
"435 521 CURVE SMOOTH"
);
}
);
width = 700;
}
);
unicode = 0078;
},
{
glyphname = y;
lastChange = "2013-04-17 21:19:57 +0200";
layers = (
{
layerId = "5D30703B-31DB-48F9-9EC6-DEC4C9CE33EC";
name = Regular;
paths = (
{
closed = 1;
nodes = (
"106 600 OFFCURVE",
"50 544 OFFCURVE",
"50 475 CURVE SMOOTH",
"50 431 OFFCURVE",
"72 370 OFFCURVE",
"94 327 CURVE SMOOTH",
"115 284 OFFCURVE",
"150 233 OFFCURVE",
"162 217 CURVE SMOOTH",
"167 210 OFFCURVE",
"171 204 OFFCURVE",
"175 200 CURVE",
"191 222 LINE SMOOTH",
"264 322 OFFCURVE",
"300 406 OFFCURVE",
"300 475 CURVE SMOOTH",
"300 544 OFFCURVE",
"245 600 OFFCURVE",
"175 600 CURVE SMOOTH"
);
},
{
closed = 1;
nodes = (
"212 541 OFFCURVE",
"242 510 OFFCURVE",
"242 473 CURVE SMOOTH",
"242 436 OFFCURVE",
"212 406 OFFCURVE",
"175 406 CURVE SMOOTH",
"138 406 OFFCURVE",
"107 436 OFFCURVE",
"107 473 CURVE SMOOTH",
"107 512 OFFCURVE",
"136 541 OFFCURVE",
"175 541 CURVE SMOOTH"
);
}
);
width = 350;
}
);
unicode = 0079;
},
{
glyphname = z;
lastChange = "2013-04-17 21:19:57 +0200";
layers = (
{
layerId = "5D30703B-31DB-48F9-9EC6-DEC4C9CE33EC";
name = Regular;
paths = (
{
closed = 1;
nodes = (
"258 636 OFFCURVE",
"154 533 OFFCURVE",
"151 405 CURVE",
"82 405 LINE",
"186 289 LINE",
"291 405 LINE",
"209 405 LINE",
"212 500 OFFCURVE",
"291 577 OFFCURVE",
"386 577 CURVE SMOOTH",
"484 577 OFFCURVE",
"560 498 OFFCURVE",
"560 400 CURVE SMOOTH",
"560 302 OFFCURVE",
"484 223 OFFCURVE",
"386 223 CURVE SMOOTH",
"347 223 OFFCURVE",
"312 235 OFFCURVE",
"282 257 CURVE",
"241 214 LINE",
"284 181 OFFCURVE",
"332 164 OFFCURVE",
"386 164 CURVE SMOOTH",
"514 164 OFFCURVE",
"619 269 OFFCURVE",
"619 400 CURVE SMOOTH",
"619 531 OFFCURVE",
"514 636 OFFCURVE",
"386 636 CURVE SMOOTH"
);
},
{
closed = 1;
nodes = (
"367 530 LINE",
"367 393 LINE",
"452 308 LINE",
"477 332 LINE",
"402 407 LINE",
"402 530 LINE"
);
}
);
width = 700;
}
);
unicode = 007A;
},
{
glyphname = uniAC00;
lastChange = "2013-04-17 21:53:35 +0200";
layers = (
{
layerId = "5D30703B-31DB-48F9-9EC6-DEC4C9CE33EC";
name = Regular;
paths = (
{
closed = 1;
nodes = (
"187 625 OFFCURVE",
"160 615 OFFCURVE",
"145 596 CURVE SMOOTH",
"129 575 OFFCURVE",
"124 557 OFFCURVE",
"124 541 CURVE SMOOTH",
"124 526 OFFCURVE",
"128 511 OFFCURVE",
"131 495 CURVE",
"128 494 LINE",
"125 491 OFFCURVE",
"121 484 OFFCURVE",
"121 474 CURVE",
"123 458 OFFCURVE",
"126 448 OFFCURVE",
"134 444 CURVE SMOOTH",
"141 440 OFFCURVE",
"145 436 OFFCURVE",
"145 432 CURVE SMOOTH",
"147 416 OFFCURVE",
"153 403 OFFCURVE",
"161 395 CURVE SMOOTH",
"168 387 OFFCURVE",
"172 379 OFFCURVE",
"172 371 CURVE SMOOTH",
"172 330 OFFCURVE",
"152 312 OFFCURVE",
"90 289 CURVE SMOOTH",
"88 289 OFFCURVE",
"83 287 OFFCURVE",
"73 284 CURVE",
"63 280 OFFCURVE",
"56 277 OFFCURVE",
"50 275 CURVE",
"50 175 LINE",
"450 175 LINE",
"450 228 LINE SMOOTH",
"450 246 OFFCURVE",
"419 266 OFFCURVE",
"359 289 CURVE SMOOTH",
"296 311 OFFCURVE",
"277 330 OFFCURVE",
"277 371 CURVE SMOOTH",
"277 379 OFFCURVE",
"281 386 OFFCURVE",
"289 395 CURVE SMOOTH",
"296 404 OFFCURVE",
"302 416 OFFCURVE",
"304 432 CURVE SMOOTH",
"305 436 OFFCURVE",
"309 440 OFFCURVE",
"316 444 CURVE SMOOTH",
"323 448 OFFCURVE",
"327 458 OFFCURVE",
"328 474 CURVE",
"328 485 OFFCURVE",
"324 493 OFFCURVE",
"318 495 CURVE",
"325 539 LINE",
"328 575 OFFCURVE",
"300 625 OFFCURVE",
"225 625 CURVE SMOOTH"
);
},
{
closed = 1;
nodes = (
"425 500 LINE",
"425 425 LINE",
"350 425 LINE",
"350 375 LINE",
"425 375 LINE",
"425 300 LINE",
"475 300 LINE",
"475 375 LINE",
"550 375 LINE",
"550 425 LINE",
"475 425 LINE",
"475 500 LINE"
);
}
);
width = 600;
}
);
unicode = AC00;
},
{
glyphname = uniAC01;
lastChange = "2013-04-17 21:53:44 +0200";
layers = (
{
layerId = "5D30703B-31DB-48F9-9EC6-DEC4C9CE33EC";
name = Regular;
paths = (
{
closed = 1;
nodes = (
"187 625 OFFCURVE",
"160 615 OFFCURVE",
"145 596 CURVE SMOOTH",
"129 575 OFFCURVE",
"124 557 OFFCURVE",
"124 541 CURVE SMOOTH",
"124 526 OFFCURVE",
"128 511 OFFCURVE",
"131 495 CURVE",
"128 494 LINE",
"125 491 OFFCURVE",
"121 484 OFFCURVE",
"121 474 CURVE",
"123 458 OFFCURVE",
"126 448 OFFCURVE",
"134 444 CURVE SMOOTH",
"141 440 OFFCURVE",
"145 436 OFFCURVE",
"145 432 CURVE SMOOTH",
"147 416 OFFCURVE",
"153 403 OFFCURVE",
"161 395 CURVE SMOOTH",
"168 387 OFFCURVE",
"172 379 OFFCURVE",
"172 371 CURVE SMOOTH",
"172 330 OFFCURVE",
"152 312 OFFCURVE",
"90 289 CURVE SMOOTH",
"88 289 OFFCURVE",
"83 287 OFFCURVE",
"73 284 CURVE",
"63 280 OFFCURVE",
"56 277 OFFCURVE",
"50 275 CURVE",
"50 175 LINE",
"450 175 LINE",
"450 228 LINE SMOOTH",
"450 246 OFFCURVE",
"419 266 OFFCURVE",
"359 289 CURVE SMOOTH",
"296 311 OFFCURVE",
"277 330 OFFCURVE",
"277 371 CURVE SMOOTH",
"277 379 OFFCURVE",
"281 386 OFFCURVE",
"289 395 CURVE SMOOTH",
"296 404 OFFCURVE",
"302 416 OFFCURVE",
"304 432 CURVE SMOOTH",
"305 436 OFFCURVE",
"309 440 OFFCURVE",
"316 444 CURVE SMOOTH",
"323 448 OFFCURVE",
"327 458 OFFCURVE",
"328 474 CURVE",
"328 485 OFFCURVE",
"324 493 OFFCURVE",
"318 495 CURVE",
"325 539 LINE",
"328 575 OFFCURVE",
"300 625 OFFCURVE",
"225 625 CURVE SMOOTH"
);
},
{
closed = 1;
nodes = (
"350 425 LINE",
"350 375 LINE",
"550 375 LINE",
"550 425 LINE"
);
}
);
width = 600;
}
);
unicode = AC01;
},
{
glyphname = uniAC02;
lastChange = "2013-04-17 21:53:50 +0200";
layers = (
{
background = {
paths = (
{
closed = 1;
nodes = (
"187 474 OFFCURVE",
"160 464 OFFCURVE",
"145 445 CURVE SMOOTH",
"129 424 OFFCURVE",
"124 406 OFFCURVE",
"124 390 CURVE SMOOTH",
"124 375 OFFCURVE",
"128 360 OFFCURVE",
"131 344 CURVE",
"128 343 LINE",
"125 340 OFFCURVE",
"121 333 OFFCURVE",
"121 323 CURVE",
"123 307 OFFCURVE",
"126 297 OFFCURVE",
"134 293 CURVE SMOOTH",
"141 289 OFFCURVE",
"145 285 OFFCURVE",
"145 281 CURVE SMOOTH",
"147 265 OFFCURVE",
"153 252 OFFCURVE",
"161 244 CURVE SMOOTH",
"168 236 OFFCURVE",
"172 228 OFFCURVE",
"172 220 CURVE SMOOTH",
"172 179 OFFCURVE",
"152 161 OFFCURVE",
"90 138 CURVE SMOOTH",
"88 138 OFFCURVE",
"83 136 OFFCURVE",
"73 133 CURVE",
"63 129 OFFCURVE",
"56 126 OFFCURVE",
"50 124 CURVE",
"50 24 LINE",
"450 24 LINE",
"450 77 LINE SMOOTH",
"450 95 OFFCURVE",
"419 115 OFFCURVE",
"359 138 CURVE SMOOTH",
"296 160 OFFCURVE",
"277 179 OFFCURVE",
"277 220 CURVE SMOOTH",
"277 228 OFFCURVE",
"281 235 OFFCURVE",
"289 244 CURVE SMOOTH",
"296 253 OFFCURVE",
"302 265 OFFCURVE",
"304 281 CURVE SMOOTH",
"305 285 OFFCURVE",
"309 289 OFFCURVE",
"316 293 CURVE SMOOTH",
"323 297 OFFCURVE",
"327 307 OFFCURVE",
"328 323 CURVE",
"328 334 OFFCURVE",
"324 342 OFFCURVE",
"318 344 CURVE",
"325 388 LINE",
"328 424 OFFCURVE",
"300 474 OFFCURVE",
"225 474 CURVE SMOOTH"
);
},
{
closed = 1;
nodes = (
"849 349 LINE",
"849 274 LINE",
"774 274 LINE",
"774 224 LINE",
"849 224 LINE",
"849 149 LINE",
"899 149 LINE",
"899 224 LINE",
"974 224 LINE",
"974 274 LINE",
"899 274 LINE",
"899 349 LINE"
);
},
{
closed = 1;
nodes = (
"394 376 OFFCURVE",
"374 369 OFFCURVE",
"362 354 CURVE SMOOTH",
"349 337 OFFCURVE",
"345 323 OFFCURVE",
"345 311 CURVE SMOOTH",
"345 298 OFFCURVE",
"348 287 OFFCURVE",
"351 274 CURVE",
"348 274 LINE",
"346 271 OFFCURVE",
"343 266 OFFCURVE",
"343 258 CURVE",
"344 245 OFFCURVE",
"347 237 OFFCURVE",
"353 234 CURVE SMOOTH",
"358 231 OFFCURVE",
"362 229 OFFCURVE",
"362 225 CURVE SMOOTH",
"364 213 OFFCURVE",
"368 203 OFFCURVE",
"374 195 CURVE SMOOTH",
"380 189 OFFCURVE",
"383 184 OFFCURVE",
"383 177 CURVE SMOOTH",
"383 145 OFFCURVE",
"368 131 OFFCURVE",
"318 113 CURVE SMOOTH",
"317 113 OFFCURVE",
"314 111 OFFCURVE",
"306 109 CURVE",
"297 106 OFFCURVE",
"292 104 OFFCURVE",
"287 102 CURVE",
"287 24 LINE",
"601 24 LINE",
"601 65 LINE SMOOTH",
"601 80 OFFCURVE",
"577 95 OFFCURVE",
"529 113 CURVE SMOOTH",
"481 130 OFFCURVE",
"465 146 OFFCURVE",
"465 177 CURVE SMOOTH",
"465 184 OFFCURVE",
"468 189 OFFCURVE",
"474 195 CURVE SMOOTH",
"481 204 OFFCURVE",
"484 213 OFFCURVE",
"486 225 CURVE SMOOTH",
"487 229 OFFCURVE",
"491 231 OFFCURVE",
"496 234 CURVE SMOOTH",
"501 238 OFFCURVE",
"504 245 OFFCURVE",
"505 258 CURVE",
"505 267 OFFCURVE",
"501 273 OFFCURVE",
"498 274 CURVE",
"502 309 LINE",
"505 337 OFFCURVE",
"482 376 OFFCURVE",
"424 376 CURVE SMOOTH"
);
}
);
};
layerId = "5D30703B-31DB-48F9-9EC6-DEC4C9CE33EC";
name = Regular;
paths = (
{
closed = 1;
nodes = (
"186 625 OFFCURVE",
"159 615 OFFCURVE",
"144 596 CURVE SMOOTH",
"128 575 OFFCURVE",
"123 557 OFFCURVE",
"123 541 CURVE SMOOTH",
"123 526 OFFCURVE",
"127 511 OFFCURVE",
"130 495 CURVE",
"127 494 LINE",
"125 491 OFFCURVE",
"120 484 OFFCURVE",
"120 474 CURVE",
"122 458 OFFCURVE",
"125 448 OFFCURVE",
"133 444 CURVE SMOOTH",
"140 440 OFFCURVE",
"144 436 OFFCURVE",
"144 432 CURVE SMOOTH",
"146 416 OFFCURVE",
"152 403 OFFCURVE",
"160 395 CURVE SMOOTH",
"167 387 OFFCURVE",
"171 379 OFFCURVE",
"171 371 CURVE SMOOTH",
"171 330 OFFCURVE",
"151 312 OFFCURVE",
"89 289 CURVE SMOOTH",
"87 289 OFFCURVE",
"82 287 OFFCURVE",
"72 284 CURVE",
"63 280 OFFCURVE",
"55 277 OFFCURVE",
"49 275 CURVE",
"49 175 LINE",
"449 175 LINE",
"449 228 LINE SMOOTH",
"449 246 OFFCURVE",
"418 266 OFFCURVE",
"358 289 CURVE SMOOTH",
"295 311 OFFCURVE",
"276 330 OFFCURVE",
"276 371 CURVE SMOOTH",
"276 379 OFFCURVE",
"280 386 OFFCURVE",
"288 395 CURVE SMOOTH",
"295 404 OFFCURVE",
"301 416 OFFCURVE",
"303 432 CURVE SMOOTH",
"304 436 OFFCURVE",
"308 440 OFFCURVE",
"315 444 CURVE SMOOTH",
"322 448 OFFCURVE",
"326 458 OFFCURVE",
"327 474 CURVE",
"327 485 OFFCURVE",
"323 493 OFFCURVE",
"317 495 CURVE",
"324 539 LINE",
"327 575 OFFCURVE",
"299 625 OFFCURVE",
"224 625 CURVE SMOOTH"
);
},
{
closed = 1;
nodes = (
"422 527 OFFCURVE",
"402 520 OFFCURVE",
"390 505 CURVE SMOOTH",
"377 488 OFFCURVE",
"374 474 OFFCURVE",
"374 462 CURVE SMOOTH",
"374 449 OFFCURVE",
"376 438 OFFCURVE",
"379 425 CURVE",
"376 425 LINE",
"375 422 OFFCURVE",
"372 417 OFFCURVE",
"372 409 CURVE",
"373 396 OFFCURVE",
"375 388 OFFCURVE",
"381 385 CURVE SMOOTH",
"387 382 OFFCURVE",
"390 380 OFFCURVE",
"390 376 CURVE",
"392 364 OFFCURVE",
"396 354 OFFCURVE",
"402 346 CURVE",
"408 340 OFFCURVE",
"411 335 OFFCURVE",
"411 328 CURVE SMOOTH",
"411 310 OFFCURVE",
"408 305 OFFCURVE",
"402 297 CURVE",
"457 276 OFFCURVE",
"479 246 OFFCURVE",
"479 228 CURVE SMOOTH",
"479 175 LINE",
"629 175 LINE",
"629 216 LINE SMOOTH",
"629 231 OFFCURVE",
"605 246 OFFCURVE",
"558 264 CURVE SMOOTH",
"509 281 OFFCURVE",
"493 297 OFFCURVE",
"493 328 CURVE SMOOTH",
"493 335 OFFCURVE",
"496 340 OFFCURVE",
"502 346 CURVE SMOOTH",
"509 355 OFFCURVE",
"512 364 OFFCURVE",
"515 376 CURVE",
"515 380 OFFCURVE",
"519 382 OFFCURVE",
"524 385 CURVE SMOOTH",
"529 389 OFFCURVE",
"532 396 OFFCURVE",
"534 409 CURVE",
"533 418 OFFCURVE",
"530 424 OFFCURVE",
"526 425 CURVE",
"531 460 LINE",
"533 488 OFFCURVE",
"511 527 OFFCURVE",
"453 527 CURVE SMOOTH"
);
},
{
closed = 1;
nodes = (
"672 500 LINE",
"672 425 LINE",
"597 425 LINE",
"597 375 LINE",
"672 375 LINE",
"672 300 LINE",
"722 300 LINE",
"722 375 LINE",
"797 375 LINE",
"797 425 LINE",
"722 425 LINE",
"722 500 LINE"
);
}
);
width = 846;
}
);
unicode = AC02;
},
{
glyphname = uniAC03;
lastChange = "2013-04-17 21:53:56 +0200";
layers = (
{
background = {
paths = (
{
closed = 1;
nodes = (
"187 474 OFFCURVE",
"160 464 OFFCURVE",
"145 445 CURVE SMOOTH",
"129 424 OFFCURVE",
"124 406 OFFCURVE",
"124 390 CURVE SMOOTH",
"124 375 OFFCURVE",
"128 360 OFFCURVE",
"131 344 CURVE",
"128 343 LINE",
"125 340 OFFCURVE",
"121 333 OFFCURVE",
"121 323 CURVE",
"123 307 OFFCURVE",
"126 297 OFFCURVE",
"134 293 CURVE SMOOTH",
"141 289 OFFCURVE",
"145 285 OFFCURVE",
"145 281 CURVE SMOOTH",
"147 265 OFFCURVE",
"153 252 OFFCURVE",
"161 244 CURVE SMOOTH",
"168 236 OFFCURVE",
"172 228 OFFCURVE",
"172 220 CURVE SMOOTH",
"172 179 OFFCURVE",
"152 161 OFFCURVE",
"90 138 CURVE SMOOTH",
"88 138 OFFCURVE",
"83 136 OFFCURVE",
"73 133 CURVE",
"63 129 OFFCURVE",
"56 126 OFFCURVE",
"50 124 CURVE",
"50 24 LINE",
"450 24 LINE",
"450 77 LINE SMOOTH",
"450 95 OFFCURVE",
"419 115 OFFCURVE",
"359 138 CURVE SMOOTH",
"296 160 OFFCURVE",
"277 179 OFFCURVE",
"277 220 CURVE SMOOTH",
"277 228 OFFCURVE",
"281 235 OFFCURVE",
"289 244 CURVE SMOOTH",
"296 253 OFFCURVE",
"302 265 OFFCURVE",
"304 281 CURVE SMOOTH",
"305 285 OFFCURVE",
"309 289 OFFCURVE",
"316 293 CURVE SMOOTH",
"323 297 OFFCURVE",
"327 307 OFFCURVE",
"328 323 CURVE",
"328 334 OFFCURVE",
"324 342 OFFCURVE",
"318 344 CURVE",
"325 388 LINE",
"328 424 OFFCURVE",
"300 474 OFFCURVE",
"225 474 CURVE SMOOTH"
);
},
{
closed = 1;
nodes = (
"849 349 LINE",
"849 274 LINE",
"774 274 LINE",
"774 224 LINE",
"849 224 LINE",
"849 149 LINE",
"899 149 LINE",
"899 224 LINE",
"974 224 LINE",
"974 274 LINE",
"899 274 LINE",
"899 349 LINE"
);
},
{
closed = 1;
nodes = (
"394 376 OFFCURVE",
"374 369 OFFCURVE",
"362 354 CURVE SMOOTH",
"349 337 OFFCURVE",
"345 323 OFFCURVE",
"345 311 CURVE SMOOTH",
"345 298 OFFCURVE",
"348 287 OFFCURVE",
"351 274 CURVE",
"348 274 LINE",
"346 271 OFFCURVE",
"343 266 OFFCURVE",
"343 258 CURVE",
"344 245 OFFCURVE",
"347 237 OFFCURVE",
"353 234 CURVE SMOOTH",
"358 231 OFFCURVE",
"362 229 OFFCURVE",
"362 225 CURVE SMOOTH",
"364 213 OFFCURVE",
"368 203 OFFCURVE",
"374 195 CURVE SMOOTH",
"380 189 OFFCURVE",
"383 184 OFFCURVE",
"383 177 CURVE SMOOTH",
"383 145 OFFCURVE",
"368 131 OFFCURVE",
"318 113 CURVE SMOOTH",
"317 113 OFFCURVE",
"314 111 OFFCURVE",
"306 109 CURVE",
"297 106 OFFCURVE",
"292 104 OFFCURVE",
"287 102 CURVE",
"287 24 LINE",
"601 24 LINE",
"601 65 LINE SMOOTH",
"601 80 OFFCURVE",
"577 95 OFFCURVE",
"529 113 CURVE SMOOTH",
"481 130 OFFCURVE",
"465 146 OFFCURVE",
"465 177 CURVE SMOOTH",
"465 184 OFFCURVE",
"468 189 OFFCURVE",
"474 195 CURVE SMOOTH",
"481 204 OFFCURVE",
"484 213 OFFCURVE",
"486 225 CURVE SMOOTH",
"487 229 OFFCURVE",
"491 231 OFFCURVE",
"496 234 CURVE SMOOTH",
"501 238 OFFCURVE",
"504 245 OFFCURVE",
"505 258 CURVE",
"505 267 OFFCURVE",
"501 273 OFFCURVE",
"498 274 CURVE",
"502 309 LINE",
"505 337 OFFCURVE",
"482 376 OFFCURVE",
"424 376 CURVE SMOOTH"
);
}
);
};
layerId = "5D30703B-31DB-48F9-9EC6-DEC4C9CE33EC";
name = Regular;
paths = (
{
closed = 1;
nodes = (
"186 625 OFFCURVE",
"159 615 OFFCURVE",
"144 596 CURVE SMOOTH",
"128 575 OFFCURVE",
"123 557 OFFCURVE",
"123 541 CURVE SMOOTH",
"123 526 OFFCURVE",
"127 511 OFFCURVE",
"130 495 CURVE",
"127 494 LINE",
"125 491 OFFCURVE",
"120 484 OFFCURVE",
"120 474 CURVE",
"122 458 OFFCURVE",
"125 448 OFFCURVE",
"133 444 CURVE SMOOTH",
"140 440 OFFCURVE",
"144 436 OFFCURVE",
"144 432 CURVE SMOOTH",
"146 416 OFFCURVE",
"152 403 OFFCURVE",
"160 395 CURVE SMOOTH",
"167 387 OFFCURVE",
"171 379 OFFCURVE",
"171 371 CURVE SMOOTH",
"171 330 OFFCURVE",
"151 312 OFFCURVE",
"89 289 CURVE SMOOTH",
"87 289 OFFCURVE",
"82 287 OFFCURVE",
"72 284 CURVE",
"63 280 OFFCURVE",
"55 277 OFFCURVE",
"49 275 CURVE",
"49 175 LINE",
"449 175 LINE",
"449 228 LINE SMOOTH",
"449 246 OFFCURVE",
"418 266 OFFCURVE",
"358 289 CURVE SMOOTH",
"295 311 OFFCURVE",
"276 330 OFFCURVE",
"276 371 CURVE SMOOTH",
"276 379 OFFCURVE",
"280 386 OFFCURVE",
"288 395 CURVE SMOOTH",
"295 404 OFFCURVE",
"301 416 OFFCURVE",
"303 432 CURVE SMOOTH",
"304 436 OFFCURVE",
"308 440 OFFCURVE",
"315 444 CURVE SMOOTH",
"322 448 OFFCURVE",
"326 458 OFFCURVE",
"327 474 CURVE",
"327 485 OFFCURVE",
"323 493 OFFCURVE",
"317 495 CURVE",
"324 539 LINE",
"327 575 OFFCURVE",
"299 625 OFFCURVE",
"224 625 CURVE SMOOTH"
);
},
{
closed = 1;
nodes = (
"422 527 OFFCURVE",
"402 520 OFFCURVE",
"390 505 CURVE SMOOTH",
"377 488 OFFCURVE",
"374 474 OFFCURVE",
"374 462 CURVE SMOOTH",
"374 449 OFFCURVE",
"376 438 OFFCURVE",
"379 425 CURVE",
"376 425 LINE",
"375 422 OFFCURVE",
"372 417 OFFCURVE",
"372 409 CURVE",
"373 396 OFFCURVE",
"375 388 OFFCURVE",
"381 385 CURVE SMOOTH",
"387 382 OFFCURVE",
"390 380 OFFCURVE",
"390 376 CURVE",
"392 364 OFFCURVE",
"396 354 OFFCURVE",
"402 346 CURVE",
"408 340 OFFCURVE",
"411 335 OFFCURVE",
"411 328 CURVE SMOOTH",
"411 310 OFFCURVE",
"408 305 OFFCURVE",
"402 297 CURVE",
"457 276 OFFCURVE",
"479 246 OFFCURVE",
"479 228 CURVE SMOOTH",
"479 175 LINE",
"629 175 LINE",
"629 216 LINE SMOOTH",
"629 231 OFFCURVE",
"605 246 OFFCURVE",
"558 264 CURVE SMOOTH",
"509 281 OFFCURVE",
"493 297 OFFCURVE",
"493 328 CURVE SMOOTH",
"493 335 OFFCURVE",
"496 340 OFFCURVE",
"502 346 CURVE SMOOTH",
"509 355 OFFCURVE",
"512 364 OFFCURVE",
"515 376 CURVE",
"515 380 OFFCURVE",
"519 382 OFFCURVE",
"524 385 CURVE SMOOTH",
"529 389 OFFCURVE",
"532 396 OFFCURVE",
"534 409 CURVE",
"533 418 OFFCURVE",
"530 424 OFFCURVE",
"526 425 CURVE",
"531 460 LINE",
"533 488 OFFCURVE",
"511 527 OFFCURVE",
"453 527 CURVE SMOOTH"
);
},
{
closed = 1;
nodes = (
"597 425 LINE",
"597 375 LINE",
"797 375 LINE",
"797 425 LINE"
);
}
);
width = 846;
}
);
unicode = AC03;
},
{
glyphname = uniAC04;
lastChange = "2013-04-17 21:54:10 +0200";
layers = (
{
layerId = "5D30703B-31DB-48F9-9EC6-DEC4C9CE33EC";
name = Regular;
paths = (
{
closed = 1;
nodes = (
"49 338 LINE",
"49 -16 LINE",
"402 -16 LINE",
"402 219 LINE",
"343 161 LINE",
"343 43 LINE",
"108 43 LINE",
"108 280 LINE",
"225 280 LINE",
"285 338 LINE"
);
},
{
closed = 1;
nodes = (
"313 396 LINE",
"372 338 LINE",
"167 133 LINE",
"197 102 LINE",
"402 307 LINE",
"461 249 LINE",
"461 396 LINE"
);
}
);
width = 510;
}
);
unicode = AC04;
},
{
glyphname = uniAC05;
lastChange = "2013-04-17 21:54:17 +0200";
layers = (
{
layerId = "5D30703B-31DB-48F9-9EC6-DEC4C9CE33EC";
name = Regular;
paths = (
{
closed = 1;
nodes = (
"141 495 LINE",
"0 355 LINE",
"109 245 LINE",
"250 386 LINE",
"250 495 LINE"
);
},
{
closed = 1;
nodes = (
"209 471 OFFCURVE",
"215 469 OFFCURVE",
"219 465 CURVE SMOOTH",
"224 460 OFFCURVE",
"226 455 OFFCURVE",
"226 449 CURVE SMOOTH",
"226 442 OFFCURVE",
"224 437 OFFCURVE",
"219 433 CURVE SMOOTH",
"215 429 OFFCURVE",
"209 426 OFFCURVE",
"203 426 CURVE SMOOTH",
"197 426 OFFCURVE",
"192 429 OFFCURVE",
"188 433 CURVE SMOOTH",
"183 437 OFFCURVE",
"181 442 OFFCURVE",
"181 449 CURVE SMOOTH",
"181 455 OFFCURVE",
"183 460 OFFCURVE",
"188 465 CURVE SMOOTH",
"192 469 OFFCURVE",
"197 471 OFFCURVE",
"203 471 CURVE SMOOTH"
);
}
);
width = 250;
}
);
unicode = AC05;
},
{
glyphname = uniAC06;
lastChange = "2013-04-17 21:54:28 +0200";
layers = (
{
layerId = "5D30703B-31DB-48F9-9EC6-DEC4C9CE33EC";
name = Regular;
paths = (
{
closed = 1;
nodes = (
"101 593 LINE SMOOTH",
"68 593 OFFCURVE",
"49 569 OFFCURVE",
"49 544 CURVE SMOOTH",
"49 514 OFFCURVE",
"71 491 OFFCURVE",
"101 491 CURVE SMOOTH",
"496 491 LINE SMOOTH",
"521 491 OFFCURVE",
"549 513 OFFCURVE",
"549 544 CURVE SMOOTH",
"549 569 OFFCURVE",
"521 593 OFFCURVE",
"496 593 CURVE SMOOTH"
);
},
{
closed = 1;
nodes = (
"101 309 LINE SMOOTH",
"68 309 OFFCURVE",
"49 286 OFFCURVE",
"49 260 CURVE SMOOTH",
"49 231 OFFCURVE",
"71 208 OFFCURVE",
"101 208 CURVE SMOOTH",
"496 208 LINE SMOOTH",
"521 208 OFFCURVE",
"549 230 OFFCURVE",
"549 260 CURVE SMOOTH",
"549 286 OFFCURVE",
"521 309 OFFCURVE",
"496 309 CURVE SMOOTH"
);
},
{
closed = 1;
nodes = (
"101 451 LINE SMOOTH",
"68 451 OFFCURVE",
"49 427 OFFCURVE",
"49 402 CURVE SMOOTH",
"49 373 OFFCURVE",
"71 349 OFFCURVE",
"101 349 CURVE SMOOTH",
"496 349 LINE SMOOTH",
"521 349 OFFCURVE",
"549 372 OFFCURVE",
"549 402 CURVE SMOOTH",
"549 427 OFFCURVE",
"521 451 OFFCURVE",
"496 451 CURVE SMOOTH"
);
}
);
width = 598;
}
);
unicode = AC06;
},
{
glyphname = uniAC07;
lastChange = "2013-04-17 21:54:34 +0200";
layers = (
{
layerId = "5D30703B-31DB-48F9-9EC6-DEC4C9CE33EC";
name = Regular;
paths = (
{
closed = 1;
nodes = (
"174 574 OFFCURVE",
"172 573 OFFCURVE",
"170 573 CURVE",
"167 571 OFFCURVE",
"164 568 OFFCURVE",
"161 564 CURVE SMOOTH",
"158 558 OFFCURVE",
"158 550 OFFCURVE",
"158 544 CURVE SMOOTH",
"158 543 OFFCURVE",
"159 542 OFFCURVE",
"159 538 CURVE",
"149 539 OFFCURVE",
"138 536 OFFCURVE",
"129 528 CURVE",
"127 535 OFFCURVE",
"125 538 OFFCURVE",
"121 544 CURVE",
"116 549 OFFCURVE",
"111 552 OFFCURVE",
"107 553 CURVE SMOOTH",
"103 554 OFFCURVE",
"99 553 OFFCURVE",
"95 551 CURVE SMOOTH",
"91 549 OFFCURVE",
"88 544 OFFCURVE",
"90 539 CURVE",
"91 533 OFFCURVE",
"97 530 OFFCURVE",
"102 532 CURVE",
"106 534 OFFCURVE",
"109 539 OFFCURVE",
"107 545 CURVE",
"110 545 OFFCURVE",
"113 545 OFFCURVE",
"116 544 CURVE",
"118 543 OFFCURVE",
"119 542 OFFCURVE",
"120 541 CURVE SMOOTH",
"122 539 OFFCURVE",
"125 534 OFFCURVE",
"126 528 CURVE",
"126 526 LINE",
"117 517 OFFCURVE",
"112 507 OFFCURVE",
"112 495 CURVE SMOOTH",
"112 491 OFFCURVE",
"112 488 OFFCURVE",
"113 484 CURVE",
"105 477 OFFCURVE",
"100 469 OFFCURVE",
"95 459 CURVE",
"30 496 LINE SMOOTH",
"24 499 OFFCURVE",
"17 497 OFFCURVE",
"14 491 CURVE SMOOTH",
"10 485 OFFCURVE",
"12 478 OFFCURVE",
"18 474 CURVE SMOOTH",
"86 436 LINE",
"83 425 OFFCURVE",
"83 416 OFFCURVE",
"83 405 CURVE SMOOTH",
"83 397 OFFCURVE",
"83 389 OFFCURVE",
"84 381 CURVE",
"12 361 LINE SMOOTH",
"4 359 OFFCURVE",
"2 354 OFFCURVE",
"2 350 CURVE SMOOTH",
"2 348 OFFCURVE",
"2 347 OFFCURVE",
"3 346 CURVE",
"5 339 OFFCURVE",
"12 336 OFFCURVE",
"19 337 CURVE SMOOTH",
"92 358 LINE",
"98 345 OFFCURVE",
"108 330 OFFCURVE",
"122 315 CURVE",
"82 244 LINE",
"80 241 OFFCURVE",
"80 238 OFFCURVE",
"81 234 CURVE SMOOTH",
"83 228 OFFCURVE",
"88 226 OFFCURVE",
"92 226 CURVE SMOOTH",
"96 226 LINE",
"99 227 OFFCURVE",
"102 229 OFFCURVE",
"104 232 CURVE",
"140 296 LINE",
"153 283 OFFCURVE",
"166 273 OFFCURVE",
"177 268 CURVE",
"185 263 OFFCURVE",
"191 261 OFFCURVE",
"197 261 CURVE SMOOTH",
"206 261 OFFCURVE",
"211 268 OFFCURVE",
"211 282 CURVE",
"216 274 OFFCURVE",
"222 271 OFFCURVE",
"228 271 CURVE SMOOTH",
"229 271 OFFCURVE",
"231 271 OFFCURVE",
"233 272 CURVE",
"246 277 OFFCURVE",
"258 297 OFFCURVE",
"268 333 CURVE",
"333 295 LINE SMOOTH",
"339 292 OFFCURVE",
"347 294 OFFCURVE",
"350 300 CURVE SMOOTH",
"354 306 OFFCURVE",
"352 314 OFFCURVE",
"346 317 CURVE SMOOTH",
"274 357 LINE",
"277 373 OFFCURVE",
"278 386 OFFCURVE",
"278 398 CURVE SMOOTH",
"278 410 LINE",
"352 429 LINE",
"358 432 OFFCURVE",
"361 438 OFFCURVE",
"361 441 CURVE SMOOTH",
"361 442 OFFCURVE",
"361 443 OFFCURVE",
"360 445 CURVE SMOOTH",
"358 451 OFFCURVE",
"352 456 OFFCURVE",
"345 454 CURVE SMOOTH",
"272 434 LINE",
"266 451 OFFCURVE",
"256 466 OFFCURVE",
"243 479 CURVE",
"282 547 LINE SMOOTH",
"286 553 OFFCURVE",
"283 561 OFFCURVE",
"277 564 CURVE SMOOTH",
"271 567 OFFCURVE",
"263 565 OFFCURVE",
"260 560 CURVE SMOOTH",
"224 495 LINE",
"216 500 OFFCURVE",
"208 503 OFFCURVE",
"200 506 CURVE",
"194 523 OFFCURVE",
"180 536 OFFCURVE",
"162 538 CURVE",
"161 541 OFFCURVE",
"161 544 OFFCURVE",
"160 546 CURVE",
"160 550 OFFCURVE",
"161 554 OFFCURVE",
"163 556 CURVE",
"164 560 OFFCURVE",
"167 562 OFFCURVE",
"169 563 CURVE",
"170 556 OFFCURVE",
"175 553 OFFCURVE",
"181 554 CURVE SMOOTH",
"187 555 OFFCURVE",
"189 561 OFFCURVE",
"188 566 CURVE",
"186 571 OFFCURVE",
"181 574 OFFCURVE",
"177 574 CURVE SMOOTH"
);
}
);
width = 363;
}
);
unicode = AC07;
},
{
glyphname = uniAC08;
lastChange = "2013-04-17 21:54:42 +0200";
layers = (
{
layerId = "5D30703B-31DB-48F9-9EC6-DEC4C9CE33EC";
name = Regular;
paths = (
{
closed = 1;
nodes = (
"229 447 LINE SMOOTH",
"203 447 OFFCURVE",
"183 425 OFFCURVE",
"183 402 CURVE SMOOTH",
"183 390 OFFCURVE",
"187 381 OFFCURVE",
"196 372 CURVE",
"205 362 OFFCURVE",
"216 357 OFFCURVE",
"229 357 CURVE SMOOTH",
"459 357 LINE SMOOTH",
"484 357 OFFCURVE",
"503 378 OFFCURVE",
"503 402 CURVE SMOOTH",
"503 425 OFFCURVE",
"484 447 OFFCURVE",
"459 447 CURVE SMOOTH"
);
},
{
closed = 1;
nodes = (
"108 290 OFFCURVE",
"108 290 OFFCURVE",
"108 289 CURVE SMOOTH",
"68 248 LINE",
"27 289 LINE SMOOTH",
"27 290 OFFCURVE",
"27 290 OFFCURVE",
"26 290 CURVE SMOOTH",
"24 290 OFFCURVE",
"23 290 OFFCURVE",
"21 289 CURVE SMOOTH",
"3 270 LINE SMOOTH",
"1 269 OFFCURVE",
"1 267 OFFCURVE",
"1 264 CURVE",
"3 264 LINE",
"43 224 LINE",
"3 184 LINE",
"1 182 LINE",
"1 180 OFFCURVE",
"1 179 OFFCURVE",
"3 177 CURVE SMOOTH",
"21 158 LINE SMOOTH",
"23 157 OFFCURVE",
"24 157 OFFCURVE",
"26 157 CURVE SMOOTH",
"27 157 OFFCURVE",
"27 158 OFFCURVE",
"27 158 CURVE SMOOTH",
"68 198 LINE",
"108 158 LINE SMOOTH",
"108 158 OFFCURVE",
"108 157 OFFCURVE",
"109 157 CURVE SMOOTH",
"111 157 OFFCURVE",
"113 157 OFFCURVE",
"115 158 CURVE SMOOTH",
"132 177 LINE SMOOTH",
"134 179 OFFCURVE",
"134 180 OFFCURVE",
"134 182 CURVE",
"132 184 LINE",
"92 224 LINE",
"132 264 LINE",
"134 264 LINE",
"134 267 OFFCURVE",
"134 269 OFFCURVE",
"132 270 CURVE SMOOTH",
"115 289 LINE SMOOTH",
"113 290 OFFCURVE",
"111 290 OFFCURVE",
"109 290 CURVE SMOOTH"
);
},
{
closed = 1;
nodes = (
"136 462 OFFCURVE",
"133 462 OFFCURVE",
"131 461 CURVE SMOOTH",
"63 392 LINE SMOOTH",
"61 390 OFFCURVE",
"57 390 OFFCURVE",
"56 392 CURVE SMOOTH",
"27 420 LINE SMOOTH",
"26 422 OFFCURVE",
"23 422 OFFCURVE",
"20 420 CURVE SMOOTH",
"2 402 LINE SMOOTH",
"0 400 OFFCURVE",
"0 397 OFFCURVE",
"2 395 CURVE SMOOTH",
"56 342 LINE SMOOTH",
"57 339 OFFCURVE",
"61 339 OFFCURVE",
"63 342 CURVE SMOOTH",
"157 435 LINE SMOOTH",
"158 437 OFFCURVE",
"158 440 OFFCURVE",
"157 443 CURVE SMOOTH",
"138 461 LINE SMOOTH"
);
},
{
closed = 1;
nodes = (
"229 268 LINE SMOOTH",
"203 268 OFFCURVE",
"183 246 OFFCURVE",
"183 224 CURVE SMOOTH",
"183 211 OFFCURVE",
"187 200 OFFCURVE",
"196 192 CURVE",
"205 182 OFFCURVE",
"216 178 OFFCURVE",
"229 178 CURVE SMOOTH",
"459 178 LINE SMOOTH",
"484 178 OFFCURVE",
"503 199 OFFCURVE",
"503 224 CURVE SMOOTH",
"503 246 OFFCURVE",
"484 268 OFFCURVE",
"459 268 CURVE SMOOTH"
);
},
{
closed = 1;
nodes = (
"136 643 OFFCURVE",
"133 643 OFFCURVE",
"131 642 CURVE SMOOTH",
"63 573 LINE SMOOTH",
"61 571 OFFCURVE",
"57 571 OFFCURVE",
"56 573 CURVE SMOOTH",
"27 601 LINE SMOOTH",
"26 603 OFFCURVE",
"23 603 OFFCURVE",
"20 601 CURVE SMOOTH",
"2 584 LINE SMOOTH",
"0 581 OFFCURVE",
"0 578 OFFCURVE",
"2 576 CURVE SMOOTH",
"56 523 LINE SMOOTH",
"57 521 OFFCURVE",
"61 521 OFFCURVE",
"63 523 CURVE SMOOTH",
"157 616 LINE SMOOTH",
"158 618 OFFCURVE",
"158 621 OFFCURVE",
"157 624 CURVE SMOOTH",
"138 642 LINE SMOOTH"
);
},
{
closed = 1;
nodes = (
"229 626 LINE SMOOTH",
"203 626 OFFCURVE",
"183 605 OFFCURVE",
"183 584 CURVE SMOOTH",
"183 570 OFFCURVE",
"187 560 OFFCURVE",
"196 550 CURVE",
"205 542 OFFCURVE",
"216 538 OFFCURVE",
"229 538 CURVE SMOOTH",
"459 538 LINE SMOOTH",
"484 538 OFFCURVE",
"503 557 OFFCURVE",
"503 584 CURVE SMOOTH",
"503 605 OFFCURVE",
"484 626 OFFCURVE",
"459 626 CURVE SMOOTH"
);
}
);
width = 503;
}
);
unicode = AC08;
},
{
glyphname = uniAC09;
lastChange = "2013-04-17 21:54:50 +0200";
layers = (
{
layerId = "5D30703B-31DB-48F9-9EC6-DEC4C9CE33EC";
name = Regular;
paths = (
{
closed = 1;
nodes = (
"505 475 LINE",
"86 475 LINE",
"86 515 LINE",
"64 493 LINE",
"59 487 OFFCURVE",
"58 486 OFFCURVE",
"55 481 CURVE",
"51 476 OFFCURVE",
"50 472 OFFCURVE",
"50 468 CURVE SMOOTH",
"50 465 OFFCURVE",
"51 459 OFFCURVE",
"52 450 CURVE",
"54 441 OFFCURVE",
"61 403 OFFCURVE",
"72 337 CURVE SMOOTH",
"83 271 OFFCURVE",
"89 234 OFFCURVE",
"91 225 CURVE",
"94 208 OFFCURVE",
"104 200 OFFCURVE",
"121 200 CURVE SMOOTH",
"470 200 LINE SMOOTH",
"503 200 OFFCURVE",
"498 211 OFFCURVE",
"510 283 CURVE SMOOTH",
"522 355 OFFCURVE",
"535 431 OFFCURVE",
"539 450 CURVE SMOOTH",
"540 455 OFFCURVE",
"540 460 OFFCURVE",
"540 464 CURVE SMOOTH",
"540 472 OFFCURVE",
"540 476 OFFCURVE",
"537 481 CURVE SMOOTH",
"526 494 LINE",
"522 497 OFFCURVE",
"521 499 OFFCURVE",
"519 500 CURVE SMOOTH",
"505 515 LINE"
);
},
{
closed = 1;
nodes = (
"395 365 LINE",
"394 358 LINE",
"394 350 OFFCURVE",
"385 340 OFFCURVE",
"370 340 CURVE SMOOTH",
"221 340 LINE SMOOTH",
"204 340 OFFCURVE",
"196 348 OFFCURVE",
"196 365 CURVE SMOOTH",
"196 415 LINE",
"231 415 LINE",
"231 375 LINE",
"360 375 LINE",
"360 415 LINE",
"395 415 LINE"
);
},
{
closed = 1;
nodes = (
"140 550 LINE",
"132 548 OFFCURVE",
"121 540 OFFCURVE",
"121 525 CURVE SMOOTH",
"121 500 LINE",
"470 500 LINE",
"470 525 LINE SMOOTH",
"470 540 OFFCURVE",
"458 549 OFFCURVE",
"452 549 CURVE",
"449 550 OFFCURVE",
"447 550 OFFCURVE",
"445 550 CURVE SMOOTH"
);
},
{
closed = 1;
nodes = (
"395 600 LINE",
"190 600 LINE",
"182 599 OFFCURVE",
"171 590 OFFCURVE",
"171 575 CURVE",
"420 575 LINE",
"420 590 OFFCURVE",
"407 599 OFFCURVE",
"402 600 CURVE"
);
}
);
width = 591;
}
);
unicode = AC09;
},
{
glyphname = uniAC0A;
lastChange = "2013-04-17 21:55:09 +0200";
layers = (
{
layerId = "5D30703B-31DB-48F9-9EC6-DEC4C9CE33EC";
name = Regular;
paths = (
{
closed = 1;
nodes = (
"143 610 OFFCURVE",
"49 516 OFFCURVE",
"49 400 CURVE SMOOTH",
"49 342 OFFCURVE",
"69 293 OFFCURVE",
"110 252 CURVE SMOOTH",
"151 211 OFFCURVE",
"201 190 OFFCURVE",
"259 190 CURVE SMOOTH",
"375 190 OFFCURVE",
"469 284 OFFCURVE",
"469 400 CURVE SMOOTH",
"469 516 OFFCURVE",
"375 610 OFFCURVE",
"259 610 CURVE SMOOTH"
);
},
{
closed = 1;
nodes = (
"338 555 OFFCURVE",
"355 546 OFFCURVE",
"369 535 CURVE",
"352 486 LINE",
"358 480 OFFCURVE",
"364 472 OFFCURVE",
"368 464 CURVE SMOOTH",
"374 456 OFFCURVE",
"377 446 OFFCURVE",
"380 437 CURVE",
"430 429 LINE",
"433 411 OFFCURVE",
"434 391 OFFCURVE",
"430 373 CURVE",
"380 364 LINE",
"374 346 OFFCURVE",
"365 330 OFFCURVE",
"352 315 CURVE",
"369 267 LINE",
"363 261 OFFCURVE",
"355 256 OFFCURVE",
"346 251 CURVE SMOOTH",
"338 246 OFFCURVE",
"329 242 OFFCURVE",
"320 239 CURVE",
"288 278 LINE",
"268 275 OFFCURVE",
"250 275 OFFCURVE",
"231 277 CURVE",
"198 238 LINE",
"181 245 OFFCURVE",
"164 255 OFFCURVE",
"150 266 CURVE",
"169 315 LINE",
"161 322 OFFCURVE",
"154 330 OFFCURVE",
"150 338 CURVE SMOOTH",
"146 346 OFFCURVE",
"143 355 OFFCURVE",
"139 364 CURVE",
"88 373 LINE",
"85 391 OFFCURVE",
"84 410 OFFCURVE",
"89 428 CURVE",
"139 436 LINE",
"145 455 OFFCURVE",
"153 471 OFFCURVE",
"168 486 CURVE",
"150 534 LINE",
"158 540 OFFCURVE",
"164 545 OFFCURVE",
"173 550 CURVE SMOOTH",
"182 555 OFFCURVE",
"190 559 OFFCURVE",
"199 562 CURVE",
"231 523 LINE",
"250 527 OFFCURVE",
"270 527 OFFCURVE",
"289 523 CURVE",
"321 562 LINE"
);
},
{
closed = 1;
nodes = (
"213 447 OFFCURVE",
"204 433 OFFCURVE",
"199 417 CURVE SMOOTH",
"195 400 OFFCURVE",
"196 385 OFFCURVE",
"205 369 CURVE SMOOTH",
"222 340 OFFCURVE",
"261 330 OFFCURVE",
"291 346 CURVE SMOOTH",
"321 363 OFFCURVE",
"330 403 OFFCURVE",
"314 432 CURVE SMOOTH",
"296 462 OFFCURVE",
"258 473 OFFCURVE",
"228 455 CURVE SMOOTH"
);
}
);
width = 518;
}
);
unicode = AC0A;
},
{
glyphname = uniAC0B;
lastChange = "2013-04-17 23:39:32 +0200";
layers = (
{
layerId = "5D30703B-31DB-48F9-9EC6-DEC4C9CE33EC";
name = Regular;
paths = (
{
closed = 1;
nodes = (
"95 593 LINE SMOOTH",
"86 593 OFFCURVE",
"78 590 OFFCURVE",
"72 583 CURVE",
"66 577 OFFCURVE",
"63 570 OFFCURVE",
"63 560 CURVE SMOOTH",
"63 239 LINE SMOOTH",
"63 231 OFFCURVE",
"66 223 OFFCURVE",
"72 216 CURVE SMOOTH",
"78 211 OFFCURVE",
"86 208 OFFCURVE",
"95 208 CURVE SMOOTH",
"442 208 LINE SMOOTH",
"450 208 OFFCURVE",
"459 211 OFFCURVE",
"465 216 CURVE",
"470 223 OFFCURVE",
"474 231 OFFCURVE",
"474 239 CURVE SMOOTH",
"474 560 LINE SMOOTH",
"474 570 OFFCURVE",
"470 577 OFFCURVE",
"465 583 CURVE SMOOTH",
"459 590 OFFCURVE",
"450 593 OFFCURVE",
"442 593 CURVE SMOOTH"
);
},
{
closed = 1;
nodes = (
"114 310 LINE",
"114 284 LINE",
"256 284 LINE",
"256 310 LINE"
);
},
{
closed = 1;
nodes = (
"114 412 LINE",
"114 387 LINE",
"179 387 LINE",
"179 412 LINE"
);
},
{
closed = 1;
nodes = (
"281 336 LINE SMOOTH",
"278 336 OFFCURVE",
"275 333 OFFCURVE",
"272 331 CURVE SMOOTH",
"270 329 OFFCURVE",
"268 327 OFFCURVE",
"268 323 CURVE SMOOTH",
"268 271 LINE SMOOTH",
"268 268 OFFCURVE",
"270 264 OFFCURVE",
"272 262 CURVE SMOOTH",
"275 259 OFFCURVE",
"278 259 OFFCURVE",
"281 259 CURVE SMOOTH",
"307 259 LINE SMOOTH",
"311 259 OFFCURVE",
"314 259 OFFCURVE",
"317 262 CURVE SMOOTH",
"319 264 OFFCURVE",
"319 268 OFFCURVE",
"319 271 CURVE SMOOTH",
"319 323 LINE SMOOTH",
"319 327 OFFCURVE",
"319 329 OFFCURVE",
"317 331 CURVE SMOOTH",
"314 333 OFFCURVE",
"311 336 OFFCURVE",
"307 336 CURVE SMOOTH"
);
},
{
closed = 1;
nodes = (
"204 439 LINE SMOOTH",
"200 439 OFFCURVE",
"198 437 OFFCURVE",
"195 434 CURVE SMOOTH",
"192 432 OFFCURVE",
"192 430 OFFCURVE",
"192 426 CURVE SMOOTH",
"192 373 LINE SMOOTH",
"192 370 OFFCURVE",
"192 367 OFFCURVE",
"195 365 CURVE SMOOTH",
"198 362 OFFCURVE",
"200 361 OFFCURVE",
"204 361 CURVE SMOOTH",
"229 361 LINE SMOOTH",
"234 361 OFFCURVE",
"237 362 OFFCURVE",
"239 365 CURVE SMOOTH",
"241 367 OFFCURVE",
"242 370 OFFCURVE",
"242 373 CURVE SMOOTH",
"242 426 LINE SMOOTH",
"242 430 OFFCURVE",
"241 432 OFFCURVE",
"239 434 CURVE SMOOTH",
"237 437 OFFCURVE",
"234 439 OFFCURVE",
"229 439 CURVE SMOOTH"
);
},
{
closed = 1;
nodes = (
"446 567 OFFCURVE",
"449 565 OFFCURVE",
"449 560 CURVE SMOOTH",
"449 239 LINE SMOOTH",
"449 235 OFFCURVE",
"446 232 OFFCURVE",
"442 232 CURVE SMOOTH",
"95 232 LINE SMOOTH",
"91 232 OFFCURVE",
"88 235 OFFCURVE",
"88 239 CURVE SMOOTH",
"88 560 LINE SMOOTH",
"88 565 OFFCURVE",
"91 567 OFFCURVE",
"95 567 CURVE SMOOTH",
"442 567 LINE SMOOTH"
);
},
{
closed = 1;
nodes = (
"332 310 LINE",
"332 284 LINE",
"422 284 LINE",
"422 310 LINE"
);
},
{
closed = 1;
nodes = (
"114 516 LINE",
"114 490 LINE",
"281 490 LINE",
"281 516 LINE"
);
},
{
closed = 1;
nodes = (
"256 412 LINE",
"256 387 LINE",
"422 387 LINE",
"422 412 LINE"
);
},
{
closed = 1;
nodes = (
"307 541 LINE SMOOTH",
"303 541 OFFCURVE",
"300 540 OFFCURVE",
"298 537 CURVE SMOOTH",
"296 534 OFFCURVE",
"294 532 OFFCURVE",
"294 529 CURVE SMOOTH",
"294 477 LINE SMOOTH",
"294 473 OFFCURVE",
"296 470 OFFCURVE",
"298 468 CURVE SMOOTH",
"300 465 OFFCURVE",
"303 464 OFFCURVE",
"307 464 CURVE SMOOTH",
"332 464 LINE SMOOTH",
"337 464 OFFCURVE",
"339 465 OFFCURVE",
"342 468 CURVE SMOOTH",
"345 470 OFFCURVE",
"345 473 OFFCURVE",
"345 477 CURVE SMOOTH",
"345 529 LINE SMOOTH",
"345 532 OFFCURVE",
"345 534 OFFCURVE",
"342 537 CURVE SMOOTH",
"339 540 OFFCURVE",
"337 541 OFFCURVE",
"332 541 CURVE SMOOTH"
);
},
{
closed = 1;
nodes = (
"359 516 LINE",
"359 490 LINE",
"422 490 LINE",
"422 516 LINE"
);
}
);
width = 537;
}
);
unicode = AC0B;
},
{
glyphname = uniAC0C;
lastChange = "2013-04-17 21:55:25 +0200";
layers = (
{
layerId = "5D30703B-31DB-48F9-9EC6-DEC4C9CE33EC";
name = Regular;
paths = (
{
closed = 1;
nodes = (
"190 594 OFFCURVE",
"179 594 OFFCURVE",
"171 589 CURVE SMOOTH",
"162 583 OFFCURVE",
"158 580 OFFCURVE",
"157 572 CURVE SMOOTH",
"157 565 OFFCURVE",
"156 558 OFFCURVE",
"159 551 CURVE SMOOTH",
"161 544 OFFCURVE",
"165 536 OFFCURVE",
"168 529 CURVE",
"174 518 OFFCURVE",
"177 509 OFFCURVE",
"175 506 CURVE SMOOTH",
"174 501 OFFCURVE",
"170 498 OFFCURVE",
"167 497 CURVE",
"163 495 OFFCURVE",
"159 493 OFFCURVE",
"151 493 CURVE SMOOTH",
"93 493 LINE SMOOTH",
"87 493 OFFCURVE",
"81 490 OFFCURVE",
"75 483 CURVE",
"71 482 OFFCURVE",
"69 474 OFFCURVE",
"68 468 CURVE SMOOTH",
"68 231 LINE SMOOTH",
"69 225 OFFCURVE",
"72 219 OFFCURVE",
"75 217 CURVE SMOOTH",
"80 210 OFFCURVE",
"86 206 OFFCURVE",
"93 206 CURVE SMOOTH",
"151 207 LINE SMOOTH",
"159 207 OFFCURVE",
"163 209 OFFCURVE",
"167 210 CURVE",
"170 211 OFFCURVE",
"173 216 OFFCURVE",
"175 221 CURVE SMOOTH",
"177 226 OFFCURVE",
"174 233 OFFCURVE",
"168 242 CURVE",
"164 251 OFFCURVE",
"161 258 OFFCURVE",
"159 265 CURVE SMOOTH",
"157 272 OFFCURVE",
"156 280 OFFCURVE",
"158 288 CURVE SMOOTH",
"157 294 OFFCURVE",
"161 300 OFFCURVE",
"170 303 CURVE SMOOTH",
"178 306 OFFCURVE",
"190 308 OFFCURVE",
"205 308 CURVE SMOOTH",
"221 309 OFFCURVE",
"232 306 OFFCURVE",
"242 302 CURVE SMOOTH",
"248 300 OFFCURVE",
"256 294 OFFCURVE",
"256 287 CURVE SMOOTH",
"256 280 OFFCURVE",
"255 271 OFFCURVE",
"256 265 CURVE SMOOTH",
"254 258 OFFCURVE",
"246 250 OFFCURVE",
"243 242 CURVE SMOOTH",
"238 232 OFFCURVE",
"235 226 OFFCURVE",
"237 221 CURVE SMOOTH",
"240 217 OFFCURVE",
"242 211 OFFCURVE",
"245 211 CURVE",
"247 209 OFFCURVE",
"256 206 OFFCURVE",
"258 207 CURVE SMOOTH",
"319 206 LINE SMOOTH",
"325 207 OFFCURVE",
"330 210 OFFCURVE",
"335 216 CURVE",
"339 219 OFFCURVE",
"343 225 OFFCURVE",
"342 232 CURVE SMOOTH",
"343 289 LINE SMOOTH",
"343 295 OFFCURVE",
"343 300 OFFCURVE",
"344 303 CURVE SMOOTH",
"356 313 LINE SMOOTH",
"361 313 OFFCURVE",
"368 310 OFFCURVE",
"377 305 CURVE SMOOTH",
"385 300 OFFCURVE",
"393 297 OFFCURVE",
"400 295 CURVE SMOOTH",
"407 294 OFFCURVE",
"415 294 OFFCURVE",
"423 294 CURVE SMOOTH",
"428 295 OFFCURVE",
"436 297 OFFCURVE",
"439 306 CURVE",
"443 314 OFFCURVE",
"444 328 OFFCURVE",
"444 340 CURVE SMOOTH",
"444 357 OFFCURVE",
"443 368 OFFCURVE",
"439 377 CURVE",
"435 385 OFFCURVE",
"429 389 OFFCURVE",
"422 391 CURVE SMOOTH",
"415 391 OFFCURVE",
"408 390 OFFCURVE",
"400 388 CURVE SMOOTH",
"394 386 OFFCURVE",
"384 384 OFFCURVE",
"377 379 CURVE SMOOTH",
"367 372 OFFCURVE",
"361 370 OFFCURVE",
"356 372 CURVE SMOOTH",
"350 372 OFFCURVE",
"347 377 OFFCURVE",
"344 380 CURVE SMOOTH",
"344 385 OFFCURVE",
"343 389 OFFCURVE",
"343 397 CURVE SMOOTH",
"343 468 LINE SMOOTH",
"343 474 OFFCURVE",
"339 482 OFFCURVE",
"335 483 CURVE",
"330 490 OFFCURVE",
"325 493 OFFCURVE",
"318 493 CURVE SMOOTH",
"257 492 LINE SMOOTH",
"257 493 OFFCURVE",
"247 494 OFFCURVE",
"245 495 CURVE",
"241 498 OFFCURVE",
"239 501 OFFCURVE",
"237 506 CURVE SMOOTH",
"235 509 OFFCURVE",
"239 518 OFFCURVE",
"243 529 CURVE SMOOTH",
"246 537 OFFCURVE",
"254 544 OFFCURVE",
"257 551 CURVE SMOOTH",
"256 559 OFFCURVE",
"256 565 OFFCURVE",
"256 573 CURVE SMOOTH",
"257 580 OFFCURVE",
"249 583 OFFCURVE",
"242 589 CURVE",
"231 594 OFFCURVE",
"221 594 OFFCURVE",
"205 594 CURVE SMOOTH"
);
}
);
width = 483;
}
);
unicode = AC0C;
},
{
glyphname = uniAC0D;
lastChange = "2013-04-17 21:55:33 +0200";
layers = (
{
layerId = "5D30703B-31DB-48F9-9EC6-DEC4C9CE33EC";
name = Regular;
paths = (
{
closed = 1;
nodes = (
"280 599 OFFCURVE",
"230 595 OFFCURVE",
"188 574 CURVE SMOOTH",
"146 553 OFFCURVE",
"112 516 OFFCURVE",
"96 469 CURVE SMOOTH",
"94 464 OFFCURVE",
"96 459 OFFCURVE",
"102 457 CURVE SMOOTH",
"136 445 LINE SMOOTH",
"141 444 OFFCURVE",
"146 446 OFFCURVE",
"147 451 CURVE",
"159 484 OFFCURVE",
"183 511 OFFCURVE",
"212 525 CURVE SMOOTH",
"242 539 OFFCURVE",
"277 543 OFFCURVE",
"310 531 CURVE SMOOTH",
"337 522 OFFCURVE",
"360 504 OFFCURVE",
"375 480 CURVE",
"329 457 LINE SMOOTH",
"316 451 OFFCURVE",
"316 442 OFFCURVE",
"330 437 CURVE SMOOTH",
"431 403 LINE",
"439 401 OFFCURVE",
"451 405 OFFCURVE",
"453 414 CURVE",
"487 515 LINE",
"493 528 OFFCURVE",
"485 535 OFFCURVE",
"472 528 CURVE SMOOTH",
"425 505 LINE",
"402 542 OFFCURVE",
"369 569 OFFCURVE",
"328 583 CURVE SMOOTH"
);
},
{
closed = 1;
nodes = (
"99 419 OFFCURVE",
"87 414 OFFCURVE",
"85 406 CURVE",
"51 305 LINE",
"45 291 OFFCURVE",
"53 285 OFFCURVE",
"66 292 CURVE",
"113 315 LINE",
"135 278 OFFCURVE",
"169 250 OFFCURVE",
"210 237 CURVE SMOOTH",
"257 221 OFFCURVE",
"308 225 OFFCURVE",
"350 246 CURVE SMOOTH",
"392 266 OFFCURVE",
"426 303 OFFCURVE",
"442 351 CURVE",
"444 356 OFFCURVE",
"442 360 OFFCURVE",
"437 363 CURVE",
"402 374 LINE SMOOTH",
"396 376 OFFCURVE",
"392 374 OFFCURVE",
"391 369 CURVE",
"379 335 OFFCURVE",
"355 309 OFFCURVE",
"326 295 CURVE SMOOTH",
"296 281 OFFCURVE",
"261 277 OFFCURVE",
"228 288 CURVE SMOOTH",
"200 298 OFFCURVE",
"178 316 OFFCURVE",
"163 339 CURVE",
"209 362 LINE SMOOTH",
"222 369 OFFCURVE",
"222 378 OFFCURVE",
"208 382 CURVE SMOOTH",
"107 416 LINE SMOOTH"
);
}
);
width = 538;
}
);
unicode = AC0D;
},
{
glyphname = uniAC0E;
lastChange = "2013-04-17 21:56:03 +0200";
layers = (
{
layerId = "5D30703B-31DB-48F9-9EC6-DEC4C9CE33EC";
name = Regular;
paths = (
{
closed = 1;
nodes = (
"276 457 LINE",
"175 323 LINE",
"188 425 LINE",
"49 375 LINE",
"171 305 LINE",
"412 478 LINE",
"189 295 LINE",
"182 208 LINE",
"226 278 LINE",
"328 227 LINE",
"463 528 LINE"
);
},
{
closed = 1;
nodes = (
"149 466 LINE",
"216 479 LINE",
"201 389 LINE",
"290 516 LINE",
"224 504 LINE",
"239 593 LINE"
);
}
);
width = 512;
}
);
unicode = AC0E;
},
{
glyphname = uniAC0F;
lastChange = "2013-04-17 21:56:09 +0200";
layers = (
{
layerId = "5D30703B-31DB-48F9-9EC6-DEC4C9CE33EC";
name = Regular;
paths = (
{
closed = 1;
nodes = (
"155 611 LINE",
"155 506 LINE",
"182 506 LINE",
"182 585 LINE",
"392 585 LINE",
"287 532 LINE",
"287 295 LINE",
"182 295 LINE",
"182 400 LINE",
"155 400 LINE",
"155 269 LINE",
"287 269 LINE",
"287 189 LINE",
"445 269 LINE",
"445 611 LINE"
);
},
{
closed = 1;
nodes = (
"23 453 LINE",
"128 374 LINE",
"128 427 LINE",
"234 427 LINE",
"234 479 LINE",
"128 479 LINE",
"128 532 LINE"
);
}
);
width = 537;
}
);
unicode = AC0F;
},
{
glyphname = exclam;
lastChange = "2013-04-17 21:12:42 +0200";
layers = (
{
layerId = "5D30703B-31DB-48F9-9EC6-DEC4C9CE33EC";
name = Regular;
paths = (
{
closed = 1;
nodes = (
"240 647 OFFCURVE",
"219 628 OFFCURVE",
"220 593 CURVE SMOOTH",
"220 585 OFFCURVE",
"220 579 OFFCURVE",
"222 568 CURVE SMOOTH",
"228 527 LINE",
"228 527 OFFCURVE",
"230 515 OFFCURVE",
"234 496 CURVE SMOOTH",
"238 477 OFFCURVE",
"240 458 OFFCURVE",
"243 446 CURVE SMOOTH",
"250 403 OFFCURVE",
"262 358 OFFCURVE",
"263 313 CURVE",
"272 313 LINE",
"291 358 OFFCURVE",
"303 403 OFFCURVE",
"313 442 CURVE SMOOTH",
"317 471 OFFCURVE",
"325 499 OFFCURVE",
"328 521 CURVE SMOOTH",
"332 539 OFFCURVE",
"334 553 OFFCURVE",
"334 563 CURVE SMOOTH",
"337 571 OFFCURVE",
"337 582 OFFCURVE",
"337 588 CURVE",
"334 621 OFFCURVE",
"310 645 OFFCURVE",
"271 646 CURVE SMOOTH"
);
},
{
closed = 1;
nodes = (
"235 265 OFFCURVE",
"206 243 OFFCURVE",
"201 211 CURVE SMOOTH",
"198 180 OFFCURVE",
"219 155 OFFCURVE",
"250 154 CURVE SMOOTH",
"273 154 OFFCURVE",
"308 176 OFFCURVE",
"313 208 CURVE SMOOTH",
"317 238 OFFCURVE",
"294 265 OFFCURVE",
"267 265 CURVE SMOOTH"
);
}
);
width = 537;
}
);
unicode = 0021;
},
{
glyphname = underscore;
lastChange = "2013-04-18 02:09:42 +0200";
layers = (
{
layerId = "5D30703B-31DB-48F9-9EC6-DEC4C9CE33EC";
name = Regular;
paths = (
{
closed = 1;
nodes = (
"188 390 LINE",
"287 435 LINE",
"287 464 LINE",
"188 506 LINE",
"188 475 LINE",
"254 449 LINE",
"188 425 LINE"
);
},
{
closed = 1;
nodes = (
"301 370 LINE",
"400 370 LINE",
"400 390 LINE",
"301 390 LINE"
);
},
{
closed = 1;
nodes = (
"537 554 LINE SMOOTH",
"553 554 OFFCURVE",
"561 546 OFFCURVE",
"561 530 CURVE SMOOTH",
"561 270 LINE SMOOTH",
"561 255 OFFCURVE",
"553 246 OFFCURVE",
"537 246 CURVE SMOOTH",
"163 246 LINE SMOOTH",
"148 246 OFFCURVE",
"139 254 OFFCURVE",
"139 270 CURVE SMOOTH",
"139 530 LINE SMOOTH",
"139 546 OFFCURVE",
"147 554 OFFCURVE",
"163 554 CURVE SMOOTH"
);
}
);
width = 700;
}
);
unicode = 005F;
},
{
glyphname = hyphen;
lastChange = "2013-04-17 22:00:39 +0200";
layers = (
{
layerId = "5D30703B-31DB-48F9-9EC6-DEC4C9CE33EC";
name = Regular;
paths = (
{
closed = 1;
nodes = (
"8 434 LINE",
"5 434 LINE",
"1 432 OFFCURVE",
"0 430 OFFCURVE",
"0 426 CURVE SMOOTH",
"0 376 LINE SMOOTH",
"0 372 OFFCURVE",
"1 370 OFFCURVE",
"4 368 CURVE",
"6 367 OFFCURVE",
"7 367 OFFCURVE",
"8 368 CURVE SMOOTH",
"289 368 LINE",
"292 368 LINE",
"295 370 OFFCURVE",
"296 372 OFFCURVE",
"297 376 CURVE SMOOTH",
"296 426 LINE SMOOTH",
"296 429 OFFCURVE",
"295 431 OFFCURVE",
"292 433 CURVE",
"290 434 OFFCURVE",
"289 434 OFFCURVE",
"288 434 CURVE SMOOTH"
);
}
);
width = 297;
}
);
unicode = 002D;
},
{
glyphname = less;
lastChange = "2013-04-17 22:01:48 +0200";
layers = (
{
layerId = "5D30703B-31DB-48F9-9EC6-DEC4C9CE33EC";
name = Regular;
paths = (
{
closed = 1;
nodes = (
"50 408 LINE",
"230 241 LINE",
"230 350 LINE",
"369 350 OFFCURVE",
"443 332 OFFCURVE",
"500 230 CURVE",
"494 258 OFFCURVE",
"482 288 OFFCURVE",
"466 321 CURVE SMOOTH",
"412 422 OFFCURVE",
"333 473 OFFCURVE",
"230 473 CURVE",
"230 570 LINE"
);
}
);
width = 550;
}
);
unicode = 003C;
},
{
glyphname = lessequal;
lastChange = "2013-04-17 21:20:55 +0200";
layers = (
{
layerId = "5D30703B-31DB-48F9-9EC6-DEC4C9CE33EC";
name = Regular;
paths = (
{
closed = 1;
nodes = (
"175 409 LINE",
"356 241 LINE",
"356 350 LINE",
"448 350 OFFCURVE",
"493 333 OFFCURVE",
"550 230 CURVE",
"548 255 LINE SMOOTH",
"545 288 OFFCURVE",
"529 340 OFFCURVE",
"504 388 CURVE SMOOTH",
"479 435 OFFCURVE",
"425 473 OFFCURVE",
"356 473 CURVE",
"356 570 LINE"
);
},
{
closed = 1;
nodes = (
"50 409 LINE",
"231 241 LINE",
"231 311 LINE",
"125 409 LINE",
"231 503 LINE",
"231 570 LINE"
);
}
);
width = 600;
}
);
unicode = 2264;
},
{
glyphname = plus;
lastChange = "2013-04-17 22:00:51 +0200";
layers = (
{
layerId = "5D30703B-31DB-48F9-9EC6-DEC4C9CE33EC";
name = Regular;
paths = (
{
closed = 1;
nodes = (
"124 548 LINE SMOOTH",
"121 548 OFFCURVE",
"117 547 OFFCURVE",
"116 543 CURVE",
"116 542 OFFCURVE",
"115 541 OFFCURVE",
"115 540 CURVE SMOOTH",
"115 434 LINE",
"8 433 LINE",
"5 433 LINE",
"1 431 OFFCURVE",
"0 429 OFFCURVE",
"0 425 CURVE SMOOTH",
"0 375 LINE SMOOTH",
"0 371 OFFCURVE",
"1 369 OFFCURVE",
"4 367 CURVE",
"6 366 OFFCURVE",
"7 366 OFFCURVE",
"8 367 CURVE SMOOTH",
"115 367 LINE",
"116 260 LINE SMOOTH",
"115 259 OFFCURVE",
"114 258 OFFCURVE",
"116 256 CURVE",
"117 253 OFFCURVE",
"119 252 OFFCURVE",
"122 252 CURVE SMOOTH",
"173 252 LINE SMOOTH",
"177 252 OFFCURVE",
"179 253 OFFCURVE",
"181 255 CURVE",
"182 257 OFFCURVE",
"182 258 OFFCURVE",
"181 259 CURVE SMOOTH",
"182 366 LINE",
"289 367 LINE",
"292 367 LINE",
"295 369 OFFCURVE",
"296 371 OFFCURVE",
"297 375 CURVE SMOOTH",
"296 425 LINE SMOOTH",
"296 428 OFFCURVE",
"295 430 OFFCURVE",
"292 432 CURVE",
"290 433 OFFCURVE",
"289 433 OFFCURVE",
"288 433 CURVE SMOOTH",
"182 433 LINE",
"181 540 LINE",
"181 544 LINE",
"179 547 OFFCURVE",
"176 547 OFFCURVE",
"174 548 CURVE SMOOTH"
);
}
);
width = 297;
}
);
unicode = 002B;
},
{
glyphname = uni2207;
lastChange = "2013-04-17 21:20:55 +0200";
layers = (
{
layerId = "5D30703B-31DB-48F9-9EC6-DEC4C9CE33EC";
name = Regular;
paths = (
{
closed = 1;
nodes = (
"44 634 LINE SMOOTH",
"38 634 OFFCURVE",
"32 631 OFFCURVE",
"28 626 CURVE",
"27 622 OFFCURVE",
"25 619 OFFCURVE",
"25 616 CURVE SMOOTH",
"25 613 OFFCURVE",
"27 610 OFFCURVE",
"28 607 CURVE SMOOTH",
"272 175 LINE SMOOTH",
"276 169 OFFCURVE",
"281 166 OFFCURVE",
"290 166 CURVE SMOOTH",
"297 166 OFFCURVE",
"303 169 OFFCURVE",
"308 175 CURVE",
"551 607 LINE",
"556 613 OFFCURVE",
"556 619 OFFCURVE",
"551 626 CURVE",
"548 631 OFFCURVE",
"542 634 OFFCURVE",
"536 634 CURVE SMOOTH"
);
},
{
closed = 1;
nodes = (
"461 582 OFFCURVE",
"464 579 OFFCURVE",
"467 575 CURVE SMOOTH",
"471 571 OFFCURVE",
"471 567 OFFCURVE",
"467 564 CURVE",
"302 272 LINE SMOOTH",
"299 267 OFFCURVE",
"295 265 OFFCURVE",
"290 265 CURVE SMOOTH",
"284 265 OFFCURVE",
"280 267 OFFCURVE",
"278 272 CURVE",
"112 564 LINE SMOOTH",
"111 565 OFFCURVE",
"110 567 OFFCURVE",
"110 569 CURVE SMOOTH",
"110 571 OFFCURVE",
"111 573 OFFCURVE",
"112 575 CURVE",
"116 579 OFFCURVE",
"119 582 OFFCURVE",
"125 582 CURVE SMOOTH",
"456 582 LINE SMOOTH"
);
}
);
width = 581;
}
);
unicode = 2207;
},
{
glyphname = arrowboth;
lastChange = "2013-04-17 21:20:55 +0200";
layers = (
{
layerId = "5D30703B-31DB-48F9-9EC6-DEC4C9CE33EC";
name = Regular;
paths = (
{
closed = 1;
nodes = (
"277 536 LINE",
"335 473 LINE",
"436 473 LINE",
"436 355 LINE",
"381 355 LINE",
"468 264 LINE",
"554 355 LINE",
"499 355 LINE",
"499 491 LINE SMOOTH",
"499 516 OFFCURVE",
"478 536 OFFCURVE",
"454 536 CURVE SMOOTH"
);
},
{
closed = 1;
nodes = (
"100 445 LINE",
"155 445 LINE",
"155 309 LINE SMOOTH",
"155 284 OFFCURVE",
"175 264 OFFCURVE",
"200 264 CURVE SMOOTH",
"377 264 LINE",
"319 327 LINE",
"218 327 LINE",
"218 445 LINE",
"273 445 LINE",
"186 536 LINE"
);
}
);
width = 604;
}
);
unicode = 2194;
},
{
glyphname = arrowdown;
lastChange = "2013-04-17 21:20:55 +0200";
layers = (
{
layerId = "5D30703B-31DB-48F9-9EC6-DEC4C9CE33EC";
name = Regular;
paths = (
{
closed = 1;
nodes = (
"548 587 OFFCURVE",
"542 584 OFFCURVE",
"537 579 CURVE",
"346 447 LINE",
"336 442 OFFCURVE",
"326 438 OFFCURVE",
"315 438 CURVE SMOOTH",
"305 438 OFFCURVE",
"295 441 OFFCURVE",
"287 446 CURVE",
"94 579 LINE",
"89 584 OFFCURVE",
"83 587 OFFCURVE",
"76 587 CURVE SMOOTH",
"61 587 OFFCURVE",
"49 575 OFFCURVE",
"49 560 CURVE SMOOTH",
"49 553 OFFCURVE",
"51 547 OFFCURVE",
"57 542 CURVE",
"57 541 LINE",
"292 227 LINE",
"297 217 OFFCURVE",
"305 214 OFFCURVE",
"315 214 CURVE SMOOTH",
"326 214 OFFCURVE",
"333 217 OFFCURVE",
"338 227 CURVE",
"574 541 LINE",
"574 542 LINE",
"580 547 OFFCURVE",
"582 553 OFFCURVE",
"582 560 CURVE SMOOTH",
"582 575 OFFCURVE",
"570 587 OFFCURVE",
"555 587 CURVE SMOOTH"
);
}
);
width = 631;
}
);
unicode = 2193;
},
{
glyphname = arrowleft;
lastChange = "2013-04-17 21:20:55 +0200";
layers = (
{
layerId = "5D30703B-31DB-48F9-9EC6-DEC4C9CE33EC";
name = Regular;
paths = (
{
closed = 1;
nodes = (
"503 667 OFFCURVE",
"497 664 OFFCURVE",
"492 659 CURVE",
"177 423 LINE",
"168 418 OFFCURVE",
"164 410 OFFCURVE",
"164 400 CURVE SMOOTH",
"164 390 OFFCURVE",
"168 382 OFFCURVE",
"177 377 CURVE",
"492 141 LINE",
"497 136 OFFCURVE",
"503 133 OFFCURVE",
"511 133 CURVE SMOOTH",
"517 133 OFFCURVE",
"524 136 OFFCURVE",
"529 141 CURVE SMOOTH",
"535 147 OFFCURVE",
"537 153 OFFCURVE",
"537 160 CURVE SMOOTH",
"537 167 OFFCURVE",
"535 173 OFFCURVE",
"529 178 CURVE",
"529 179 LINE",
"396 371 LINE",
"396 372 LINE",
"391 380 OFFCURVE",
"389 389 OFFCURVE",
"389 400 CURVE SMOOTH",
"389 410 OFFCURVE",
"392 421 OFFCURVE",
"398 430 CURVE SMOOTH",
"529 621 LINE",
"529 622 LINE",
"535 627 OFFCURVE",
"537 633 OFFCURVE",
"537 640 CURVE SMOOTH",
"537 655 OFFCURVE",
"525 667 OFFCURVE",
"511 667 CURVE SMOOTH"
);
}
);
width = 700;
}
);
unicode = 2190;
},
{
glyphname = arrowright;
lastChange = "2013-04-17 21:20:55 +0200";
layers = (
{
layerId = "5D30703B-31DB-48F9-9EC6-DEC4C9CE33EC";
name = Regular;
paths = (
{
closed = 1;
nodes = (
"183 667 OFFCURVE",
"177 664 OFFCURVE",
"172 659 CURVE SMOOTH",
"166 653 OFFCURVE",
"164 647 OFFCURVE",
"164 640 CURVE SMOOTH",
"164 633 OFFCURVE",
"166 627 OFFCURVE",
"172 622 CURVE",
"172 621 LINE",
"305 429 LINE",
"305 428 LINE",
"309 420 OFFCURVE",
"312 411 OFFCURVE",
"312 400 CURVE SMOOTH",
"312 390 OFFCURVE",
"309 380 OFFCURVE",
"303 370 CURVE",
"172 179 LINE",
"172 178 LINE",
"166 173 OFFCURVE",
"164 167 OFFCURVE",
"164 160 CURVE SMOOTH",
"164 145 OFFCURVE",
"176 133 OFFCURVE",
"190 133 CURVE SMOOTH",
"198 133 OFFCURVE",
"204 136 OFFCURVE",
"209 141 CURVE",
"524 377 LINE",
"533 382 OFFCURVE",
"537 390 OFFCURVE",
"537 400 CURVE SMOOTH",
"537 410 OFFCURVE",
"533 418 OFFCURVE",
"524 423 CURVE",
"209 659 LINE",
"204 664 OFFCURVE",
"198 667 OFFCURVE",
"190 667 CURVE SMOOTH"
);
}
);
width = 700;
}
);
unicode = 2192;
},
{
glyphname = arrowup;
lastChange = "2013-04-17 21:20:55 +0200";
layers = (
{
layerId = "5D30703B-31DB-48F9-9EC6-DEC4C9CE33EC";
name = Regular;
paths = (
{
closed = 1;
nodes = (
"305 587 OFFCURVE",
"297 583 OFFCURVE",
"292 573 CURVE",
"57 259 LINE",
"57 258 LINE",
"51 254 OFFCURVE",
"49 247 OFFCURVE",
"49 240 CURVE SMOOTH",
"49 233 OFFCURVE",
"51 227 OFFCURVE",
"57 221 CURVE SMOOTH",
"62 216 OFFCURVE",
"68 214 OFFCURVE",
"76 214 CURVE SMOOTH",
"83 214 OFFCURVE",
"89 216 OFFCURVE",
"94 221 CURVE",
"287 354 LINE",
"295 359 OFFCURVE",
"305 362 OFFCURVE",
"315 362 CURVE SMOOTH",
"326 362 OFFCURVE",
"336 359 OFFCURVE",
"346 352 CURVE SMOOTH",
"537 221 LINE",
"542 216 OFFCURVE",
"548 214 OFFCURVE",
"555 214 CURVE SMOOTH",
"570 214 OFFCURVE",
"582 225 OFFCURVE",
"582 240 CURVE SMOOTH",
"582 247 OFFCURVE",
"580 254 OFFCURVE",
"574 258 CURVE",
"574 259 LINE",
"338 573 LINE",
"333 583 OFFCURVE",
"326 587 OFFCURVE",
"315 587 CURVE SMOOTH"
);
}
);
width = 631;
}
);
unicode = 2191;
},
{
glyphname = blackdownTriangle;
lastChange = "2013-04-17 21:20:55 +0200";
layers = (
{
layerId = "5D30703B-31DB-48F9-9EC6-DEC4C9CE33EC";
name = Regular;
paths = (
{
closed = 1;
nodes = (
"73 510 LINE SMOOTH",
"63 510 OFFCURVE",
"59 500 OFFCURVE",
"66 493 CURVE SMOOTH",
"258 294 LINE SMOOTH",
"261 291 OFFCURVE",
"266 291 OFFCURVE",
"269 294 CURVE SMOOTH",
"469 492 LINE SMOOTH",
"477 500 OFFCURVE",
"472 510 OFFCURVE",
"461 510 CURVE SMOOTH"
);
}
);
width = 536;
}
);
unicode = 25BE;
},
{
glyphname = heavyCheckMark;
lastChange = "2013-04-17 21:20:55 +0200";
layers = (
{
layerId = "5D30703B-31DB-48F9-9EC6-DEC4C9CE33EC";
name = Regular;
paths = (
{
closed = 1;
nodes = (
"255 516 OFFCURVE",
"250 516 OFFCURVE",
"247 512 CURVE SMOOTH",
"117 382 LINE SMOOTH",
"114 379 OFFCURVE",
"107 379 OFFCURVE",
"104 382 CURVE SMOOTH",
"50 436 LINE SMOOTH",
"47 440 OFFCURVE",
"42 440 OFFCURVE",
"38 436 CURVE SMOOTH",
"3 401 LINE SMOOTH",
"-1 398 OFFCURVE",
"-1 392 OFFCURVE",
"3 389 CURVE SMOOTH",
"104 288 LINE SMOOTH",
"107 284 OFFCURVE",
"114 284 OFFCURVE",
"117 288 CURVE SMOOTH",
"293 464 LINE SMOOTH",
"298 468 OFFCURVE",
"298 474 OFFCURVE",
"293 478 CURVE SMOOTH",
"259 512 LINE SMOOTH"
);
}
);
width = 297;
}
);
unicode = 2714;
},
{
glyphname = lowerRightPencil;
lastChange = "2013-04-17 21:20:55 +0200";
layers = (
{
layerId = "5D30703B-31DB-48F9-9EC6-DEC4C9CE33EC";
name = Regular;
paths = (
{
closed = 1;
nodes = (
"137 312 LINE",
"232 229 LINE",
"443 481 LINE",
"346 563 LINE"
);
},
{
closed = 1;
nodes = (
"98 170 LINE",
"216 214 LINE",
"121 294 LINE"
);
},
{
closed = 1;
nodes = (
"406 629 OFFCURVE",
"400 628 OFFCURVE",
"396 623 CURVE SMOOTH",
"362 581 LINE",
"458 499 LINE",
"493 541 LINE SMOOTH",
"502 551 OFFCURVE",
"502 562 OFFCURVE",
"491 570 CURVE SMOOTH",
"424 627 LINE SMOOTH",
"421 629 OFFCURVE",
"417 630 OFFCURVE",
"411 630 CURVE SMOOTH"
);
}
);
width = 598;
}
);
unicode = 270E;
},
{
glyphname = multiplicationX;
lastChange = "2013-04-17 21:20:55 +0200";
layers = (
{
layerId = "5D30703B-31DB-48F9-9EC6-DEC4C9CE33EC";
name = Regular;
paths = (
{
closed = 1;
nodes = (
"201 523 LINE",
"125 447 LINE",
"49 523 LINE",
"46 525 LINE",
"43 526 OFFCURVE",
"41 525 OFFCURVE",
"38 523 CURVE SMOOTH",
"2 487 LINE SMOOTH",
"0 484 OFFCURVE",
"-1 482 OFFCURVE",
"0 479 CURVE",
"2 476 LINE",
"78 400 LINE",
"2 324 LINE",
"0 321 LINE",
"-1 318 OFFCURVE",
"0 316 OFFCURVE",
"2 313 CURVE SMOOTH",
"38 277 LINE SMOOTH",
"41 275 OFFCURVE",
"43 274 OFFCURVE",
"46 276 CURVE",
"47 276 OFFCURVE",
"48 276 OFFCURVE",
"49 277 CURVE SMOOTH",
"125 353 LINE",
"201 277 LINE SMOOTH",
"202 276 OFFCURVE",
"203 276 OFFCURVE",
"204 276 CURVE",
"207 274 OFFCURVE",
"209 275 OFFCURVE",
"212 277 CURVE SMOOTH",
"248 313 LINE SMOOTH",
"250 316 OFFCURVE",
"251 318 OFFCURVE",
"250 321 CURVE",
"248 324 LINE",
"172 400 LINE",
"248 476 LINE",
"250 479 LINE",
"251 482 OFFCURVE",
"250 484 OFFCURVE",
"248 487 CURVE SMOOTH",
"212 523 LINE SMOOTH",
"209 525 OFFCURVE",
"207 526 OFFCURVE",
"204 525 CURVE"
);
}
);
width = 250;
}
);
unicode = 2715;
},
{
glyphname = uniFFEE;
lastChange = "2013-04-17 21:20:55 +0200";
layers = (
{
layerId = "5D30703B-31DB-48F9-9EC6-DEC4C9CE33EC";
name = Regular;
paths = (
{
closed = 1;
nodes = (
"350 598 OFFCURVE",
"301 569 OFFCURVE",
"274 524 CURVE",
"261 532 OFFCURVE",
"246 535 OFFCURVE",
"232 535 CURVE SMOOTH",
"183 535 OFFCURVE",
"145 495 OFFCURVE",
"143 449 CURVE",
"92 432 OFFCURVE",
"55 385 OFFCURVE",
"55 329 CURVE SMOOTH",
"55 259 OFFCURVE",
"113 202 OFFCURVE",
"182 202 CURVE SMOOTH",
"518 202 LINE SMOOTH",
"588 202 OFFCURVE",
"645 259 OFFCURVE",
"645 329 CURVE SMOOTH",
"645 385 OFFCURVE",
"609 432 OFFCURVE",
"558 448 CURVE",
"557 532 OFFCURVE",
"489 598 OFFCURVE",
"405 598 CURVE SMOOTH"
);
},
{
closed = 1;
nodes = (
"465 555 OFFCURVE",
"516 506 OFFCURVE",
"516 445 CURVE SMOOTH",
"516 435 LINE",
"515 424 OFFCURVE",
"523 414 OFFCURVE",
"534 412 CURVE SMOOTH",
"573 405 OFFCURVE",
"603 369 OFFCURVE",
"603 329 CURVE SMOOTH",
"603 282 OFFCURVE",
"564 245 OFFCURVE",
"518 245 CURVE SMOOTH",
"399 245 LINE",
"399 319 LINE",
"459 319 LINE",
"356 439 LINE",
"253 319 LINE",
"313 319 LINE",
"313 245 LINE",
"182 245 LINE SMOOTH",
"136 245 OFFCURVE",
"97 282 OFFCURVE",
"97 329 CURVE SMOOTH",
"97 371 OFFCURVE",
"127 405 OFFCURVE",
"168 412 CURVE SMOOTH",
"181 414 OFFCURVE",
"188 425 OFFCURVE",
"185 436 CURVE SMOOTH",
"185 445 LINE SMOOTH",
"185 459 OFFCURVE",
"190 470 OFFCURVE",
"199 479 CURVE SMOOTH",
"217 497 OFFCURVE",
"248 496 OFFCURVE",
"265 477 CURVE",
"276 466 OFFCURVE",
"295 469 OFFCURVE",
"301 484 CURVE SMOOTH",
"318 526 OFFCURVE",
"358 555 OFFCURVE",
"405 555 CURVE SMOOTH"
);
}
);
width = 700;
}
);
unicode = FFEE;
},
{
glyphname = writingHand;
lastChange = "2013-04-17 21:20:55 +0200";
layers = (
{
layerId = "5D30703B-31DB-48F9-9EC6-DEC4C9CE33EC";
name = Regular;
paths = (
{
closed = 1;
nodes = (
"183 565 LINE SMOOTH",
"153 565 OFFCURVE",
"127 538 OFFCURVE",
"127 507 CURVE SMOOTH",
"127 222 LINE SMOOTH",
"127 190 OFFCURVE",
"153 165 OFFCURVE",
"183 165 CURVE SMOOTH",
"474 165 LINE SMOOTH",
"506 165 OFFCURVE",
"531 190 OFFCURVE",
"531 222 CURVE SMOOTH",
"531 473 LINE",
"474 404 LINE",
"474 222 LINE",
"183 222 LINE",
"183 507 LINE",
"356 507 LINE",
"404 565 LINE"
);
},
{
closed = 1;
nodes = (
"245 258 LINE",
"339 294 LINE",
"266 355 LINE"
);
},
{
closed = 1;
nodes = (
"282 376 LINE",
"358 309 LINE",
"524 508 LINE",
"447 575 LINE"
);
},
{
closed = 1;
nodes = (
"467 594 LINE",
"541 529 LINE",
"570 562 LINE SMOOTH",
"576 571 OFFCURVE",
"575 577 OFFCURVE",
"566 585 CURVE SMOOTH",
"519 626 LINE SMOOTH",
"510 633 OFFCURVE",
"499 635 OFFCURVE",
"492 627 CURVE"
);
}
);
width = 700;
}
);
unicode = 270D;
},
{
glyphname = uniE01F;
lastChange = "2013-04-18 06:31:01 +0200";
layers = (
{
layerId = "5D30703B-31DB-48F9-9EC6-DEC4C9CE33EC";
name = Regular;
paths = (
{
closed = 1;
nodes = (
"367 578 LINE",
"358 578 LINE",
"350 578 LINE",
"346 578 LINE",
"336 578 LINE",
"186 573 LINE",
"187 554 LINE",
"202 552 OFFCURVE",
"210 551 OFFCURVE",
"214 551 CURVE SMOOTH",
"221 551 OFFCURVE",
"226 550 OFFCURVE",
"229 547 CURVE",
"231 547 OFFCURVE",
"232 547 OFFCURVE",
"233 545 CURVE SMOOTH",
"234 541 OFFCURVE",
"235 532 OFFCURVE",
"236 520 CURVE SMOOTH",
"236 503 OFFCURVE",
"237 483 OFFCURVE",
"237 458 CURVE SMOOTH",
"237 439 OFFCURVE",
"238 428 OFFCURVE",
"238 425 CURVE SMOOTH",
"238 311 LINE SMOOTH",
"238 289 OFFCURVE",
"237 274 OFFCURVE",
"236 266 CURVE SMOOTH",
"235 262 OFFCURVE",
"233 258 OFFCURVE",
"231 255 CURVE",
"222 251 OFFCURVE",
"212 248 OFFCURVE",
"202 247 CURVE SMOOTH",
"193 245 OFFCURVE",
"188 245 OFFCURVE",
"186 244 CURVE",
"186 222 LINE",
"204 222 OFFCURVE",
"218 223 OFFCURVE",
"228 224 CURVE",
"232 224 OFFCURVE",
"237 224 OFFCURVE",
"241 224 CURVE SMOOTH",
"249 224 LINE",
"282 227 OFFCURVE",
"305 228 OFFCURVE",
"319 227 CURVE SMOOTH",
"365 226 LINE SMOOTH",
"404 226 OFFCURVE",
"435 232 OFFCURVE",
"459 242 CURVE SMOOTH",
"482 253 OFFCURVE",
"501 274 OFFCURVE",
"509 295 CURVE",
"513 308 OFFCURVE",
"515 321 OFFCURVE",
"515 332 CURVE SMOOTH",
"515 375 OFFCURVE",
"485 408 OFFCURVE",
"432 421 CURVE",
"450 429 OFFCURVE",
"466 438 OFFCURVE",
"467 439 CURVE",
"486 453 OFFCURVE",
"496 471 OFFCURVE",
"496 493 CURVE SMOOTH",
"496 503 OFFCURVE",
"494 512 OFFCURVE",
"492 521 CURVE SMOOTH",
"484 539 OFFCURVE",
"472 553 OFFCURVE",
"452 563 CURVE",
"444 568 OFFCURVE",
"437 570 OFFCURVE",
"429 571 CURVE",
"414 575 OFFCURVE",
"399 578 OFFCURVE",
"385 578 CURVE SMOOTH"
);
},
{
closed = 1;
nodes = (
"388 405 OFFCURVE",
"409 395 OFFCURVE",
"425 370 CURVE SMOOTH",
"433 358 OFFCURVE",
"436 343 OFFCURVE",
"436 325 CURVE SMOOTH",
"436 296 OFFCURVE",
"424 269 OFFCURVE",
"399 257 CURVE SMOOTH",
"373 245 OFFCURVE",
"337 245 OFFCURVE",
"315 255 CURVE",
"314 258 OFFCURVE",
"313 262 OFFCURVE",
"313 265 CURVE",
"312 328 LINE",
"312 401 LINE",
"319 403 OFFCURVE",
"327 404 OFFCURVE",
"336 404 CURVE SMOOTH"
);
},
{
closed = 1;
nodes = (
"368 554 OFFCURVE",
"388 548 OFFCURVE",
"401 537 CURVE",
"414 525 OFFCURVE",
"421 511 OFFCURVE",
"421 493 CURVE SMOOTH",
"421 445 OFFCURVE",
"393 426 OFFCURVE",
"338 426 CURVE SMOOTH",
"328 426 OFFCURVE",
"319 426 OFFCURVE",
"312 428 CURVE",
"312 468 LINE SMOOTH",
"313 483 OFFCURVE",
"313 505 OFFCURVE",
"311 533 CURVE",
"311 538 OFFCURVE",
"310 544 OFFCURVE",
"310 551 CURVE",
"323 553 OFFCURVE",
"332 554 OFFCURVE",
"341 554 CURVE SMOOTH"
);
}
);
width = 700;
}
);
unicode = E01F;
},
{
glyphname = uniE032;
lastChange = "2013-04-18 06:31:15 +0200";
layers = (
{
layerId = "5D30703B-31DB-48F9-9EC6-DEC4C9CE33EC";
name = Regular;
paths = (
{
closed = 1;
nodes = (
"377 489 LINE",
"467 399 LINE",
"376 310 LINE",
"417 270 LINE",
"549 401 LINE",
"421 530 LINE"
);
},
{
closed = 1;
nodes = (
"151 399 LINE",
"279 270 LINE",
"323 311 LINE",
"233 401 LINE",
"324 490 LINE",
"283 530 LINE"
);
}
);
width = 700;
}
);
unicode = E032;
},
{
glyphname = uniE079;
lastChange = "2013-04-18 06:31:28 +0200";
layers = (
{
layerId = "5D30703B-31DB-48F9-9EC6-DEC4C9CE33EC";
name = Regular;
paths = (
{
closed = 1;
nodes = (
"467 579 OFFCURVE",
"465 579 OFFCURVE",
"448 577 CURVE SMOOTH",
"427 576 OFFCURVE",
"410 575 OFFCURVE",
"397 575 CURVE SMOOTH",
"391 575 LINE SMOOTH",
"390 575 OFFCURVE",
"388 575 OFFCURVE",
"386 576 CURVE",
"379 576 LINE",
"303 579 LINE",
"298 555 LINE",
"303 555 LINE",
"303 554 OFFCURVE",
"306 554 OFFCURVE",
"308 554 CURVE",
"324 553 OFFCURVE",
"335 551 OFFCURVE",
"343 547 CURVE",
"343 538 LINE",
"340 527 LINE",
"335 496 LINE",
"332 481 LINE",
"324 444 LINE",
"324 443 OFFCURVE",
"323 439 OFFCURVE",
"320 429 CURVE SMOOTH",
"317 418 OFFCURVE",
"313 405 OFFCURVE",
"311 388 CURVE SMOOTH",
"308 373 LINE",
"294 311 LINE",
"288 279 LINE SMOOTH",
"286 270 OFFCURVE",
"283 262 OFFCURVE",
"278 255 CURVE",
"267 251 OFFCURVE",
"258 248 OFFCURVE",
"250 246 CURVE SMOOTH",
"246 245 OFFCURVE",
"239 244 OFFCURVE",
"236 243 CURVE SMOOTH",
"234 242 OFFCURVE",
"233 242 OFFCURVE",
"232 241 CURVE",
"227 222 LINE",
"233 222 OFFCURVE",
"235 222 OFFCURVE",
"250 223 CURVE SMOOTH",
"270 226 OFFCURVE",
"285 227 OFFCURVE",
"293 226 CURVE",
"340 226 LINE",
"351 225 OFFCURVE",
"359 224 OFFCURVE",
"365 223 CURVE",
"368 222 OFFCURVE",
"371 222 OFFCURVE",
"375 222 CURVE SMOOTH",
"376 222 OFFCURVE",
"377 221 OFFCURVE",
"379 221 CURVE",
"379 221 OFFCURVE",
"380 221 OFFCURVE",
"382 221 CURVE SMOOTH",
"385 221 LINE SMOOTH",
"388 221 OFFCURVE",
"390 221 OFFCURVE",
"392 222 CURVE",
"397 222 LINE",
"398 224 OFFCURVE",
"398 226 OFFCURVE",
"398 228 CURVE SMOOTH",
"398 228 OFFCURVE",
"399 229 OFFCURVE",
"400 232 CURVE",
"400 232 OFFCURVE",
"400 233 OFFCURVE",
"400 234 CURVE SMOOTH",
"400 238 LINE SMOOTH",
"400 238 OFFCURVE",
"400 239 OFFCURVE",
"401 241 CURVE",
"401 245 LINE",
"390 247 LINE",
"389 248 OFFCURVE",
"387 248 OFFCURVE",
"386 248 CURVE SMOOTH",
"378 248 OFFCURVE",
"370 250 OFFCURVE",
"357 253 CURVE",
"356 254 OFFCURVE",
"356 255 OFFCURVE",
"356 256 CURVE SMOOTH",
"356 259 LINE",
"360 269 LINE",
"370 324 LINE",
"379 360 LINE",
"393 433 LINE",
"409 504 LINE",
"411 515 OFFCURVE",
"415 536 OFFCURVE",
"418 544 CURVE",
"426 546 OFFCURVE",
"434 549 OFFCURVE",
"442 551 CURVE SMOOTH",
"456 554 OFFCURVE",
"464 556 OFFCURVE",
"469 558 CURVE",
"470 564 OFFCURVE",
"471 568 OFFCURVE",
"472 570 CURVE",
"472 570 OFFCURVE",
"472 571 OFFCURVE",
"473 572 CURVE",
"473 573 OFFCURVE",
"473 574 OFFCURVE",
"473 574 CURVE",
"473 579 LINE"
);
}
);
width = 700;
}
);
unicode = E079;
},
{
glyphname = uniE159;
lastChange = "2013-04-18 06:31:38 +0200";
layers = (
{
layerId = "5D30703B-31DB-48F9-9EC6-DEC4C9CE33EC";
name = Regular;
paths = (
{
closed = 1;
nodes = (
"346 371 LINE",
"379 350 OFFCURVE",
"395 328 OFFCURVE",
"395 301 CURVE SMOOTH",
"395 274 OFFCURVE",
"376 251 OFFCURVE",
"342 251 CURVE SMOOTH",
"303 251 OFFCURVE",
"267 291 OFFCURVE",
"256 329 CURVE",
"237 328 LINE",
"237 292 OFFCURVE",
"243 258 OFFCURVE",
"253 246 CURVE",
"275 234 OFFCURVE",
"303 228 OFFCURVE",
"337 228 CURVE SMOOTH",
"413 228 OFFCURVE",
"463 268 OFFCURVE",
"463 329 CURVE SMOOTH",
"463 344 OFFCURVE",
"460 358 OFFCURVE",
"454 371 CURVE"
);
},
{
closed = 1;
nodes = (
"179 415 LINE",
"179 385 LINE",
"521 385 LINE",
"521 415 LINE"
);
},
{
closed = 1;
nodes = (
"332 572 OFFCURVE",
"305 564 OFFCURVE",
"283 547 CURVE SMOOTH",
"242 511 OFFCURVE",
"247 458 OFFCURVE",
"267 429 CURVE",
"391 429 LINE",
"360 446 LINE SMOOTH",
"330 463 OFFCURVE",
"315 481 OFFCURVE",
"315 503 CURVE SMOOTH",
"315 529 OFFCURVE",
"334 549 OFFCURVE",
"366 549 CURVE SMOOTH",
"397 549 OFFCURVE",
"421 520 OFFCURVE",
"431 488 CURVE",
"432 488 OFFCURVE",
"438 488 OFFCURVE",
"451 489 CURVE",
"451 520 OFFCURVE",
"448 544 OFFCURVE",
"442 561 CURVE",
"435 562 OFFCURVE",
"430 563 OFFCURVE",
"425 565 CURVE SMOOTH",
"406 570 OFFCURVE",
"388 572 OFFCURVE",
"368 572 CURVE SMOOTH"
);
}
);
width = 700;
}
);
unicode = E159;
},
{
glyphname = uniF034;
lastChange = "2013-04-18 06:31:47 +0200";
layers = (
{
layerId = "5D30703B-31DB-48F9-9EC6-DEC4C9CE33EC";
name = Regular;
paths = (
{
closed = 1;
nodes = (
"501 593 LINE",
"491 592 LINE",
"491 590 OFFCURVE",
"490 589 OFFCURVE",
"489 588 CURVE",
"489 587 OFFCURVE",
"488 586 OFFCURVE",
"488 585 CURVE",
"485 578 OFFCURVE",
"483 572 OFFCURVE",
"482 571 CURVE",
"468 568 LINE",
"395 568 LINE",
"342 569 LINE",
"314 568 LINE",
"308 568 LINE SMOOTH",
"304 568 OFFCURVE",
"299 568 OFFCURVE",
"294 568 CURVE SMOOTH",
"277 568 LINE SMOOTH",
"258 568 OFFCURVE",
"247 568 OFFCURVE",
"245 568 CURVE",
"234 587 LINE",
"234 589 OFFCURVE",
"234 589 OFFCURVE",
"231 592 CURVE",
"218 592 LINE",
"216 589 OFFCURVE",
"215 588 OFFCURVE",
"215 584 CURVE SMOOTH",
"215 580 OFFCURVE",
"213 575 OFFCURVE",
"211 570 CURVE SMOOTH",
"204 533 OFFCURVE",
"197 508 OFFCURVE",
"191 495 CURVE",
"205 485 LINE",
"207 485 OFFCURVE",
"210 488 OFFCURVE",
"215 494 CURVE SMOOTH",
"241 535 OFFCURVE",
"244 538 OFFCURVE",
"274 538 CURVE SMOOTH",
"306 538 LINE SMOOTH",
"314 538 OFFCURVE",
"319 538 OFFCURVE",
"322 536 CURVE",
"325 536 OFFCURVE",
"327 534 OFFCURVE",
"327 531 CURVE SMOOTH",
"327 513 LINE SMOOTH",
"327 505 OFFCURVE",
"327 492 OFFCURVE",
"328 478 CURVE SMOOTH",
"329 370 LINE SMOOTH",
"330 321 OFFCURVE",
"329 285 OFFCURVE",
"327 262 CURVE",
"327 256 OFFCURVE",
"327 251 OFFCURVE",
"325 248 CURVE",
"318 244 OFFCURVE",
"308 240 OFFCURVE",
"291 235 CURVE SMOOTH",
"281 232 OFFCURVE",
"274 229 OFFCURVE",
"271 222 CURVE",
"271 214 LINE",
"271 214 OFFCURVE",
"272 213 OFFCURVE",
"272 212 CURVE",
"273 211 OFFCURVE",
"273 209 OFFCURVE",
"273 207 CURVE",
"273 207 OFFCURVE",
"275 207 OFFCURVE",
"278 208 CURVE SMOOTH",
"289 208 LINE",
"301 210 OFFCURVE",
"310 211 OFFCURVE",
"317 212 CURVE SMOOTH",
"331 212 LINE SMOOTH",
"361 212 OFFCURVE",
"380 212 OFFCURVE",
"392 211 CURVE SMOOTH",
"404 208 OFFCURVE",
"417 208 OFFCURVE",
"433 208 CURVE SMOOTH",
"442 208 LINE",
"442 212 LINE SMOOTH",
"442 214 OFFCURVE",
"442 215 OFFCURVE",
"442 215 CURVE SMOOTH",
"442 220 LINE SMOOTH",
"442 222 OFFCURVE",
"442 225 OFFCURVE",
"441 229 CURVE",
"438 229 OFFCURVE",
"433 231 OFFCURVE",
"429 233 CURVE",
"425 234 OFFCURVE",
"420 235 OFFCURVE",
"416 236 CURVE SMOOTH",
"411 236 LINE",
"404 238 OFFCURVE",
"400 240 OFFCURVE",
"397 241 CURVE",
"395 248 OFFCURVE",
"395 258 OFFCURVE",
"395 270 CURVE SMOOTH",
"395 307 LINE",
"394 398 LINE",
"394 519 LINE SMOOTH",
"394 523 OFFCURVE",
"394 529 OFFCURVE",
"395 536 CURVE",
"398 538 OFFCURVE",
"401 538 OFFCURVE",
"404 538 CURVE SMOOTH",
"407 538 OFFCURVE",
"410 538 OFFCURVE",
"412 538 CURVE SMOOTH",
"447 538 LINE SMOOTH",
"454 538 OFFCURVE",
"460 538 OFFCURVE",
"461 536 CURVE",
"464 535 OFFCURVE",
"466 534 OFFCURVE",
"469 531 CURVE",
"469 529 OFFCURVE",
"473 522 OFFCURVE",
"478 508 CURVE SMOOTH",
"482 495 OFFCURVE",
"487 484 OFFCURVE",
"491 476 CURVE",
"493 477 OFFCURVE",
"496 478 OFFCURVE",
"498 478 CURVE",
"501 479 OFFCURVE",
"504 479 OFFCURVE",
"508 481 CURVE",
"509 484 OFFCURVE",
"509 489 OFFCURVE",
"509 494 CURVE SMOOTH",
"509 533 LINE SMOOTH",
"509 546 OFFCURVE",
"509 558 OFFCURVE",
"509 568 CURVE SMOOTH",
"509 592 LINE",
"507 592 OFFCURVE",
"505 593 OFFCURVE",
"504 593 CURVE SMOOTH"
);
}
);
width = 700;
}
);
unicode = F034;
},
{
glyphname = uniF03B;
lastChange = "2013-04-18 06:33:33 +0200";
layers = (
{
layerId = "5D30703B-31DB-48F9-9EC6-DEC4C9CE33EC";
name = Regular;
paths = (
{
closed = 1;
nodes = (
"458 593 LINE",
"458 562 LINE",
"465 562 LINE SMOOTH",
"489 562 OFFCURVE",
"494 558 OFFCURVE",
"497 543 CURVE",
"498 539 OFFCURVE",
"499 521 OFFCURVE",
"499 491 CURVE SMOOTH",
"499 437 OFFCURVE",
"510 415 OFFCURVE",
"541 400 CURVE",
"517 390 OFFCURVE",
"504 373 OFFCURVE",
"501 340 CURVE SMOOTH",
"499 329 OFFCURVE",
"499 308 OFFCURVE",
"499 279 CURVE SMOOTH",
"499 243 OFFCURVE",
"492 237 OFFCURVE",
"465 237 CURVE SMOOTH",
"458 237 LINE",
"458 207 LINE",
"470 207 LINE SMOOTH",
"495 207 OFFCURVE",
"506 209 OFFCURVE",
"517 220 CURVE",
"522 226 OFFCURVE",
"526 234 OFFCURVE",
"529 243 CURVE SMOOTH",
"535 265 OFFCURVE",
"534 332 OFFCURVE",
"534 334 CURVE SMOOTH",
"535 358 OFFCURVE",
"542 371 OFFCURVE",
"555 379 CURVE SMOOTH",
"560 382 OFFCURVE",
"567 383 OFFCURVE",
"575 383 CURVE",
"575 416 LINE",
"555 417 OFFCURVE",
"542 427 OFFCURVE",
"537 444 CURVE",
"535 452 OFFCURVE",
"533 469 OFFCURVE",
"533 495 CURVE",
"532 548 OFFCURVE",
"531 559 OFFCURVE",
"520 574 CURVE",
"515 582 OFFCURVE",
"507 588 OFFCURVE",
"499 590 CURVE",
"493 593 OFFCURVE",
"483 593 OFFCURVE",
"470 593 CURVE SMOOTH"
);
},
{
closed = 1;
nodes = (
"231 593 LINE SMOOTH",
"208 593 OFFCURVE",
"195 591 OFFCURVE",
"183 579 CURVE SMOOTH",
"178 573 OFFCURVE",
"174 566 OFFCURVE",
"171 557 CURVE",
"165 535 OFFCURVE",
"166 468 OFFCURVE",
"166 466 CURVE",
"164 442 OFFCURVE",
"159 429 OFFCURVE",
"145 421 CURVE SMOOTH",
"140 418 OFFCURVE",
"134 417 OFFCURVE",
"125 416 CURVE",
"125 383 LINE",
"144 383 OFFCURVE",
"159 373 OFFCURVE",
"163 355 CURVE SMOOTH",
"165 345 OFFCURVE",
"167 329 OFFCURVE",
"167 305 CURVE SMOOTH",
"167 260 OFFCURVE",
"169 241 OFFCURVE",
"179 226 CURVE",
"192 210 OFFCURVE",
"202 207 OFFCURVE",
"231 207 CURVE SMOOTH",
"242 207 LINE",
"242 237 LINE",
"229 237 OFFCURVE",
"220 238 OFFCURVE",
"216 240 CURVE",
"208 243 OFFCURVE",
"204 249 OFFCURVE",
"202 263 CURVE SMOOTH",
"201 269 OFFCURVE",
"201 285 OFFCURVE",
"201 309 CURVE SMOOTH",
"201 366 OFFCURVE",
"189 388 OFFCURVE",
"159 400 CURVE",
"186 412 OFFCURVE",
"196 429 OFFCURVE",
"200 461 CURVE SMOOTH",
"200 469 OFFCURVE",
"201 490 OFFCURVE",
"201 521 CURVE SMOOTH",
"201 554 OFFCURVE",
"208 562 OFFCURVE",
"235 562 CURVE SMOOTH",
"242 562 LINE",
"242 593 LINE"
);
},
{
closed = 1;
nodes = (
"302 510 OFFCURVE",
"268 460 OFFCURVE",
"268 400 CURVE SMOOTH",
"268 340 OFFCURVE",
"302 290 OFFCURVE",
"354 290 CURVE SMOOTH",
"404 290 OFFCURVE",
"436 341 OFFCURVE",
"436 400 CURVE SMOOTH",
"436 460 OFFCURVE",
"404 510 OFFCURVE",
"354 510 CURVE SMOOTH"
);
},
{
closed = 1;
nodes = (
"308 338 LINE",
"384 478 LINE",
"396 463 LINE",
"321 323 LINE"
);
},
{
closed = 1;
nodes = (
"392 487 OFFCURVE",
"413 447 OFFCURVE",
"413 400 CURVE SMOOTH",
"413 352 OFFCURVE",
"392 313 OFFCURVE",
"354 313 CURVE SMOOTH",
"314 313 OFFCURVE",
"291 353 OFFCURVE",
"291 400 CURVE SMOOTH",
"291 447 OFFCURVE",
"314 487 OFFCURVE",
"354 487 CURVE SMOOTH"
);
}
);
width = 700;
}
);
unicode = F03B;
},
{
glyphname = uniF0CA;
lastChange = "2013-04-18 06:36:10 +0200";
layers = (
{
layerId = "5D30703B-31DB-48F9-9EC6-DEC4C9CE33EC";
name = Regular;
paths = (
{
closed = 1;
nodes = (
"284 544 LINE SMOOTH",
"275 544 OFFCURVE",
"268 536 OFFCURVE",
"268 527 CURVE SMOOTH",
"268 504 LINE SMOOTH",
"268 495 OFFCURVE",
"275 487 OFFCURVE",
"284 487 CURVE SMOOTH",
"526 487 LINE SMOOTH",
"534 487 OFFCURVE",
"541 495 OFFCURVE",
"541 504 CURVE SMOOTH",
"541 527 LINE SMOOTH",
"541 536 OFFCURVE",
"534 544 OFFCURVE",
"526 544 CURVE SMOOTH"
);
},
{
closed = 1;
nodes = (
"188 324 OFFCURVE",
"179 320 OFFCURVE",
"171 314 CURVE SMOOTH",
"164 306 OFFCURVE",
"159 296 OFFCURVE",
"159 285 CURVE SMOOTH",
"159 262 OFFCURVE",
"177 245 OFFCURVE",
"199 245 CURVE SMOOTH",
"210 245 OFFCURVE",
"220 250 OFFCURVE",
"227 256 CURVE SMOOTH",
"235 264 OFFCURVE",
"239 274 OFFCURVE",
"239 285 CURVE SMOOTH",
"239 296 OFFCURVE",
"235 306 OFFCURVE",
"227 314 CURVE SMOOTH",
"220 320 OFFCURVE",
"211 324 OFFCURVE",
"199 324 CURVE SMOOTH"
);
},
{
closed = 1;
nodes = (
"188 440 OFFCURVE",
"179 435 OFFCURVE",
"171 429 CURVE SMOOTH",
"164 422 OFFCURVE",
"159 411 OFFCURVE",
"159 400 CURVE SMOOTH",
"159 389 OFFCURVE",
"164 379 OFFCURVE",
"171 372 CURVE SMOOTH",
"179 365 OFFCURVE",
"188 360 OFFCURVE",
"199 360 CURVE SMOOTH",
"210 360 OFFCURVE",
"220 365 OFFCURVE",
"227 372 CURVE SMOOTH",
"235 379 OFFCURVE",
"239 389 OFFCURVE",
"239 400 CURVE SMOOTH",
"239 411 OFFCURVE",
"235 422 OFFCURVE",
"227 429 CURVE SMOOTH",
"220 435 OFFCURVE",
"211 440 OFFCURVE",
"199 440 CURVE SMOOTH"
);
},
{
closed = 1;
nodes = (
"284 313 LINE SMOOTH",
"275 313 OFFCURVE",
"268 305 OFFCURVE",
"268 296 CURVE SMOOTH",
"268 273 LINE SMOOTH",
"268 264 OFFCURVE",
"275 257 OFFCURVE",
"284 257 CURVE SMOOTH",
"526 257 LINE SMOOTH",
"534 257 OFFCURVE",
"541 264 OFFCURVE",
"541 273 CURVE SMOOTH",
"541 296 LINE SMOOTH",
"541 305 OFFCURVE",
"534 313 OFFCURVE",
"526 313 CURVE SMOOTH"
);
},
{
closed = 1;
nodes = (
"188 555 OFFCURVE",
"179 551 OFFCURVE",
"171 544 CURVE SMOOTH",
"164 536 OFFCURVE",
"159 526 OFFCURVE",
"159 515 CURVE SMOOTH",
"159 505 OFFCURVE",
"164 495 OFFCURVE",
"171 486 CURVE SMOOTH",
"179 481 OFFCURVE",
"188 476 OFFCURVE",
"199 476 CURVE SMOOTH",
"210 476 OFFCURVE",
"220 481 OFFCURVE",
"227 486 CURVE SMOOTH",
"235 495 OFFCURVE",
"239 505 OFFCURVE",
"239 515 CURVE SMOOTH",
"239 526 OFFCURVE",
"235 536 OFFCURVE",
"227 544 CURVE SMOOTH",
"220 551 OFFCURVE",
"211 555 OFFCURVE",
"199 555 CURVE SMOOTH"
);
},
{
closed = 1;
nodes = (
"284 428 LINE SMOOTH",
"275 428 OFFCURVE",
"268 421 OFFCURVE",
"268 412 CURVE SMOOTH",
"268 388 LINE SMOOTH",
"268 379 OFFCURVE",
"275 372 OFFCURVE",
"284 372 CURVE SMOOTH",
"526 372 LINE SMOOTH",
"534 372 OFFCURVE",
"541 379 OFFCURVE",
"541 388 CURVE SMOOTH",
"541 412 LINE SMOOTH",
"541 421 OFFCURVE",
"534 428 OFFCURVE",
"526 428 CURVE SMOOTH"
);
}
);
width = 700;
}
);
unicode = F0CA;
},
{
glyphname = uniF0CB;
lastChange = "2013-04-18 06:36:18 +0200";
layers = (
{
layerId = "5D30703B-31DB-48F9-9EC6-DEC4C9CE33EC";
name = Regular;
paths = (
{
closed = 1;
nodes = (
"284 544 LINE SMOOTH",
"275 544 OFFCURVE",
"268 536 OFFCURVE",
"268 527 CURVE SMOOTH",
"268 504 LINE SMOOTH",
"268 495 OFFCURVE",
"275 487 OFFCURVE",
"284 487 CURVE SMOOTH",
"526 487 LINE SMOOTH",
"534 487 OFFCURVE",
"541 495 OFFCURVE",
"541 504 CURVE SMOOTH",
"541 527 LINE SMOOTH",
"541 536 OFFCURVE",
"534 544 OFFCURVE",
"526 544 CURVE SMOOTH"
);
},
{
closed = 1;
nodes = (
"163 329 LINE",
"163 305 LINE",
"176 305 LINE",
"176 316 LINE",
"200 316 LINE",
"197 313 LINE",
"179 290 LINE",
"182 282 LINE",
"187 282 LINE SMOOTH",
"196 282 OFFCURVE",
"203 277 OFFCURVE",
"203 269 CURVE SMOOTH",
"203 261 OFFCURVE",
"197 255 OFFCURVE",
"187 255 CURVE SMOOTH",
"182 255 OFFCURVE",
"177 256 OFFCURVE",
"173 259 CURVE",
"171 261 LINE SMOOTH",
"170 262 OFFCURVE",
"168 263 OFFCURVE",
"168 264 CURVE",
"161 253 LINE",
"162 251 OFFCURVE",
"164 249 OFFCURVE",
"167 247 CURVE",
"172 244 OFFCURVE",
"179 241 OFFCURVE",
"188 241 CURVE SMOOTH",
"208 241 OFFCURVE",
"220 255 OFFCURVE",
"220 269 CURVE SMOOTH",
"220 284 OFFCURVE",
"208 292 OFFCURVE",
"197 294 CURVE",
"217 318 LINE",
"217 329 LINE"
);
},
{
closed = 1;
nodes = (
"177 444 OFFCURVE",
"167 438 OFFCURVE",
"161 426 CURVE",
"171 419 LINE",
"175 425 OFFCURVE",
"181 429 OFFCURVE",
"187 429 CURVE SMOOTH",
"195 429 OFFCURVE",
"201 426 OFFCURVE",
"201 417 CURVE SMOOTH",
"201 408 OFFCURVE",
"191 402 OFFCURVE",
"180 395 CURVE SMOOTH",
"169 388 OFFCURVE",
"159 379 OFFCURVE",
"159 364 CURVE SMOOTH",
"159 362 OFFCURVE",
"160 359 OFFCURVE",
"161 356 CURVE",
"220 356 LINE",
"220 380 LINE",
"206 380 LINE",
"206 369 LINE",
"177 369 LINE",
"177 378 OFFCURVE",
"187 383 OFFCURVE",
"197 390 CURVE SMOOTH",
"207 397 OFFCURVE",
"217 405 OFFCURVE",
"217 418 CURVE SMOOTH",
"217 435 OFFCURVE",
"204 444 OFFCURVE",
"188 444 CURVE SMOOTH"
);
},
{
closed = 1;
nodes = (
"284 313 LINE SMOOTH",
"275 313 OFFCURVE",
"268 305 OFFCURVE",
"268 296 CURVE SMOOTH",
"268 273 LINE SMOOTH",
"268 264 OFFCURVE",
"275 257 OFFCURVE",
"284 257 CURVE SMOOTH",
"526 257 LINE SMOOTH",
"534 257 OFFCURVE",
"541 264 OFFCURVE",
"541 273 CURVE SMOOTH",
"541 296 LINE SMOOTH",
"541 305 OFFCURVE",
"534 313 OFFCURVE",
"526 313 CURVE SMOOTH"
);
},
{
closed = 1;
nodes = (
"184 559 LINE",
"162 538 LINE",
"172 528 LINE",
"176 531 OFFCURVE",
"180 535 OFFCURVE",
"183 539 CURVE",
"183 484 LINE",
"163 484 LINE",
"163 471 LINE",
"217 471 LINE",
"217 484 LINE",
"198 484 LINE",
"198 559 LINE"
);
},
{
closed = 1;
nodes = (
"284 428 LINE SMOOTH",
"275 428 OFFCURVE",
"268 421 OFFCURVE",
"268 412 CURVE SMOOTH",
"268 388 LINE SMOOTH",
"268 379 OFFCURVE",
"275 372 OFFCURVE",
"284 372 CURVE SMOOTH",
"526 372 LINE SMOOTH",
"534 372 OFFCURVE",
"541 379 OFFCURVE",
"541 388 CURVE SMOOTH",
"541 412 LINE SMOOTH",
"541 421 OFFCURVE",
"534 428 OFFCURVE",
"526 428 CURVE SMOOTH"
);
}
